<svg xmlns="http://www.w3.org/2000/svg" xmlns:xlink="http://www.w3.org/1999/xlink" version="1.1" x="0px" y="0px" viewBox="0 0 28 35" style="enable-background:new 0 0 28 28;" xml:space="preserve"><g><path d="M14,0c-3.563,0-6.808,1.349-9.282,3.548C4.993,3.741,5.231,3.98,5.428,4.252C7.719,2.234,10.714,1,14,1   c7.169,0,13,5.832,13,13s-5.831,13-13,13C6.831,27,1,21.168,1,14c0-1.834,0.386-3.577,1.074-5.161   C1.751,8.733,1.454,8.578,1.189,8.376C0.429,10.099,0,11.999,0,14c0,7.72,6.28,14,14,14c7.72,0,14-6.28,14-14S21.72,0,14,0z"/><path d="M4,14c0,5.514,4.485,10,10,10c5.515,0,10-4.486,10-10c0-0.868-0.123-1.705-0.332-2.509   c-0.278,0.186-0.593,0.319-0.927,0.405C22.904,12.572,23,13.274,23,14c0,4.963-4.037,9-9,9c-4.963,0-9-4.037-9-9s4.037-9,9-9   c2.174,0,4.171,0.775,5.728,2.063c0.22-0.258,0.479-0.476,0.773-0.647C18.751,4.914,16.482,4,14,4C8.485,4,4,8.486,4,14z"/><circle cx="14" cy="14" r="5"/><circle cx="3" cy="6" r="2"/><circle cx="22" cy="9" r="2"/></g><text x="0" y="43" fill="#000000" font-size="5px" font-weight="bold" font-family="'Helvetica Neue', Helvetica, Arial-Unicode, Arial, Sans-serif">Created by Hea Poh Lin</text><text x="0" y="48" fill="#000000" font-size="5px" font-weight="bold" font-family="'Helvetica Neue', Helvetica, Arial-Unicode, Arial, Sans-serif">from the Noun Project</text></svg>