<svg xmlns="http://www.w3.org/2000/svg" xmlns:xlink="http://www.w3.org/1999/xlink" version="1.0" x="0px" y="0px" viewBox="0 0 100 125" enable-background="new 0 0 100 100" xml:space="preserve"><g><circle fill="#000000" cx="24.6591797" cy="50.4208984" r="1.5"/></g><g><circle fill="#000000" cx="30.4091797" cy="50.4208984" r="1.5"/></g><g><circle fill="#000000" cx="36.1591797" cy="50.4208984" r="1.5"/></g><g><circle fill="#000000" cx="27.4091797" cy="45.4208984" r="1.5"/></g><g><circle fill="#000000" cx="33.1591797" cy="45.4208984" r="1.5"/></g><g><circle fill="#000000" cx="39.1591797" cy="45.4208984" r="1.5"/></g><g><circle fill="#000000" cx="24.6591797" cy="40.2075195" r="1.5"/></g><g><circle fill="#000000" cx="30.4091797" cy="40.2075195" r="1.5"/></g><g><circle fill="#000000" cx="36.1591797" cy="40.2075195" r="1.5"/></g><g><circle fill="#000000" cx="27.4091797" cy="35.2075195" r="1.5"/></g><g><circle fill="#000000" cx="33.1591797" cy="35.2075195" r="1.5"/></g><g><circle fill="#000000" cx="39.1591797" cy="35.2075195" r="1.5"/></g><g><circle fill="#000000" cx="30.4091797" cy="30.6044922" r="1.5"/></g><g><circle fill="#000000" cx="36.1591797" cy="30.6044922" r="1.5"/></g><g><circle fill="#000000" cx="39.1591797" cy="25.6044922" r="1.5"/></g><g><circle fill="#000000" cx="45.1591797" cy="45.6474609" r="1.5"/></g><g><circle fill="#000000" cx="50.9091797" cy="45.6474609" r="1.5"/></g><g><circle fill="#000000" cx="42.1591797" cy="40.6474609" r="1.5"/></g><g><circle fill="#000000" cx="47.9091797" cy="40.6474609" r="1.5"/></g><g><circle fill="#000000" cx="59.6591797" cy="40.6474609" r="1.5"/></g><g><circle fill="#000000" cx="45.1591797" cy="35.4345703" r="1.5"/></g><g><circle fill="#000000" cx="50.9091797" cy="35.4345703" r="1.5"/></g><g><circle fill="#000000" cx="56.6591797" cy="35.4345703" r="1.5"/></g><g><circle fill="#000000" cx="42.1591797" cy="30.4345703" r="1.5"/></g><g><circle fill="#000000" cx="47.9091797" cy="30.4345703" r="1.5"/></g><g><circle fill="#000000" cx="53.6591797" cy="30.4345703" r="1.5"/></g><g><circle fill="#000000" cx="59.6591797" cy="30.4345703" r="1.5"/></g><g><circle fill="#000000" cx="45.1591797" cy="25.8310547" r="1.5"/></g><g><circle fill="#000000" cx="50.9091797" cy="25.8310547" r="1.5"/></g><g><circle fill="#000000" cx="56.6591797" cy="25.8310547" r="1.5"/></g><g><circle fill="#000000" cx="42.1591797" cy="20.8310547" r="1.5"/></g><g><circle fill="#000000" cx="47.9091797" cy="20.8310547" r="1.5"/></g><g><circle fill="#000000" cx="53.6591797" cy="20.8310547" r="1.5"/></g><g><circle fill="#000000" cx="59.6591797" cy="20.8310547" r="1.5"/></g><g><circle fill="#000000" cx="65.6591797" cy="40.8740234" r="1.5"/></g><g><circle fill="#000000" cx="71.4091797" cy="40.8740234" r="1.5"/></g><g><circle fill="#000000" cx="68.4091797" cy="35.8740234" r="1.5"/></g><g><circle fill="#000000" cx="62.6591797" cy="35.8740234" r="1.5"/></g><g><circle fill="#000000" cx="65.6591797" cy="30.6611328" r="1.5"/></g><g><circle fill="#000000" cx="71.4091797" cy="30.6611328" r="1.5"/></g><g><circle fill="#000000" cx="62.6591797" cy="25.6611328" r="1.5"/></g><g><circle fill="#000000" cx="68.4091797" cy="25.6611328" r="1.5"/></g><g><circle fill="#000000" cx="65.6591797" cy="21.0581055" r="1.5"/></g><g><circle fill="#000000" cx="71.4091797" cy="21.0581055" r="1.5"/></g><g><circle fill="#000000" cx="62.6591797" cy="16.0581055" r="1.5"/></g><g><circle fill="#000000" cx="56.6591797" cy="16.0581055" r="1.5"/></g><g><circle fill="#000000" cx="68.4091797" cy="16.0581055" r="1.5"/></g><g><circle fill="#000000" cx="74.4091797" cy="35.8740234" r="1.5"/></g><g><circle fill="#000000" cx="77.4091797" cy="30.6611328" r="1.5"/></g><g><circle fill="#000000" cx="74.4091797" cy="25.6611328" r="1.5"/></g><g><circle fill="#000000" cx="77.4091797" cy="21.0581055" r="1.5"/></g><g><circle fill="#000000" cx="80.4091797" cy="35.8740234" r="1.5"/></g><g><circle fill="#000000" cx="83.4091797" cy="30.6611328" r="1.5"/></g><g><circle fill="#000000" cx="83.4091797" cy="21.0581055" r="1.5"/></g><g><circle fill="#000000" cx="53.6591797" cy="50.6474609" r="1.5"/></g><g><circle fill="#000000" cx="53.6591797" cy="40.6474609" r="1.5"/></g><g><circle fill="#000000" cx="59.6591797" cy="50.4208984" r="1.5"/></g><g><circle fill="#000000" cx="77.4091797" cy="40.8740234" r="1.5"/></g><g><circle fill="#000000" cx="62.6591797" cy="55.2504883" r="1.5"/></g><g><circle fill="#000000" cx="68.4091797" cy="55.2504883" r="1.5"/></g><g><circle fill="#000000" cx="65.6591797" cy="50.6474609" r="1.5"/></g><g><circle fill="#000000" cx="71.4091797" cy="50.6474609" r="1.5"/></g><g><circle fill="#000000" cx="62.6591797" cy="45.6474609" r="1.5"/></g><g><circle fill="#000000" cx="56.6591797" cy="45.6474609" r="1.5"/></g><g><circle fill="#000000" cx="68.4091797" cy="45.6474609" r="1.5"/></g><g><circle fill="#000000" cx="74.4091797" cy="55.2504883" r="1.5"/></g><g><circle fill="#000000" cx="77.4091797" cy="50.6474609" r="1.5"/></g><g><circle fill="#000000" cx="83.4091797" cy="50.6474609" r="1.5"/></g><g><polygon fill="#000000" points="38.8027344,55.2084961 21.6279297,55.2084961 20.9116211,61.0507813 39.519043,61.0507813  "/><polygon fill="#000000" points="42.40625,84.6000977 39.6416016,62.0507813 20.7890625,62.0507813 18.0244141,84.6000977  "/></g><text x="0" y="115" fill="#000000" font-size="5px" font-weight="bold" font-family="'Helvetica Neue', Helvetica, Arial-Unicode, Arial, Sans-serif">Created by Yu luck</text><text x="0" y="120" fill="#000000" font-size="5px" font-weight="bold" font-family="'Helvetica Neue', Helvetica, Arial-Unicode, Arial, Sans-serif">from the Noun Project</text></svg>