<svg xmlns="http://www.w3.org/2000/svg" xmlns:xlink="http://www.w3.org/1999/xlink" version="1.1" x="0px" y="0px" viewBox="0 0 100 125" enable-background="new 0 0 100 100" xml:space="preserve"><g><path d="M46.74,21.321c3.741,3.682,6.323,8.372,7.303,13.538c2.464-5.819,3.473-12.112,2.909-18.376   c-0.297-3.354-3.206-5.789-6.531-5.522c-3.325,0.267-5.789,3.207-5.522,6.531C45.047,18.946,45.671,20.312,46.74,21.321z"/></g><g><path d="M40,28.387c3.117-0.98,6.442-0.98,9.53,0c-2.434-3.028-5.581-5.433-9.144-6.977c-1.9-0.832-4.097,0.03-4.928,1.9   c-0.802,1.9,0.06,4.097,1.959,4.928C38.219,28.624,39.169,28.654,40,28.387z"/></g><g><path d="M67.313,24.616c-3.236,0.356-6.264,1.663-8.729,3.771c1.039-3.741,2.969-7.185,5.641-10.035   c0.594-0.653,1.426-1.039,2.316-1.158c2.078-0.178,3.889,1.277,4.097,3.355C70.876,22.598,69.362,24.438,67.313,24.616z"/></g><g><polygon points="92.845,89.572 7.612,89.572 41.218,32.84 54.398,46.081 62.593,38.569  "/></g><text x="0" y="115" fill="#000000" font-size="5px" font-weight="bold" font-family="'Helvetica Neue', Helvetica, Arial-Unicode, Arial, Sans-serif">Created by Aldric Rodríguez</text><text x="0" y="120" fill="#000000" font-size="5px" font-weight="bold" font-family="'Helvetica Neue', Helvetica, Arial-Unicode, Arial, Sans-serif">from the Noun Project</text></svg>