<svg xmlns="http://www.w3.org/2000/svg" xmlns:xlink="http://www.w3.org/1999/xlink" version="1.1" x="0px" y="0px" viewBox="0 0 100 125" enable-background="new 0 0 100 100" xml:space="preserve"><path fill="#000000" d="M20.208,18.958c0.014,0.004,0.027-0.005,0.041,0.001c0.019,0.008,0.024,0.03,0.04,0.042  c0.011,0.008,0.027,0.009,0.037,0.02l0.319-0.504c-0.068,0-0.129-0.029-0.174-0.074c-0.001-0.001-0.003,0-0.004-0.002  c-0.019-0.019-0.016-0.046-0.027-0.068c-0.013-0.024-0.029-0.046-0.033-0.074c-0.213,0.195-0.416,0.401-0.625,0.6l0.39,0.04  C20.187,18.94,20.195,18.955,20.208,18.958z"/><path fill="#000000" d="M22.678,16.371c-0.406,0.324-0.805,0.653-1.198,0.991l0.177,0.023L22.678,16.371z"/><polygon fill="#000000" points="89.594,46.746 89.486,46.009 89.498,46.643 "/><polygon fill="#000000" points="89.69,32.258 89.528,31.931 89.412,31.736 89.44,32.026 "/><path fill="#000000" d="M88.679,30.617l-0.044-0.076c-0.027,0.01-0.055,0.014-0.082,0.014c-0.041,0-0.078-0.017-0.113-0.036  l0.044,0.069L88.679,30.617z"/><path fill="#000000" d="M92.154,55.011c-0.021-0.004-0.043-0.005-0.062-0.015l-1.234-0.615c-0.01-0.005-0.012-0.018-0.02-0.023  c-0.031-0.021-0.049-0.047-0.067-0.077c-0.015-0.024-0.03-0.042-0.036-0.069c-0.002-0.01-0.012-0.015-0.014-0.025l-0.043-0.371  c-0.001-0.011,0.009-0.02,0.01-0.03c0-0.011-0.01-0.02-0.009-0.03c0.003-0.018,0.019-0.026,0.024-0.042  c-0.004,0-0.008,0.001-0.011,0.001h-0.001l0,0c-0.001,0-0.002-0.001-0.003-0.001c-0.054-0.001-0.104-0.021-0.147-0.054  c-0.014-0.012-0.02-0.027-0.031-0.041c-0.02-0.022-0.043-0.039-0.053-0.068l-1.055-2.876l-1.346-2.606c0-0.001,0-0.003,0-0.004  c-0.015-0.029-0.006-0.062-0.008-0.095c-0.002-0.032-0.016-0.064-0.006-0.095c0.001-0.001,0-0.002,0-0.004  c0.012-0.032,0.041-0.045,0.062-0.069c0.02-0.023,0.029-0.055,0.059-0.07c0.002,0,0.003,0,0.004,0c0.03-0.015,0.065-0.006,0.1-0.008  c0.031-0.001,0.061-0.014,0.09-0.005c0.001,0.001,0.003,0,0.004,0l0.614,0.216c0.022,0.008,0.031,0.031,0.05,0.045  c0.02,0.013,0.045,0.013,0.061,0.032l0.537,0.651l-0.293-1.463l-0.264-0.283c-0.02-0.021-0.018-0.051-0.029-0.077  C89.024,46.807,89,46.783,89,46.749l-0.026-1.361l-0.176-0.623l-1.031-2.207l-0.501,0.479c-0.016,0.015-0.037,0.012-0.055,0.022  c-0.018,0.01-0.024,0.03-0.043,0.036c-0.025,0.008-0.051,0.011-0.075,0.011c-0.062,0-0.116-0.028-0.162-0.069  c-0.005-0.005-0.014-0.002-0.019-0.008c-0.01-0.011-0.007-0.026-0.015-0.038c-0.015-0.021-0.036-0.035-0.044-0.06l-0.341-1.088  l-1.431-1.676l-1.115,0.478l-1.253,2.606l0.639,2.616c0.006,0.025-0.009,0.046-0.011,0.071c-0.001,0.025,0.012,0.049,0.003,0.075  l-0.329,0.895c-0.01,0.029-0.033,0.046-0.053,0.068c-0.008,0.01-0.006,0.023-0.016,0.032l-0.678,0.606  c-0.004,0.003-0.009,0.002-0.013,0.005c-0.003,0.003-0.003,0.008-0.007,0.011c-0.045,0.032-0.096,0.047-0.146,0.047  c-0.068,0-0.137-0.028-0.187-0.083c-0.004-0.004-0.001-0.01-0.005-0.014c-0.003-0.004-0.009-0.002-0.012-0.006l-0.982-1.358  l-2.703-3.394l-3.262-2.288l-2.474-1.306l-2.633-0.206c-0.072-0.006-0.132-0.043-0.173-0.096c-0.002-0.002-0.006-0.001-0.008-0.004  l-0.384-0.514l-1.363,0.213c-0.013,0.002-0.025,0.003-0.038,0.003c-0.001,0-0.001,0-0.001,0h-0.001  c-0.031,0-0.063-0.006-0.095-0.019l-1.402-0.583c-0.03-0.012-0.041-0.042-0.063-0.063c-0.013-0.012-0.033-0.008-0.045-0.023  l-0.69-0.977l-0.455,0.188l0.08,0.497l1.968,1.838l1.508-0.775c0.023-0.012,0.047-0.001,0.071-0.006  c0.032-0.006,0.06-0.015,0.091-0.008c0.033,0.007,0.057,0.025,0.084,0.044c0.02,0.014,0.045,0.014,0.061,0.033l0.407,0.495  l1.239,0.627c0.024,0.013,0.031,0.04,0.05,0.059c0.023,0.023,0.048,0.041,0.062,0.071c0.012,0.03,0.007,0.06,0.008,0.092  c0,0.026,0.014,0.051,0.006,0.077l-0.541,1.696c-0.017,0.053-0.05,0.097-0.092,0.127c-0.001,0-0.001,0-0.001,0l-3.265,2.326  c-0.009,0.007-0.021,0.005-0.03,0.01c-0.007,0.004-0.009,0.013-0.016,0.016l-3.678,1.581c-0.013,0.006-0.026,0.005-0.04,0.008  c-0.004,0.001-0.006,0.006-0.011,0.007l-1.128,0.221c0,0-0.002,0-0.002,0c-0.001,0-0.002,0-0.002,0  c-0.014,0.002-0.029,0.004-0.044,0.004c-0.046,0-0.085-0.021-0.122-0.043l0.258,0.625l1.076-0.025l2.451-0.759  c0.02-0.006,0.035,0.006,0.055,0.005c0.033-0.003,0.061-0.002,0.094,0.009c0.031,0.01,0.053,0.025,0.078,0.046  c0.015,0.012,0.035,0.012,0.048,0.028l0.476,0.636c0.008,0.01,0.003,0.022,0.009,0.033c0.017,0.029,0.019,0.056,0.022,0.089  s0.008,0.06,0,0.092c-0.004,0.011,0.004,0.022-0.001,0.034l-0.708,1.658c-0.006,0.015-0.021,0.022-0.029,0.036  c-0.006,0.008-0.002,0.019-0.009,0.027l-2.175,2.587c-0.007,0.008-0.019,0.005-0.025,0.012c-0.009,0.008-0.008,0.021-0.018,0.028  l-0.811,0.599l-2.43,3.349l0.576,3.423c0,0.002-0.002,0.004-0.002,0.005c0,0.002,0.003,0.003,0.003,0.005l0.239,1.822  c0.002,0.012-0.009,0.021-0.009,0.033c0,0.033-0.011,0.059-0.024,0.089c-0.013,0.03-0.022,0.056-0.046,0.079  c-0.009,0.01-0.008,0.022-0.018,0.03l-2.737,2.081l0.309,2.189c0.002,0.02-0.012,0.033-0.014,0.053  c-0.002,0.033-0.008,0.059-0.023,0.089c-0.015,0.03-0.032,0.05-0.058,0.071c-0.014,0.012-0.017,0.033-0.034,0.042l-1.179,0.643  l0.044,1.071c0,0.029-0.02,0.049-0.028,0.076c-0.007,0.025,0,0.053-0.016,0.075l-1.163,1.707c-0.014,0.021-0.035,0.032-0.053,0.047  c-0.006,0.005-0.006,0.013-0.012,0.018l-1.883,1.31c-0.021,0.014-0.045,0.014-0.067,0.021c-0.013,0.004-0.018,0.018-0.03,0.02  l-1.879,0.338c-0.002,0-0.002,0-0.003,0h-0.001l-1.908,0.32c-0.014,0.002-0.028,0.003-0.042,0.003h0  c-0.061,0-0.118-0.023-0.162-0.062c-0.001-0.001-0.002,0-0.003-0.002l-0.631-0.559c-0.001-0.002-0.001-0.004-0.002-0.005  c-0.032-0.028-0.042-0.071-0.056-0.114c-0.006-0.02-0.024-0.035-0.025-0.056l0-0.001l-0.033-0.746l-1.258-1.764  c-0.005-0.007-0.001-0.016-0.005-0.023c-0.006-0.012-0.018-0.017-0.023-0.028L46.9,65.066l-1.382-2.318  c-0.011-0.018-0.002-0.037-0.008-0.057c-0.007-0.021-0.025-0.034-0.026-0.057l-0.128-2.186c-0.001-0.026,0.018-0.045,0.024-0.07  c0.005-0.023-0.003-0.049,0.01-0.072l0.771-1.301l-0.242-1.375l-0.719-2.013l-1.705-2.156c-0.007-0.009-0.003-0.022-0.009-0.032  c-0.017-0.027-0.02-0.055-0.025-0.088c-0.005-0.033-0.01-0.061-0.002-0.093c0.003-0.012-0.005-0.022,0-0.033l0.667-1.714  l-0.465-0.542l-1.447,0.165c-0.01,0-0.019,0.001-0.028,0.001h0c-0.074,0-0.135-0.039-0.181-0.093  c-0.006-0.006-0.016-0.004-0.021-0.01l-0.761-1.047l-1.104-0.182l-1.678,0.7c-0.015,0.006-0.03,0.006-0.045,0.009  c-0.004,0.001-0.006,0.006-0.011,0.007l-2.855,0.465c-0.014,0.002-0.026,0.003-0.04,0.003h-0.001c0,0-0.001,0-0.001,0  c-0.046-0.001-0.092-0.013-0.133-0.04l-2.582-1.668c-0.008-0.005-0.008-0.016-0.015-0.021s-0.018-0.003-0.024-0.01l-1.598-1.568  c-0.003-0.003-0.002-0.008-0.005-0.011s-0.008-0.001-0.01-0.005l-0.667-0.782c-0.001-0.002,0-0.004-0.002-0.006  c-0.021-0.025-0.02-0.06-0.029-0.091c-0.009-0.031-0.028-0.059-0.024-0.09c0-0.002-0.002-0.004-0.002-0.006l0.21-1.635l-0.172-2.979  c-0.001-0.024,0.017-0.041,0.022-0.063c0.004-0.022-0.005-0.046,0.006-0.067l1.525-2.917c0.008-0.016,0.027-0.019,0.039-0.032  c0.011-0.014,0.009-0.033,0.023-0.045l2.145-1.784l0.356-1.159c0.008-0.026,0.033-0.038,0.048-0.059  c0.013-0.02,0.014-0.045,0.033-0.062l1.543-1.257c0.016-0.013,0.036-0.008,0.053-0.016c0.017-0.009,0.025-0.028,0.045-0.033  l4.424-1.074c0.006-0.001,0.011,0.004,0.017,0.003c0.006-0.001,0.009-0.008,0.015-0.008l4.158-0.459  c0.014-0.001,0.025,0.011,0.039,0.011c0.035,0.002,0.061,0.012,0.091,0.027c0.028,0.014,0.049,0.026,0.07,0.049  c0.011,0.011,0.029,0.012,0.038,0.026l1.658,2.581l4.542-0.07c0.01-0.001,0.018,0.009,0.025,0.01c0.01,0,0.018-0.007,0.027-0.005  l3.766,0.735l1.716-0.047l0.513-0.726l0.439-1.755l-3.389,0.182c-0.004,0-0.008,0-0.013,0h-0.001v0c-0.057,0-0.106-0.025-0.15-0.06  c-0.012-0.01-0.021-0.018-0.031-0.029c-0.01-0.012-0.023-0.018-0.031-0.031l-1.317-2.176l-0.987,0.186l0.818,1.269  c0.006,0.009,0.002,0.02,0.006,0.029s0.016,0.012,0.02,0.021c0.009,0.023-0.004,0.045-0.003,0.069  c0.002,0.033,0.007,0.062-0.004,0.093s-0.03,0.051-0.053,0.076c-0.016,0.018-0.019,0.043-0.04,0.057  c-0.01,0.007-0.022,0.005-0.033,0.01c-0.008,0.003-0.01,0.012-0.017,0.015l-1.257,0.457c-0.029,0.01-0.058,0.015-0.086,0.015  c-0.029,0-0.059-0.005-0.088-0.016l-0.989-0.369c-0.011-0.004-0.014-0.017-0.024-0.022c-0.035-0.018-0.059-0.043-0.082-0.076  c-0.014-0.019-0.028-0.032-0.036-0.054c-0.003-0.008-0.011-0.012-0.014-0.021l-0.626-2.484l-2.675-1.827l-0.384,0.137l0.203,0.515  l2.785,1.93c0.012,0.008,0.012,0.025,0.022,0.035c0.024,0.023,0.037,0.047,0.05,0.078s0.022,0.056,0.022,0.089  c0,0.015,0.013,0.026,0.01,0.041c-0.003,0.023-0.022,0.037-0.031,0.057c-0.007,0.017,0,0.035-0.011,0.05  c-0.005,0.008-0.017,0.005-0.023,0.012c-0.046,0.055-0.107,0.095-0.182,0.095h0c-0.012,0-0.024-0.001-0.036-0.002l-0.622-0.091  l0.068,0.349c0.002,0.013-0.008,0.023-0.007,0.036c0.002,0.034-0.007,0.06-0.018,0.091c-0.011,0.032-0.021,0.057-0.043,0.081  c-0.009,0.01-0.007,0.024-0.018,0.033l-0.664,0.549c0,0,0,0-0.001,0.001l-0.005,0.004c-0.043,0.036-0.095,0.05-0.146,0.053  c-0.005,0-0.008,0.004-0.012,0.004h0c-0.011,0-0.021,0-0.031-0.002c-0.053-0.007-0.092-0.04-0.129-0.074  c-0.009-0.008-0.024-0.005-0.032-0.015c-0.001-0.001,0-0.003-0.001-0.004c-0.019-0.024-0.017-0.057-0.027-0.086  c-0.01-0.033-0.03-0.063-0.026-0.097c0-0.001-0.001-0.002-0.001-0.004l0.091-0.725l-1.891-1.106  c-0.013-0.008-0.014-0.024-0.025-0.033c-0.01-0.008-0.025-0.005-0.034-0.015l-1.037-1.147l-1.542,0.705  c-0.033,0.015-0.068,0.022-0.103,0.022c0,0,0,0,0,0h0c0,0,0,0,0,0c-0.017,0-0.034-0.002-0.051-0.005l-1.06-0.225l-0.336,0.653  c-0.008,0.017-0.024,0.024-0.036,0.038c-0.006,0.008-0.004,0.019-0.011,0.025l-0.18,0.178c-0.015,0.014-0.036,0.011-0.052,0.021  c-0.016,0.01-0.021,0.03-0.04,0.036l-0.864,0.307l-0.493,0.606l0.197,0.194c0.004,0.004,0.002,0.01,0.006,0.014  c0.003,0.003,0.009,0.003,0.013,0.007c0.019,0.023,0.014,0.053,0.023,0.08c0.011,0.031,0.028,0.057,0.027,0.09  s-0.021,0.057-0.035,0.087c-0.012,0.026-0.01,0.056-0.031,0.077c-0.004,0.004-0.01,0.002-0.014,0.006  c-0.004,0.003-0.003,0.009-0.007,0.013l-0.853,0.692c-0.011,0.009-0.024,0.006-0.036,0.013c-0.009,0.005-0.011,0.018-0.021,0.022  l-0.905,0.396c-0.009,0.004-0.018,0.003-0.027,0.006c-0.004,0.001-0.005,0.006-0.01,0.007l-1.413,0.367  c-0.021,0.005-0.042,0.008-0.063,0.008c-0.063,0-0.118-0.028-0.164-0.069c-0.004-0.004-0.011-0.002-0.015-0.006l-0.473-0.483  l-0.902-0.161c-0.029-0.005-0.045-0.03-0.069-0.044c-0.029-0.016-0.059-0.025-0.079-0.05c-0.021-0.026-0.021-0.057-0.031-0.089  c-0.008-0.027-0.029-0.048-0.027-0.077l0.026-0.437l-0.155-0.06c-0.001,0-0.001-0.002-0.002-0.002c-0.002-0.001-0.005,0-0.007-0.001  c-0.03-0.013-0.041-0.043-0.062-0.064c-0.023-0.023-0.054-0.039-0.067-0.069c-0.012-0.029-0.001-0.061-0.002-0.092  s-0.015-0.062-0.002-0.094c0-0.002,0.003-0.002,0.004-0.004c0-0.002,0-0.003,0-0.005l0.433-1.004l0.176-1.441  c0.003-0.027,0.026-0.042,0.038-0.066c0.015-0.032,0.023-0.064,0.05-0.088c0.025-0.021,0.055-0.024,0.085-0.035  c0.026-0.009,0.045-0.031,0.075-0.031l3.127,0l0.047-1.18l-0.311-0.478l-0.778-0.166c-0.029-0.006-0.044-0.032-0.068-0.047  c-0.028-0.018-0.057-0.027-0.076-0.053c-0.02-0.026-0.02-0.058-0.028-0.09c-0.007-0.027-0.027-0.049-0.024-0.078l0.05-0.532  c0-0.001,0.001-0.001,0.001-0.002s0-0.001,0-0.002c0.013-0.114,0.104-0.185,0.213-0.203c0.021-0.004,0.037-0.02,0.059-0.019  c0.001,0,0.001,0.001,0.002,0.001c0,0,0.002,0,0.002,0l0.898,0.098l0.055,0l-0.04-0.207c-0.003-0.015,0.009-0.026,0.008-0.041  s-0.012-0.025-0.01-0.04c0.003-0.02,0.021-0.029,0.028-0.047c0.013-0.034,0.026-0.06,0.052-0.085  c0.021-0.021,0.041-0.032,0.067-0.044c0.02-0.01,0.03-0.03,0.053-0.035c0.015-0.003,0.027,0.009,0.042,0.009  c0.014-0.001,0.025-0.012,0.039-0.011l0.987,0.136l0.461-0.318c-0.016,0.004-0.025,0.02-0.042,0.021l-1.964,0.148l-1.11,0.263  c-0.02,0.005-0.039,0.007-0.058,0.007c-0.07,0-0.128-0.037-0.175-0.086c-0.006-0.006-0.017-0.004-0.023-0.011  c-0.01-0.013-0.004-0.029-0.011-0.042c-0.01-0.019-0.028-0.031-0.034-0.052c-0.004-0.016,0.008-0.029,0.007-0.045  c-0.002-0.033,0.003-0.06,0.015-0.091s0.023-0.055,0.046-0.08c0.011-0.012,0.01-0.03,0.023-0.04l0.616-0.474l-0.28-0.223  c-0.007-0.006-0.006-0.017-0.013-0.023c-0.018-0.017-0.039-0.03-0.051-0.052c-0.008-0.016,0-0.033-0.005-0.049  c-0.01-0.031-0.013-0.058-0.01-0.091c0.002-0.033,0.01-0.059,0.025-0.089c0.008-0.015,0.002-0.033,0.014-0.047  c0.011-0.014,0.03-0.013,0.043-0.024c0.013-0.012,0.016-0.031,0.032-0.04l0.428-0.234l0.249-0.845h-0.366  c0,0.018-0.014,0.032-0.018,0.049c-0.003,0.021,0.007,0.041-0.002,0.061l-0.61,1.3c-0.002,0.004-0.007,0.006-0.01,0.011  c-0.006,0.011-0.016,0.016-0.023,0.026c-0.03,0.039-0.066,0.066-0.11,0.083c-0.009,0.003-0.012,0.013-0.021,0.016l-1.111,0.29  c-0.021,0.006-0.042,0.008-0.063,0.008l-0.654,0c-0.058,0-0.11-0.027-0.155-0.064c-0.012-0.01-0.021-0.019-0.031-0.031  s-0.025-0.019-0.033-0.033l-0.161-0.29c-0.015-0.026-0.005-0.055-0.009-0.083c-0.005-0.026-0.023-0.048-0.019-0.076l0.2-1.338  c0,0,0.001,0,0.001-0.001c0-0.001,0-0.002,0-0.003c0.005-0.031,0.032-0.047,0.047-0.073c0.018-0.031,0.027-0.067,0.056-0.087  c0.023-0.017,0.055-0.012,0.083-0.02c0.033-0.01,0.062-0.03,0.099-0.024c0.001,0,0.001,0.001,0.002,0.001c0.001,0,0.002,0,0.003,0  l0.596,0.103l0.166-0.344c0.004-0.01,0.017-0.011,0.022-0.02c0.018-0.028,0.042-0.042,0.07-0.062  c0.027-0.019,0.049-0.037,0.081-0.044c0.01-0.002,0.016-0.013,0.026-0.014l0.768-0.081c0.003,0,0.005,0.003,0.008,0.002  c0.03-0.002,0.054,0.016,0.083,0.024c0.034,0.01,0.067,0.011,0.094,0.035c0.003,0.002,0.007,0.001,0.01,0.003l0.004,0.003  l-0.136-0.212c-0.009-0.014-0.002-0.029-0.008-0.043c-0.013-0.031-0.016-0.057-0.016-0.09c0-0.034,0.003-0.06,0.016-0.091  c0.005-0.014-0.001-0.03,0.007-0.043l0.774-1.227c0.003-0.005,0.01-0.005,0.014-0.01c0.019-0.027,0.049-0.038,0.078-0.055  c0.028-0.017,0.05-0.038,0.082-0.043c0.006-0.001,0.009-0.007,0.015-0.008l1.05-0.097c0.023-0.001,0.04,0.016,0.062,0.02  c0.023,0.003,0.047-0.007,0.069,0.004c0.011,0.005,0.013,0.019,0.022,0.025c0.026,0.017,0.04,0.04,0.058,0.064  c0.02,0.028,0.038,0.051,0.045,0.084c0.002,0.011,0.014,0.017,0.015,0.028c0.002,0.024-0.016,0.042-0.02,0.065  c-0.004,0.022,0.006,0.045-0.004,0.066l-0.111,0.23l0.347,0c0,0,0,0,0,0c0.023,0,0.038,0.019,0.06,0.025  c0.021,0.005,0.044-0.004,0.064,0.008c0.011,0.006,0.012,0.02,0.021,0.027c0.026,0.02,0.039,0.044,0.056,0.072  c0.017,0.029,0.031,0.053,0.036,0.085c0.002,0.012,0.013,0.02,0.013,0.032c0,0.023-0.019,0.038-0.024,0.06s0.003,0.044-0.008,0.064  l-0.439,0.771l1.25,1.071c0.017,0.015,0.016,0.038,0.028,0.055c0.019,0.027,0.034,0.049,0.041,0.082  c0.008,0.033,0.004,0.06-0.002,0.093c-0.003,0.021,0.007,0.041-0.001,0.061l-0.037,0.083l0.466,0.091  c0.031,0.006,0.047,0.032,0.072,0.048c0.029,0.018,0.063,0.027,0.083,0.055c0.019,0.026,0.015,0.06,0.022,0.091  c0.007,0.03,0.027,0.056,0.022,0.089l-0.058,0.384c-0.004,0.029-0.027,0.047-0.04,0.072c-0.009,0.018-0.004,0.039-0.018,0.054  l-0.528,0.609l0.979-0.675c0.001-0.001,0.003,0,0.005-0.001c0.001-0.001,0.001-0.003,0.002-0.004l0.434-0.276l0.326-0.65  c0.003-0.007,0.012-0.007,0.016-0.014c0.017-0.028,0.044-0.041,0.07-0.061c0.027-0.02,0.048-0.042,0.08-0.05  c0.007-0.001,0.01-0.009,0.017-0.01l1.76-0.29l0.029-1.426c0-0.019,0.016-0.029,0.02-0.045c0.006-0.031,0.016-0.054,0.034-0.081  c0.018-0.026,0.037-0.045,0.064-0.063c0.015-0.011,0.02-0.03,0.038-0.038l1.171-0.473c0.026-0.011,0.051,0.002,0.077,0  c0.024-0.002,0.045-0.018,0.069-0.013c0.008,0.002,0.011,0.011,0.019,0.013c0.032,0.01,0.052,0.032,0.078,0.054  c0.025,0.021,0.05,0.036,0.064,0.065c0.004,0.007,0.014,0.009,0.018,0.018c0.01,0.025-0.002,0.049,0,0.075  c0.002,0.025,0.018,0.046,0.013,0.071l-0.208,0.964c-0.002,0.012-0.014,0.018-0.018,0.029c-0.003,0.009,0.002,0.019-0.002,0.028  l-0.212,0.431l0.476,0.279l3.569-0.514c0.02-0.003,0.036,0.012,0.055,0.014c0.021,0.002,0.039-0.011,0.059-0.004l0.57,0.189  l0.482-0.43l0.699-1.208c0.017-0.028,0.048-0.036,0.072-0.055c0.025-0.02,0.043-0.047,0.073-0.056  c0.031-0.01,0.062,0.003,0.095,0.006c0.03,0.003,0.06-0.008,0.088,0.006l0.48,0.24l0.198-1.043c0-0.003,0.004-0.005,0.005-0.008  l-0.817,0.021c-0.002,0-0.004,0-0.006,0c-0.006,0-0.012,0-0.018,0c-0.027-0.002-0.045-0.024-0.07-0.035  c-0.033-0.014-0.067-0.02-0.092-0.045c-0.02-0.022-0.022-0.052-0.034-0.08c-0.013-0.028-0.036-0.051-0.036-0.083  c0-0.004,0.004-0.007,0.004-0.011s-0.004-0.007-0.004-0.012l0.113-1.686c0-0.012,0.012-0.019,0.016-0.031  c0.006-0.033,0.021-0.055,0.041-0.083c0.019-0.028,0.033-0.051,0.061-0.069c0.01-0.007,0.012-0.02,0.023-0.025l2.031-0.981  l-0.017-0.057l-1.245,0.008l-0.394,0.728c-0.024,0.047-0.063,0.079-0.108,0.101c-0.002,0.001-0.003,0.005-0.006,0.007l-1.083,0.505  c-0.005,0.002-0.011,0.001-0.017,0.004c-0.003,0.001-0.004,0.005-0.007,0.006l-0.915,0.317l-0.293,0.679l0.855,0.37  c0.029,0.013,0.04,0.042,0.061,0.063c0.023,0.022,0.053,0.038,0.066,0.067c0.013,0.03,0.004,0.062,0.005,0.095  c0.001,0.03,0.015,0.057,0.005,0.087l-0.18,0.512c-0.004,0.012-0.016,0.018-0.021,0.028c-0.009,0.018-0.021,0.029-0.034,0.044  c-0.028,0.032-0.059,0.054-0.099,0.068c-0.012,0.004-0.017,0.018-0.029,0.02l-0.917,0.198l-0.29,1.178  c-0.004,0.019-0.021,0.028-0.029,0.045c-0.01,0.021-0.02,0.038-0.036,0.056c-0.027,0.03-0.058,0.047-0.096,0.062  c-0.014,0.005-0.021,0.021-0.037,0.024l-1.669,0.302c-0.015,0.002-0.029,0.004-0.044,0.004h0c0,0-0.001,0-0.001,0  c-0.051,0-0.099-0.021-0.141-0.051c-0.013-0.009-0.021-0.021-0.032-0.033c-0.014-0.015-0.032-0.024-0.042-0.042l-0.944-1.665  l-0.464,0.017l-0.677,0.494c-0.032,0.023-0.069,0.028-0.105,0.034c-0.011,0.002-0.017,0.013-0.027,0.013l-0.795,0.048  c-0.005,0-0.01,0-0.015,0c-0.035,0-0.069-0.007-0.103-0.022l-0.571-0.258c-0.012-0.005-0.015-0.02-0.025-0.027  c-0.03-0.019-0.048-0.042-0.068-0.072c-0.016-0.024-0.03-0.044-0.037-0.072c-0.003-0.012-0.014-0.019-0.016-0.031l-0.188-1.837  c-0.002-0.019,0.013-0.033,0.015-0.051c0.003-0.033,0.01-0.059,0.026-0.088s0.034-0.048,0.06-0.069  c0.014-0.012,0.018-0.032,0.035-0.041l2.047-1.024c0.009-0.004,0.019,0.001,0.028-0.002c0.009-0.003,0.012-0.014,0.022-0.017  l0.717-0.182l2.733-2.159l0.557-0.644c0.016-0.019,0.041-0.018,0.061-0.03c0.019-0.013,0.027-0.036,0.05-0.043l1.224-0.402  c0.004-0.001,0.007,0.002,0.011,0.001c0.004-0.001,0.005-0.006,0.01-0.007l3.769-0.881c0.014-0.003,0.023,0.007,0.036,0.006  s0.021-0.013,0.034-0.012l2.59,0.138c0.018,0.001,0.027,0.017,0.043,0.021c0.017,0.004,0.033-0.005,0.049,0.002l1.252,0.576  l4.088,0.783c0.018,0.003,0.025,0.02,0.041,0.027c0.016,0.006,0.033-0.001,0.048,0.009l0.738,0.478  c0.005,0.003,0.005,0.009,0.009,0.013c0.03,0.021,0.043,0.055,0.061,0.088c0.014,0.025,0.032,0.044,0.037,0.072  c0,0.005,0.006,0.008,0.007,0.014c0.003,0.029-0.017,0.051-0.024,0.079c-0.006,0.027,0.002,0.056-0.015,0.081  c-0.004,0.006-0.011,0.008-0.015,0.013c-0.006,0.009-0.015,0.013-0.023,0.021c-0.037,0.037-0.081,0.061-0.131,0.069  c-0.007,0.001-0.011,0.009-0.018,0.009l-4.074,0.38l0.389,0.786l1.398,0.116l3.033-1.378l0.147-0.762  c0.004-0.02,0.022-0.028,0.03-0.045c0.014-0.031,0.027-0.055,0.053-0.078c0.023-0.022,0.046-0.035,0.076-0.047  c0.018-0.007,0.027-0.026,0.048-0.029l4.933-0.773l2.367-1.406c0.021-0.012,0.043-0.004,0.065-0.009  c0.022-0.007,0.038-0.026,0.062-0.026c0.001,0,0.001,0,0.003,0l2.494,0.024C66.945,9.385,58.7,6.778,50.063,6.778  c-3.505,0-7,0.431-10.424,1.269L36.8,8.845c-2.561,0.81-4.997,1.832-7.293,3.045l-1.632,0.979l0.301,0.202  c0.023,0.016,0.027,0.044,0.043,0.065c0.02,0.026,0.043,0.046,0.052,0.078s-0.001,0.06-0.005,0.093  c-0.003,0.027,0.008,0.053-0.004,0.079l-0.478,1l0.2,0.706c0.006,0.022-0.008,0.041-0.007,0.063c0.001,0.033,0.001,0.06-0.011,0.09  c-0.012,0.032-0.03,0.052-0.054,0.077c-0.014,0.015-0.017,0.038-0.035,0.05l-2.14,1.35l-0.011,0.842  c0,0.017-0.015,0.027-0.019,0.043c-0.006,0.033-0.017,0.057-0.036,0.084c-0.019,0.028-0.037,0.047-0.065,0.066  c-0.014,0.009-0.018,0.027-0.034,0.034l-1.623,0.686c-0.032,0.013-0.064,0.02-0.097,0.02c-0.022,0-0.045-0.003-0.067-0.009  c-0.01-0.003-0.013-0.014-0.022-0.017c-0.042-0.017-0.075-0.043-0.103-0.081c-0.009-0.012-0.02-0.019-0.027-0.032  c-0.003-0.006-0.009-0.008-0.011-0.014c-0.012-0.028,0.001-0.056,0-0.084c-0.002-0.027-0.018-0.052-0.01-0.08l0.083-0.298  l-0.47,1.068c-0.025,0.056-0.07,0.093-0.121,0.118c-0.006,0.003-0.007,0.011-0.013,0.013l-2.019,0.829  c-0.031,0.013-0.063,0.019-0.095,0.019c-0.061,0-0.115-0.029-0.161-0.069c-0.006-0.005-0.016-0.003-0.021-0.009l-0.351-0.372  l-0.027-0.008c-0.008-0.002-0.011-0.012-0.019-0.016c-0.014-0.005-0.029-0.004-0.042-0.012c-0.016-0.01-0.017-0.03-0.03-0.042  l-0.325,0.726c-0.009,0.02-0.027,0.03-0.04,0.046c-0.007,0.009-0.004,0.021-0.012,0.029l-0.815,0.812l1.53-0.778  c0.014-0.007,0.028,0.001,0.042-0.003c0.032-0.01,0.06-0.01,0.093-0.007c0.033,0.003,0.059,0.008,0.087,0.023  c0.014,0.007,0.029,0.001,0.042,0.011c0.017,0.013,0.017,0.034,0.029,0.05c0.012,0.015,0.033,0.018,0.042,0.036  c0.007,0.014-0.001,0.028,0.003,0.042c0.01,0.032,0.01,0.059,0.007,0.092s-0.008,0.06-0.023,0.089  c-0.007,0.013-0.001,0.029-0.011,0.041l-1.674,2.215l-0.369,1.583c-0.013,0.058-0.046,0.106-0.089,0.14c0,0,0,0,0,0l-0.975,0.76  c-0.012,0.009-0.027,0.007-0.04,0.014c-0.01,0.005-0.012,0.018-0.023,0.022l-1.01,0.396l-1.012,0.501  c-0.035,0.018-0.072,0.025-0.109,0.025c0,0-0.001,0-0.001,0h0c-0.016,0-0.031-0.001-0.047-0.004l-0.757-0.146  c-0.002,0-0.003-0.003-0.005-0.003c-0.006-0.001-0.013-0.001-0.019-0.003l-0.221-0.065l-0.054,0.056  c0.008,0.009,0.021,0.009,0.028,0.02c0.005,0.008,0,0.019,0.005,0.028c0.015,0.029,0.013,0.058,0.016,0.091  c0.002,0.033,0.007,0.062-0.004,0.093c-0.003,0.009,0.003,0.019-0.001,0.027l-0.236,0.506c-0.002,0.005-0.008,0.007-0.01,0.012  c-0.002,0.003,0,0.007-0.001,0.01L13.9,27.669c0.004,0.001,0.008,0.005,0.012,0.006c0.017,0.004,0.034-0.004,0.05,0.004  c0.016,0.008,0.018,0.027,0.031,0.038c0.013,0.01,0.031,0.009,0.042,0.022c0.012,0.014,0.007,0.033,0.016,0.048  c0.016,0.03,0.025,0.055,0.028,0.088s0.001,0.059-0.008,0.091c-0.005,0.017,0.004,0.035-0.005,0.051l-0.227,0.43  c-0.013,0.023-0.034,0.037-0.052,0.055c-0.007,0.007-0.005,0.018-0.013,0.024l-1.118,0.891c-0.004,0.003-0.011,0.002-0.015,0.005  c-0.042,0.029-0.089,0.049-0.141,0.049c-0.042,0-0.083-0.01-0.122-0.032c-0.018-0.01-0.021-0.031-0.035-0.043  c-0.012-0.01-0.029-0.007-0.039-0.019c-0.011-0.014-0.006-0.032-0.014-0.048c-0.016-0.03-0.023-0.055-0.026-0.088  c0-0.006-0.004-0.011-0.005-0.017l-0.704,1.017c-0.006,0.009-0.019,0.006-0.026,0.014c-0.009,0.011-0.007,0.026-0.018,0.035  l-0.567,0.479l-0.006,0.008c-2.41,4.724-3.983,9.878-4.568,15.225l0.049,0.014c0.012,0.003,0.016,0.016,0.026,0.021  c0.03,0.012,0.047,0.033,0.07,0.056c0.023,0.024,0.045,0.043,0.057,0.074c0.004,0.01,0.016,0.014,0.019,0.024l0.36,1.342  c0,0.003-0.001,0.005-0.001,0.008c0,0.002,0.004,0.003,0.004,0.006l0.149,0.73c0.011-0.002,0.021,0.004,0.032,0.003  c0.034-0.002,0.061-0.002,0.093,0.008c0.032,0.011,0.054,0.026,0.079,0.049c0.015,0.013,0.036,0.013,0.048,0.029  c0.009,0.012,0.003,0.028,0.01,0.041c0.007,0.013,0.023,0.018,0.027,0.033l0.204,0.662l0.398,0.424  c0.016,0.017,0.012,0.04,0.022,0.06c0.011,0.019,0.033,0.029,0.038,0.052l0.208,0.845l0.343,0.49  c0.009,0.012,0.003,0.027,0.009,0.041s0.022,0.019,0.026,0.033l0.368,1.277l1.108,0.76c0.007,0.005,0.007,0.015,0.013,0.02  c0.006,0.006,0.016,0.004,0.022,0.01l0.438,0.438l0.688,0.008c0.005,0,0.008,0.006,0.013,0.006c0.033,0.002,0.057,0.021,0.087,0.037  c0.029,0.015,0.06,0.021,0.082,0.047c0.003,0.004,0.01,0.003,0.013,0.008l0.986,1.277l0.873,0.039c0.015,0,0.023,0.014,0.037,0.017  c0.032,0.007,0.055,0.021,0.083,0.039s0.049,0.035,0.067,0.063c0.008,0.012,0.024,0.015,0.03,0.028l0.523,1.174  c0.001,0.003-0.001,0.007,0,0.009c0.012,0.029,0.002,0.06,0.002,0.091c0,0.034,0.009,0.067-0.004,0.099  c-0.001,0.003,0.001,0.006,0,0.009l-0.544,1.171l-0.002,0.005c-0.025,0.056-0.071,0.091-0.122,0.114  c-0.006,0.003-0.007,0.011-0.014,0.014l-0.81,0.316l-0.222,0.57l-0.093,0.568l0.848,2.381c0.004,0.013-0.004,0.024-0.002,0.037  c0.003,0.014,0.016,0.022,0.017,0.037l0.094,2.388c0.001,0.036-0.022,0.062-0.035,0.094c-0.011,0.028-0.011,0.062-0.031,0.083  c-0.023,0.026-0.062,0.031-0.094,0.046c-0.026,0.011-0.045,0.034-0.076,0.036l-0.004,0.001h0c-0.001,0-0.002,0-0.003,0l-0.62,0.037  l-0.576,0.897l0.376,1.001c0.006,0.015-0.004,0.03-0.001,0.046c0.003,0.016,0.018,0.025,0.018,0.041l0.003,1.666  c0,0.011-0.011,0.018-0.012,0.029c-0.001,0.01,0.007,0.02,0.005,0.029l-0.319,1.306l0.178,0.549  c0.008,0.024-0.006,0.047-0.006,0.071c0.001,0.033,0.005,0.062-0.007,0.093c-0.012,0.03-0.034,0.05-0.057,0.073  c-0.017,0.018-0.021,0.044-0.043,0.057l-0.184,0.105l0.491,0.634c0.015,0.021,0.01,0.045,0.018,0.067  c0.008,0.019,0.029,0.029,0.032,0.051l0.089,0.613c0.001,0.01-0.007,0.016-0.007,0.025c0,0.01,0.009,0.016,0.009,0.025l-0.023,0.359  l0.483,0.779c0.011,0.018,0.003,0.037,0.009,0.056c0.011,0.032,0.017,0.058,0.015,0.091c-0.002,0.033-0.011,0.059-0.026,0.088  c-0.008,0.018-0.003,0.039-0.016,0.055c-0.002,0.003-0.007,0.002-0.01,0.005l1.768,2.804c0.002,0.004,0,0.008,0.002,0.012  c0.002,0.004,0.007,0.004,0.009,0.008l0.761,1.496l0.145,0.228c0.451,0.573,0.918,1.132,1.396,1.681l0.643,0.427  c0.005,0.003,0.005,0.011,0.01,0.015c0.016,0.012,0.019,0.032,0.032,0.047c0.028,0.035,0.056,0.068,0.062,0.111  c0.001,0.006,0.006,0.008,0.007,0.013c0.002,0.03-0.018,0.053-0.025,0.081c-0.006,0.026,0,0.055-0.016,0.08  c-0.003,0.005-0.009,0.006-0.013,0.012c-0.001,0.001,0,0.004-0.002,0.005c2.852,3.12,6.14,5.814,9.742,8.007l3.002,0.619  l4.524,0.543c0.002,0,0.003,0.003,0.005,0.003c0.002,0.001,0.004-0.002,0.007-0.001l5.869,1.004l5.48,0.336  c0.009,0,0.014,0.009,0.022,0.01c0.009,0.002,0.017-0.006,0.025-0.003l5.38,1.386l5.056-0.846c0.011-0.002,0.019,0.007,0.029,0.006  c0.01,0,0.017-0.01,0.027-0.01l4.197,0.262l4.389-0.715c0.003-0.001,0.006,0.002,0.009,0.002c0.003-0.001,0.005-0.004,0.009-0.005  l1.453-0.136l3.43-1.406h0.002l0.002-0.002l2.71-1.064c6.608-4.021,12.058-9.74,15.812-16.736c0.518-0.967,0.985-1.951,1.428-2.942  l-0.471,0.249c-0.037,0.02-0.078,0.028-0.117,0.028s-0.078-0.009-0.115-0.028c-0.002-0.001-0.002-0.004-0.004-0.004  c-0.041-0.023-0.078-0.056-0.102-0.102c-0.004-0.007,0-0.016-0.003-0.023c-0.013-0.029-0.009-0.059-0.009-0.092  s-0.004-0.062,0.009-0.094c0.003-0.007-0.002-0.016,0.002-0.022l0.399-0.767l0.47-2.842l0.038-1.752  c0-0.018,0.017-0.029,0.021-0.046c0.004-0.02-0.006-0.039,0.004-0.058l0.7-1.438c0.007-0.013,0.021-0.015,0.03-0.025  c0.008-0.013,0.004-0.028,0.015-0.039l1.685-1.74l0.758-2.422c0.105-0.695,0.195-1.393,0.268-2.093L92.17,55.02  C92.164,55.02,92.16,55.012,92.154,55.011z M30.188,18.155l-5.232,2.857c-0.038,0.021-0.079,0.031-0.12,0.031c0,0,0,0-0.001,0  c0,0,0,0,0,0c-0.058,0-0.109-0.026-0.154-0.064c-0.013-0.01-0.021-0.02-0.031-0.032c-0.01-0.012-0.025-0.019-0.033-0.034  c-0.011-0.02-0.001-0.041-0.007-0.062s-0.024-0.036-0.024-0.058l0.002-1.405c0-0.002,0.002-0.004,0.002-0.006  c0.001-0.032,0.023-0.058,0.037-0.087s0.017-0.063,0.041-0.085c0.002-0.002,0.001-0.005,0.003-0.006l2.956-2.667  c0.006-0.005,0.015-0.003,0.021-0.007c0.006-0.005,0.006-0.014,0.013-0.019l3.603-2.281l-0.918-0.495  c-0.024-0.013-0.03-0.04-0.048-0.059c-0.023-0.024-0.047-0.042-0.059-0.072c-0.012-0.03-0.007-0.06-0.007-0.093  c0-0.026-0.014-0.049-0.005-0.075l0.489-1.47c0.001-0.002,0.003-0.002,0.004-0.005c0.01-0.028,0.038-0.043,0.057-0.066  c0.023-0.027,0.039-0.06,0.071-0.075c0.002,0,0.002-0.003,0.004-0.004l3.768-1.672c0.017-0.008,0.034,0.002,0.051-0.001  c0.019-0.004,0.031-0.02,0.05-0.02c0.003,0,0.007,0,0.011,0l2.871,0.126c0,0,0,0,0,0l2.513,0.044c0.031,0,0.051,0.023,0.078,0.034  c0.029,0.011,0.062,0.009,0.086,0.031l0.548,0.499c0.001,0.001,0,0.002,0.001,0.003c0,0,0.001,0,0.001,0  c0.019,0.018,0.018,0.045,0.03,0.066c0.02,0.035,0.046,0.067,0.048,0.106c0.001,0.026-0.019,0.047-0.026,0.073  c-0.01,0.036-0.011,0.075-0.038,0.105c0,0.001-0.002,0-0.003,0.001c0,0.001,0,0.001,0,0.002l-1.776,1.881l-0.593,1.094  c-0.001,0.002-0.004,0.003-0.005,0.005c-0.004,0.007-0.011,0.009-0.015,0.016c-0.031,0.044-0.072,0.072-0.121,0.089  c-0.008,0.003-0.011,0.012-0.019,0.014l-1.976,0.487l-0.996,1.39c-0.011,0.015-0.031,0.011-0.044,0.023  c-0.027,0.025-0.047,0.059-0.085,0.07l-2.709,0.835L30.188,18.155z M65.656,62.691c-0.002,0.008-0.009,0.012-0.011,0.02  c-0.002,0.006,0.003,0.012,0.001,0.018l-0.89,2.602c-0.004,0.012-0.015,0.017-0.021,0.027c-0.009,0.019-0.021,0.029-0.034,0.045  c-0.027,0.033-0.058,0.055-0.097,0.07c-0.012,0.004-0.017,0.018-0.029,0.02l-1.543,0.357c-0.02,0.004-0.038,0.006-0.057,0.006  c-0.049,0-0.096-0.02-0.137-0.047c-0.013-0.009-0.021-0.019-0.032-0.029c-0.013-0.012-0.028-0.02-0.038-0.034l-0.662-0.981  c-0.003-0.004,0-0.01-0.003-0.015c-0.017-0.028-0.015-0.06-0.02-0.093c-0.004-0.033-0.016-0.062-0.007-0.093  c0.001-0.005-0.004-0.011-0.002-0.016l0.366-1.147l-0.147-1.938c-0.001-0.005,0.004-0.009,0.004-0.014  c0-0.032,0.018-0.059,0.029-0.088c0.012-0.031,0.017-0.062,0.039-0.086c0.004-0.004,0.002-0.011,0.006-0.014l0.715-0.666l1.79-2.186  c0.001-0.001,0.003-0.001,0.004-0.002c0.021-0.025,0.056-0.031,0.086-0.047c0.028-0.014,0.052-0.037,0.083-0.04  c0.002-0.001,0.002-0.003,0.004-0.003l0.27-0.018c0.016,0,0.027,0.014,0.043,0.016c0.034,0.004,0.061,0.014,0.09,0.031  c0.026,0.016,0.045,0.029,0.064,0.053c0.012,0.014,0.031,0.018,0.039,0.033l0.606,1.143c0.014,0.025,0.003,0.053,0.008,0.08  c0.005,0.028,0.022,0.053,0.018,0.082L65.656,62.691z"/><polygon fill="#000000" points="92.715,54.589 92.404,54.232 91.422,54.104 92.278,54.53 "/><path fill="#000000" d="M59.637,42.154c-0.007-0.01-0.018-0.015-0.023-0.026l-1.125-2.393l-1.042-1.396l-0.212,0.123l0.271,0.71  l1.265,1.746c0.016,0.02,0.009,0.045,0.017,0.067c0.008,0.021,0.028,0.036,0.03,0.06l0.125,1.598l1.033,1.691l1.579,1.312  c0.017,0.014,0.017,0.037,0.028,0.053c0.013,0.017,0.034,0.023,0.043,0.043l-0.24-1.34l-1.742-2.227  C59.638,42.168,59.641,42.16,59.637,42.154z"/><path fill="#000000" d="M93.971,50.161c0-0.014-0.01-0.025-0.007-0.04c0.003-0.01,0.014-0.015,0.017-0.024  c-0.062-4.039-0.677-8.092-1.875-12.065c-0.248-0.819-0.526-1.623-0.819-2.42l0.023,0.099c0.002,0.008-0.005,0.015-0.004,0.023  c0.001,0.01,0.011,0.016,0.011,0.026l0.042,1.261c0.001,0.011-0.01,0.018-0.011,0.028c0,0.011,0.008,0.019,0.006,0.03l-0.338,1.67  c-0.007,0.035-0.032,0.058-0.052,0.085c-0.009,0.014-0.007,0.032-0.019,0.044l-0.598,0.581l0.375,1.69  c0,0.002-0.002,0.004-0.002,0.006c0.001,0.002,0.004,0.003,0.004,0.006c0.006,0.032-0.014,0.059-0.02,0.088  c-0.008,0.032-0.004,0.065-0.021,0.092s-0.051,0.036-0.078,0.054c-0.025,0.017-0.041,0.045-0.073,0.052  c-0.003,0.001-0.007,0-0.01,0.001c-0.001,0-0.001,0.001-0.003,0.001l-0.277,0.047c-0.007,0.001-0.014,0.001-0.021,0.001l0.572,0.849  c0.007,0.01,0.001,0.022,0.007,0.033s0.018,0.014,0.021,0.025l0.678,1.954c0.007,0.02-0.006,0.038-0.004,0.058  c0.003,0.021,0.019,0.036,0.016,0.057l-0.082,0.611c-0.002,0.013-0.014,0.02-0.018,0.032c-0.002,0.011,0.005,0.021,0,0.032  l-0.549,1.301c-0.002,0.005-0.008,0.007-0.011,0.013c-0.007,0.013-0.017,0.02-0.026,0.031c-0.027,0.038-0.061,0.065-0.104,0.083  c-0.008,0.004-0.012,0.014-0.021,0.017c-0.022,0.007-0.046,0.01-0.068,0.01c-0.033,0-0.065-0.006-0.098-0.02  c-0.008-0.004-0.01-0.014-0.018-0.019c-0.038-0.021-0.063-0.05-0.087-0.087c-0.01-0.016-0.023-0.026-0.029-0.043  c-0.002-0.005-0.007-0.007-0.009-0.012l-0.32-1.12l-0.237-0.372l0.048,0.34v0l0.229,1.557l0.465,0.943  c0.008,0.014-0.001,0.028,0.004,0.042c0.004,0.014,0.019,0.021,0.021,0.037l0.312,2.441c0.002,0.017-0.012,0.028-0.013,0.044  c-0.001,0.033-0.01,0.059-0.024,0.089c-0.014,0.03-0.028,0.052-0.053,0.075c-0.012,0.011-0.014,0.028-0.027,0.037  c-0.023,0.015-0.049,0.016-0.074,0.021c-0.004,0.001-0.006,0.004-0.01,0.005l0.66,1.226c0.014,0.024,0.004,0.051,0.008,0.077  c0.005,0.025,0.023,0.045,0.02,0.071l-0.18,1.511c-0.003,0.024-0.023,0.039-0.032,0.061c-0.008,0.02-0.005,0.041-0.018,0.058  l1.396,0.184c0.033,0.005,0.053,0.03,0.079,0.046c0.026,0.014,0.057,0.015,0.077,0.038l0.456,0.524l0.575-0.091  c0.006-0.001,0.011,0.005,0.018,0.005c0.006-0.002,0.01-0.008,0.016-0.008c0.002,0,0.004,0,0.006,0c0.02,0,0.033,0.018,0.053,0.021  c0.098-1.206,0.154-2.416,0.15-3.628l-0.036-0.458C93.957,50.184,93.969,50.174,93.971,50.161z M93.483,49.554l-0.31,2.325  c-0.002,0.014-0.014,0.02-0.018,0.033c-0.007,0.026-0.021,0.045-0.037,0.068c-0.02,0.029-0.04,0.052-0.071,0.07  c-0.012,0.007-0.015,0.021-0.028,0.027l-1.174,0.474c-0.016,0.007-0.033,0.007-0.049,0.009c-0.004,0.002-0.006,0.006-0.011,0.007  c-0.012,0.001-0.022,0.003-0.034,0.003l0,0l0,0c-0.001,0-0.002-0.001-0.002-0.001c-0.055-0.001-0.105-0.022-0.148-0.056  c-0.014-0.011-0.021-0.025-0.031-0.039c-0.018-0.021-0.04-0.035-0.051-0.061c-0.004-0.011,0.004-0.021,0.001-0.031  s-0.015-0.018-0.017-0.029l-0.359-2.599c0-0.004,0.004-0.008,0.004-0.012c-0.004-0.033,0.014-0.061,0.023-0.093  c0.011-0.031,0.012-0.062,0.032-0.086c0.003-0.003,0.001-0.009,0.005-0.012l0.775-0.843l0.646-2.382  c0.006-0.018,0.023-0.024,0.031-0.04c0.016-0.03,0.031-0.052,0.058-0.074c0.024-0.021,0.047-0.033,0.077-0.043  c0.018-0.006,0.027-0.023,0.047-0.026c0.017-0.001,0.029,0.012,0.047,0.014c0.016,0.001,0.03-0.011,0.047-0.006  c0.02,0.005,0.027,0.024,0.044,0.033c0.026,0.014,0.046,0.029,0.065,0.051c0.024,0.026,0.039,0.051,0.049,0.084  c0.006,0.017,0.023,0.025,0.025,0.043l0.363,3.129c0.001,0.011-0.009,0.02-0.01,0.031C93.475,49.534,93.484,49.542,93.483,49.554z"/><polygon fill="#000000" points="90.109,47.955 89.91,47.552 90.23,49.151 90.27,49.214 "/><polygon fill="#000000" points="48.013,32.173 48.014,32.177 48.013,32.172 "/><polygon fill="#000000" points="48.062,32.425 48.024,32.229 47.992,32.482 "/><path fill="#000000" d="M89.994,32.479c-0.008,0.001-0.016,0.005-0.024,0.006l0.037,0.021  C90.002,32.497,89.998,32.488,89.994,32.479z"/><text x="0" y="115" fill="#000000" font-size="5px" font-weight="bold" font-family="'Helvetica Neue', Helvetica, Arial-Unicode, Arial, Sans-serif">Created by Lluisa Iborra</text><text x="0" y="120" fill="#000000" font-size="5px" font-weight="bold" font-family="'Helvetica Neue', Helvetica, Arial-Unicode, Arial, Sans-serif">from the Noun Project</text></svg>