<svg xmlns="http://www.w3.org/2000/svg" xmlns:xlink="http://www.w3.org/1999/xlink" version="1.1" x="0px" y="0px" viewBox="0 0 100 125" enable-background="new 0 0 100 100" xml:space="preserve"><path fill="#000000" d="M27.616,19.912c0.008,0.015,0.022,0.021,0.033,0.034c0.01,0.013,0.019,0.022,0.031,0.032  c0.044,0.038,0.096,0.064,0.154,0.064c0,0,0,0,0.001,0s0,0,0,0c0.041,0,0.082-0.01,0.12-0.031l5.232-2.857l2.314-1.039l2.709-0.835  c0.038-0.012,0.058-0.045,0.085-0.07c0.013-0.012,0.034-0.008,0.044-0.023l0.996-1.39l1.976-0.487  c0.008-0.002,0.011-0.011,0.019-0.014c0.048-0.017,0.09-0.045,0.121-0.089c0.004-0.006,0.011-0.009,0.015-0.016  c0.001-0.002,0.004-0.003,0.005-0.005l0.593-1.094l1.776-1.881c0,0,0-0.001,0-0.002c0.001,0,0.002,0,0.003-0.001  c0.027-0.03,0.028-0.069,0.038-0.105c0.007-0.025,0.027-0.046,0.026-0.073C43.907,9.992,43.88,9.96,43.86,9.925  c-0.012-0.021-0.011-0.048-0.03-0.066c0,0-0.001,0-0.001,0c-0.001-0.001,0-0.002-0.001-0.003L43.28,9.356  c-0.024-0.022-0.057-0.02-0.086-0.031c-0.027-0.011-0.047-0.034-0.078-0.034l-2.513-0.044c0,0,0,0,0,0l-2.871-0.126  c-0.004,0-0.008,0-0.011,0c-0.02,0-0.032,0.016-0.05,0.02c-0.017,0.004-0.034-0.006-0.051,0.001l-3.768,1.672  c-0.002,0.001-0.002,0.003-0.004,0.004c-0.032,0.015-0.047,0.048-0.071,0.075c-0.019,0.023-0.047,0.038-0.057,0.066  c0,0.002-0.003,0.003-0.004,0.005l-0.489,1.47c-0.009,0.026,0.005,0.049,0.005,0.075c0,0.034-0.005,0.063,0.007,0.093  c0.012,0.031,0.036,0.048,0.059,0.072c0.018,0.019,0.024,0.046,0.048,0.059l0.918,0.495l-3.603,2.281  c-0.007,0.004-0.007,0.014-0.013,0.019c-0.006,0.004-0.015,0.002-0.021,0.007l-2.956,2.667c-0.002,0.001-0.001,0.004-0.003,0.006  c-0.023,0.022-0.027,0.056-0.041,0.085s-0.036,0.055-0.037,0.087c0,0.002-0.002,0.003-0.002,0.006l-0.002,1.405  c0,0.022,0.019,0.037,0.024,0.058S27.605,19.893,27.616,19.912z"/><path fill="#000000" d="M96.121,45.363c-0.002-0.018-0.02-0.027-0.025-0.043c-0.01-0.034-0.024-0.058-0.049-0.084  c-0.02-0.022-0.039-0.037-0.065-0.051c-0.017-0.009-0.024-0.028-0.044-0.033c-0.017-0.004-0.031,0.007-0.047,0.006  c-0.018-0.001-0.03-0.015-0.047-0.014c-0.02,0.002-0.029,0.02-0.047,0.026c-0.03,0.01-0.053,0.022-0.077,0.043  c-0.026,0.022-0.042,0.044-0.058,0.074c-0.008,0.016-0.025,0.022-0.031,0.04l-0.646,2.382l-0.775,0.843  c-0.004,0.003-0.002,0.009-0.005,0.012c-0.021,0.024-0.021,0.056-0.032,0.086c-0.01,0.032-0.027,0.06-0.023,0.093  c0,0.004-0.004,0.008-0.004,0.012l0.359,2.599c0.002,0.012,0.014,0.019,0.017,0.029s-0.005,0.021-0.001,0.031  c0.011,0.025,0.033,0.04,0.051,0.061c0.011,0.014,0.018,0.028,0.031,0.039c0.043,0.033,0.094,0.055,0.148,0.056  c0,0,0.001,0.001,0.002,0.001l0,0l0,0l0,0c0.012,0,0.022-0.002,0.034-0.003c0.005-0.001,0.007-0.005,0.011-0.007  c0.016-0.002,0.033-0.002,0.049-0.009l1.174-0.474c0.014-0.006,0.017-0.021,0.028-0.027c0.031-0.019,0.052-0.041,0.071-0.071  c0.017-0.023,0.03-0.042,0.037-0.068c0.004-0.013,0.016-0.02,0.018-0.033l0.31-2.325c0.001-0.011-0.009-0.02-0.009-0.031  c0.001-0.011,0.011-0.02,0.01-0.031L96.121,45.363z"/><path fill="#000000" d="M65.085,63.656c0.005,0.033,0.003,0.064,0.02,0.093c0.003,0.005,0,0.011,0.003,0.015l0.662,0.981  c0.01,0.015,0.025,0.022,0.038,0.034c0.011,0.011,0.02,0.021,0.032,0.029c0.041,0.027,0.088,0.047,0.137,0.047  c0.019,0,0.037-0.002,0.057-0.006l1.543-0.357c0.013-0.002,0.018-0.016,0.029-0.02c0.039-0.016,0.069-0.037,0.097-0.07  c0.014-0.016,0.025-0.026,0.034-0.045c0.006-0.011,0.017-0.016,0.021-0.027l0.89-2.602c0.002-0.006-0.003-0.012-0.001-0.018  c0.002-0.008,0.009-0.012,0.011-0.02l0.536-2.953c0.005-0.029-0.013-0.054-0.018-0.082c-0.005-0.027,0.006-0.055-0.008-0.08  l-0.606-1.143c-0.008-0.016-0.027-0.02-0.039-0.033c-0.02-0.023-0.038-0.037-0.064-0.053c-0.029-0.018-0.056-0.027-0.09-0.031  c-0.016-0.002-0.027-0.016-0.043-0.016l-0.27,0.018c-0.002,0-0.002,0.002-0.004,0.003c-0.031,0.003-0.055,0.026-0.083,0.04  c-0.03,0.016-0.064,0.021-0.086,0.047c-0.001,0.001-0.003,0.001-0.004,0.002l-1.79,2.186l-0.715,0.666  c-0.004,0.003-0.002,0.01-0.006,0.014c-0.022,0.023-0.027,0.055-0.039,0.086c-0.012,0.029-0.029,0.056-0.029,0.088  c0,0.005-0.005,0.009-0.004,0.014l0.147,1.938l-0.366,1.147c-0.002,0.005,0.003,0.011,0.002,0.016  C65.069,63.595,65.081,63.623,65.085,63.656z"/><path fill="#000000" d="M97.894,43.04c-0.001-0.019-0.007-0.036-0.012-0.054c-0.001-0.004,0.003-0.007,0.001-0.011l-0.264-0.905  c-0.316-1.815-0.729-3.623-1.27-5.414c-0.459-1.518-1.002-2.995-1.61-4.435l-0.121-0.415c-0.003-0.012-0.017-0.016-0.021-0.026  c-0.006-0.011,0-0.023-0.006-0.034l-0.165-0.271c-1.525-3.438-3.47-6.634-5.751-9.539l-0.107-0.176  c-0.006-0.01-0.02-0.011-0.027-0.02s-0.006-0.023-0.014-0.031l-0.148-0.14c-8.436-10.512-21.383-17.09-35.316-17.09  c-4.415,0-8.818,0.653-13.085,1.941C16.102,13.624,2.54,38.911,9.745,62.789c5.716,18.943,23.516,32.174,43.285,32.174  c0.001,0,0,0,0.001,0c4.413,0,8.814-0.653,13.08-1.94c11.566-3.49,21.082-11.276,26.793-21.924c0.726-1.352,1.377-2.729,1.957-4.128  l0.469-0.842c0.005-0.01,0-0.02,0.004-0.029c0.005-0.012,0.018-0.02,0.021-0.032l0.255-1.026c1.062-2.932,1.807-5.943,2.24-8.996  l0.11-0.444c0.001-0.001-0.001-0.003-0.001-0.005c0.001-0.002,0.002-0.002,0.003-0.004l0.175-0.832  c0.007-0.029-0.011-0.053-0.015-0.081c0-0.002,0.002-0.003,0.002-0.005l-0.018-0.846c0.017-0.184,0.027-0.369,0.042-0.554  c0-0.003,0.004-0.005,0.004-0.009l-0.001-0.03c0.238-3.066,0.16-6.158-0.239-9.238L97.894,43.04z M24.657,16.384l-0.177-0.023  c0.393-0.337,0.792-0.667,1.198-0.991L24.657,16.384z M23.407,17.299c0.004,0.028,0.021,0.05,0.033,0.074  c0.011,0.022,0.008,0.049,0.027,0.068c0.001,0.001,0.003,0,0.004,0.002c0.045,0.045,0.105,0.073,0.174,0.074l-0.319,0.504  c-0.009-0.01-0.025-0.011-0.037-0.02c-0.016-0.013-0.021-0.034-0.04-0.042c-0.014-0.006-0.027,0.002-0.041-0.001  c-0.014-0.003-0.021-0.018-0.036-0.019l-0.39-0.04C22.992,17.7,23.194,17.495,23.407,17.299z M13.94,29.778l0.006-0.008l0.567-0.479  c0.011-0.009,0.009-0.024,0.018-0.035c0.007-0.008,0.02-0.005,0.026-0.014l0.704-1.017c0,0.006,0.004,0.011,0.005,0.017  c0.003,0.033,0.01,0.059,0.026,0.088c0.007,0.016,0.002,0.034,0.014,0.048c0.01,0.012,0.027,0.009,0.039,0.019  c0.014,0.013,0.017,0.034,0.035,0.043c0.039,0.021,0.08,0.032,0.122,0.032c0.051,0,0.098-0.02,0.141-0.049  c0.004-0.003,0.011-0.002,0.015-0.005l1.118-0.891c0.008-0.006,0.006-0.017,0.013-0.024c0.018-0.018,0.04-0.031,0.052-0.055  l0.227-0.43c0.009-0.017,0-0.034,0.005-0.051c0.009-0.032,0.012-0.058,0.008-0.091s-0.012-0.059-0.028-0.088  c-0.008-0.015-0.004-0.034-0.016-0.048c-0.011-0.013-0.029-0.012-0.042-0.022c-0.013-0.011-0.016-0.029-0.031-0.038  c-0.016-0.008-0.034,0-0.05-0.004c-0.004-0.001-0.008-0.005-0.012-0.006l0.465-0.785c0.002-0.003,0-0.007,0.001-0.01  c0.002-0.005,0.008-0.007,0.01-0.012l0.236-0.506c0.004-0.009-0.002-0.018,0.001-0.027c0.011-0.032,0.006-0.06,0.004-0.093  c-0.002-0.033-0.001-0.062-0.016-0.091c-0.004-0.009,0-0.02-0.005-0.028c-0.006-0.01-0.02-0.01-0.028-0.02l0.054-0.056l0.221,0.065  c0.006,0.002,0.013,0.001,0.019,0.003c0.002,0,0.003,0.002,0.005,0.003l0.757,0.146c0.016,0.003,0.031,0.004,0.047,0.004l0,0l0,0h0  c0,0,0,0,0.001,0c0.037,0,0.074-0.008,0.109-0.025l1.012-0.501l1.01-0.396c0.011-0.004,0.013-0.017,0.023-0.022  c0.013-0.007,0.028-0.004,0.04-0.014l0.975-0.76c0,0,0,0,0,0c0.043-0.034,0.076-0.083,0.089-0.14l0.369-1.583l1.674-2.215  c0.009-0.012,0.004-0.028,0.011-0.041c0.016-0.03,0.021-0.056,0.023-0.089s0.003-0.06-0.007-0.092  c-0.004-0.014,0.003-0.028-0.003-0.042c-0.009-0.018-0.03-0.021-0.042-0.036c-0.013-0.016-0.013-0.037-0.029-0.05  c-0.013-0.009-0.028-0.004-0.042-0.011c-0.029-0.015-0.055-0.02-0.087-0.023c-0.034-0.003-0.061-0.003-0.093,0.007  c-0.014,0.004-0.028-0.004-0.042,0.003l-1.53,0.778l0.815-0.812c0.008-0.008,0.005-0.021,0.012-0.029  c0.013-0.016,0.031-0.026,0.04-0.046l0.325-0.726c0.013,0.013,0.014,0.032,0.03,0.042c0.013,0.008,0.028,0.007,0.042,0.012  c0.008,0.003,0.011,0.013,0.019,0.016l0.027,0.008l0.351,0.372c0.005,0.006,0.015,0.004,0.021,0.009  c0.045,0.041,0.1,0.069,0.161,0.069c0.032,0,0.064-0.006,0.095-0.019l2.019-0.829c0.006-0.002,0.007-0.01,0.013-0.013  c0.051-0.025,0.096-0.062,0.121-0.118l0.47-1.068l-0.083,0.298c-0.008,0.028,0.008,0.053,0.01,0.08c0.001,0.029-0.011,0.057,0,0.084  c0.002,0.006,0.008,0.008,0.011,0.014c0.007,0.013,0.018,0.02,0.027,0.032c0.028,0.038,0.061,0.064,0.103,0.081  c0.009,0.003,0.012,0.014,0.022,0.017c0.022,0.006,0.045,0.009,0.067,0.009c0.033,0,0.065-0.006,0.097-0.02l1.623-0.686  c0.016-0.007,0.02-0.025,0.034-0.034c0.028-0.019,0.046-0.038,0.065-0.066c0.019-0.027,0.029-0.051,0.036-0.084  c0.003-0.016,0.019-0.026,0.019-0.043l0.011-0.842l2.14-1.35c0.019-0.012,0.021-0.035,0.035-0.05  c0.024-0.025,0.042-0.045,0.054-0.077c0.012-0.031,0.012-0.058,0.011-0.09c0-0.022,0.014-0.041,0.007-0.063l-0.2-0.706l0.478-1  c0.012-0.026,0.001-0.052,0.004-0.079c0.004-0.033,0.014-0.062,0.005-0.093s-0.032-0.052-0.052-0.078  c-0.016-0.021-0.02-0.049-0.043-0.065l-0.301-0.202l1.632-0.979c2.297-1.214,4.733-2.236,7.293-3.045l2.838-0.798  c3.424-0.838,6.919-1.269,10.424-1.269c8.638,0,16.883,2.607,23.852,7.144l-2.494-0.024c-0.002,0-0.002,0-0.003,0  c-0.024,0-0.04,0.019-0.062,0.026c-0.022,0.005-0.044-0.003-0.065,0.009l-2.367,1.406l-4.933,0.773  c-0.021,0.003-0.03,0.022-0.048,0.029c-0.03,0.012-0.053,0.024-0.076,0.047c-0.025,0.023-0.039,0.047-0.053,0.078  c-0.008,0.017-0.026,0.026-0.03,0.045l-0.147,0.762l-3.033,1.378l-1.398-0.116l-0.389-0.786l4.074-0.38  c0.007,0,0.011-0.008,0.018-0.009c0.05-0.008,0.094-0.032,0.131-0.069c0.009-0.008,0.018-0.013,0.023-0.021  c0.004-0.005,0.011-0.007,0.015-0.013c0.017-0.025,0.009-0.053,0.015-0.081c0.008-0.027,0.027-0.049,0.024-0.079  c-0.001-0.006-0.007-0.009-0.007-0.014c-0.005-0.028-0.023-0.047-0.037-0.072c-0.018-0.033-0.03-0.066-0.061-0.088  c-0.004-0.003-0.004-0.01-0.009-0.013l-0.738-0.478c-0.015-0.01-0.032-0.003-0.048-0.009c-0.016-0.007-0.023-0.023-0.041-0.027  l-4.088-0.783l-1.252-0.576c-0.016-0.007-0.032,0.002-0.049-0.002c-0.016-0.004-0.025-0.02-0.043-0.021l-2.59-0.138  c-0.013-0.001-0.021,0.011-0.034,0.012s-0.022-0.009-0.036-0.006l-3.77,0.881c-0.004,0.001-0.006,0.006-0.01,0.007  c-0.004,0.001-0.007-0.002-0.011-0.001l-1.224,0.402c-0.023,0.007-0.032,0.03-0.051,0.043c-0.02,0.013-0.045,0.012-0.061,0.03  L51.4,15.691l-2.733,2.159l-0.717,0.182c-0.01,0.002-0.013,0.013-0.022,0.017c-0.009,0.003-0.02-0.002-0.028,0.002l-2.047,1.024  c-0.018,0.009-0.021,0.029-0.035,0.041c-0.026,0.021-0.044,0.04-0.06,0.069s-0.023,0.055-0.026,0.088  c-0.002,0.018-0.017,0.032-0.015,0.051l0.188,1.837c0.001,0.012,0.013,0.019,0.016,0.031c0.007,0.028,0.021,0.048,0.037,0.072  c0.02,0.03,0.038,0.053,0.068,0.072c0.011,0.007,0.013,0.022,0.025,0.027l0.571,0.258c0.034,0.015,0.068,0.022,0.103,0.022  c0.005,0,0.01,0,0.015,0l0.795-0.048c0.011,0,0.017-0.011,0.027-0.013c0.036-0.006,0.073-0.011,0.105-0.034l0.677-0.494l0.464-0.017  l0.944,1.665c0.01,0.019,0.028,0.028,0.042,0.042c0.011,0.012,0.019,0.023,0.032,0.033c0.042,0.03,0.089,0.05,0.141,0.051  c0,0,0.001,0,0.001,0h0l0,0l0,0c0.015,0,0.029-0.001,0.044-0.004l1.669-0.302c0.016-0.003,0.022-0.019,0.037-0.024  c0.038-0.014,0.069-0.032,0.096-0.062c0.017-0.018,0.026-0.035,0.036-0.056c0.008-0.017,0.025-0.026,0.029-0.045l0.289-1.178  l0.918-0.198c0.012-0.002,0.017-0.016,0.028-0.02c0.04-0.014,0.071-0.036,0.099-0.068c0.014-0.015,0.025-0.026,0.034-0.044  c0.006-0.011,0.018-0.017,0.021-0.028l0.18-0.512c0.011-0.03-0.004-0.057-0.005-0.087c0-0.033,0.008-0.065-0.005-0.095  c-0.013-0.029-0.042-0.045-0.065-0.067c-0.021-0.021-0.033-0.05-0.062-0.063l-0.854-0.37l0.293-0.679l0.915-0.317  c0.003-0.001,0.004-0.005,0.007-0.006c0.006-0.002,0.012-0.001,0.017-0.004l1.083-0.505c0.003-0.001,0.004-0.005,0.006-0.007  c0.045-0.022,0.084-0.054,0.108-0.101l0.394-0.728l1.245-0.008l0.017,0.057l-2.031,0.981c-0.012,0.005-0.014,0.019-0.023,0.025  c-0.027,0.018-0.042,0.041-0.061,0.069c-0.02,0.028-0.035,0.05-0.041,0.083c-0.004,0.012-0.016,0.019-0.016,0.031l-0.113,1.686  c0,0.004,0.004,0.007,0.004,0.012s-0.004,0.007-0.004,0.011c0,0.033,0.023,0.055,0.036,0.083c0.012,0.028,0.015,0.058,0.034,0.08  c0.024,0.025,0.059,0.031,0.092,0.045c0.025,0.011,0.043,0.033,0.07,0.035c0.006,0,0.012,0,0.018,0c0.002,0,0.004,0,0.006,0  l0.817-0.021c-0.001,0.003-0.005,0.005-0.005,0.008l-0.198,1.043l-0.48-0.24c-0.028-0.014-0.058-0.003-0.088-0.006  c-0.032-0.003-0.063-0.016-0.095-0.006c-0.03,0.009-0.048,0.036-0.073,0.056c-0.024,0.019-0.056,0.027-0.072,0.055l-0.698,1.208  l-0.482,0.43l-0.57-0.189c-0.02-0.007-0.038,0.006-0.059,0.004c-0.02-0.002-0.035-0.017-0.055-0.014l-3.57,0.514l-0.476-0.279  l0.212-0.431c0.004-0.009-0.001-0.019,0.002-0.028c0.004-0.011,0.016-0.017,0.018-0.029l0.208-0.964  c0.005-0.025-0.011-0.046-0.013-0.071c-0.002-0.026,0.011-0.05,0-0.075c-0.003-0.008-0.013-0.01-0.018-0.018  c-0.015-0.029-0.039-0.044-0.064-0.065c-0.026-0.022-0.046-0.044-0.078-0.054c-0.008-0.002-0.011-0.011-0.019-0.013  c-0.024-0.005-0.045,0.011-0.069,0.013c-0.026,0.001-0.051-0.011-0.077,0l-1.171,0.473c-0.018,0.007-0.023,0.027-0.038,0.038  c-0.027,0.018-0.047,0.037-0.064,0.063c-0.018,0.027-0.028,0.05-0.034,0.081c-0.004,0.017-0.019,0.027-0.02,0.045l-0.029,1.426  l-1.76,0.29c-0.007,0.001-0.01,0.009-0.017,0.01c-0.032,0.008-0.053,0.03-0.08,0.05c-0.026,0.02-0.053,0.033-0.07,0.061  c-0.004,0.006-0.012,0.007-0.016,0.014l-0.326,0.65l-0.434,0.276c-0.001,0.001-0.001,0.003-0.002,0.004  c-0.002,0.001-0.004,0-0.005,0.001l-0.979,0.675l0.528-0.609c0.014-0.016,0.009-0.037,0.018-0.054  c0.013-0.025,0.036-0.043,0.04-0.072l0.058-0.384c0.005-0.033-0.015-0.059-0.022-0.089c-0.007-0.032-0.004-0.065-0.022-0.091  c-0.02-0.028-0.054-0.037-0.083-0.055c-0.025-0.016-0.042-0.042-0.072-0.048l-0.466-0.091l0.037-0.083  c0.009-0.02-0.002-0.041,0.001-0.061c0.006-0.033,0.01-0.061,0.002-0.093c-0.007-0.032-0.022-0.054-0.041-0.082  c-0.012-0.018-0.011-0.041-0.028-0.055l-1.25-1.071l0.439-0.771c0.012-0.021,0.002-0.043,0.008-0.064s0.024-0.036,0.024-0.06  c0-0.012-0.011-0.02-0.013-0.032c-0.004-0.033-0.019-0.056-0.036-0.085c-0.017-0.028-0.03-0.052-0.056-0.072  c-0.01-0.007-0.011-0.021-0.021-0.027c-0.021-0.012-0.043-0.002-0.064-0.008c-0.021-0.006-0.036-0.025-0.06-0.025c0,0,0,0,0,0  l-0.347,0l0.111-0.23c0.01-0.021,0-0.044,0.004-0.066c0.004-0.023,0.022-0.041,0.02-0.065c-0.001-0.011-0.012-0.017-0.015-0.028  c-0.007-0.034-0.025-0.056-0.045-0.084c-0.018-0.025-0.032-0.048-0.058-0.064c-0.01-0.007-0.012-0.02-0.022-0.025  c-0.022-0.011-0.046,0-0.069-0.004c-0.022-0.004-0.039-0.021-0.062-0.02l-1.05,0.097c-0.006,0-0.009,0.007-0.015,0.008  c-0.032,0.005-0.054,0.026-0.082,0.043c-0.029,0.018-0.059,0.028-0.078,0.055c-0.004,0.005-0.011,0.004-0.014,0.01l-0.774,1.227  c-0.008,0.013-0.002,0.029-0.007,0.043c-0.013,0.031-0.016,0.057-0.016,0.091c0,0.033,0.003,0.06,0.016,0.09  c0.006,0.014-0.001,0.03,0.008,0.043l0.136,0.212l-0.004-0.003c-0.003-0.002-0.007-0.001-0.01-0.003  c-0.027-0.024-0.061-0.025-0.094-0.035c-0.029-0.008-0.053-0.026-0.083-0.024c-0.003,0-0.005-0.003-0.008-0.002l-0.768,0.081  c-0.011,0.001-0.016,0.012-0.026,0.014c-0.032,0.007-0.054,0.025-0.081,0.044c-0.028,0.02-0.052,0.034-0.07,0.062  c-0.005,0.009-0.018,0.01-0.022,0.02l-0.166,0.344l-0.596-0.103c-0.001,0-0.002,0.001-0.003,0c-0.001,0-0.001-0.001-0.002-0.001  c-0.036-0.006-0.065,0.015-0.099,0.024c-0.028,0.008-0.059,0.003-0.083,0.02c-0.028,0.021-0.038,0.057-0.056,0.087  c-0.015,0.025-0.042,0.042-0.047,0.073c0,0.001,0.001,0.002,0,0.003c0,0.001-0.001,0.001-0.001,0.002l-0.2,1.337  c-0.004,0.028,0.014,0.049,0.019,0.076c0.004,0.028-0.005,0.057,0.009,0.083l0.161,0.29c0.008,0.014,0.022,0.021,0.033,0.033  s0.019,0.021,0.031,0.031c0.045,0.038,0.097,0.064,0.155,0.064l0.654,0c0.021,0,0.042-0.002,0.063-0.008l1.111-0.29  c0.009-0.002,0.012-0.013,0.021-0.016c0.044-0.017,0.08-0.044,0.11-0.083c0.007-0.01,0.017-0.015,0.023-0.026  c0.002-0.004,0.008-0.006,0.01-0.011l0.61-1.3c0.009-0.02-0.001-0.04,0.002-0.061c0.004-0.017,0.019-0.031,0.018-0.049h0.366  l-0.249,0.845l-0.428,0.234c-0.016,0.009-0.019,0.028-0.032,0.04c-0.013,0.011-0.032,0.01-0.043,0.024  c-0.011,0.014-0.006,0.032-0.014,0.047c-0.016,0.03-0.023,0.056-0.025,0.089c-0.003,0.033,0,0.06,0.01,0.091  c0.005,0.017-0.003,0.034,0.005,0.049c0.012,0.022,0.033,0.035,0.051,0.052c0.006,0.006,0.005,0.017,0.013,0.023l0.28,0.223  l-0.616,0.474c-0.013,0.01-0.012,0.028-0.023,0.04c-0.022,0.025-0.035,0.048-0.046,0.08s-0.017,0.058-0.015,0.091  c0,0.016-0.011,0.029-0.007,0.045c0.005,0.021,0.023,0.034,0.034,0.052c0.007,0.014,0.001,0.03,0.011,0.042  c0.006,0.007,0.017,0.005,0.023,0.011c0.047,0.05,0.105,0.086,0.175,0.086c0.019,0,0.038-0.002,0.058-0.007l1.11-0.263l1.964-0.148  c0.017-0.001,0.027-0.017,0.042-0.021l-0.461,0.318l-0.987-0.136c-0.014-0.001-0.025,0.01-0.039,0.011  c-0.015,0-0.027-0.012-0.042-0.009c-0.022,0.004-0.033,0.025-0.053,0.035c-0.026,0.013-0.046,0.024-0.067,0.044  c-0.026,0.026-0.04,0.051-0.052,0.085c-0.007,0.018-0.025,0.027-0.028,0.047c-0.002,0.015,0.01,0.025,0.01,0.04  s-0.011,0.026-0.008,0.041l0.04,0.207l-0.055,0l-0.898-0.098c0,0-0.001,0-0.002,0c-0.001,0-0.001-0.001-0.002-0.001  c-0.022-0.001-0.038,0.015-0.059,0.019c-0.109,0.018-0.201,0.089-0.213,0.203c0,0.001,0,0.001,0,0.002s-0.001,0.001-0.001,0.002  l-0.05,0.532c-0.002,0.029,0.017,0.051,0.024,0.078c0.008,0.032,0.008,0.064,0.028,0.09c0.019,0.026,0.048,0.035,0.076,0.053  c0.024,0.015,0.039,0.041,0.068,0.047l0.778,0.166l0.311,0.478l-0.047,1.18l-3.127,0c-0.029,0-0.049,0.022-0.075,0.031  c-0.031,0.011-0.061,0.014-0.085,0.035c-0.026,0.023-0.035,0.056-0.05,0.088c-0.012,0.023-0.035,0.039-0.038,0.066l-0.176,1.441  l-0.433,1.004c0,0.002,0,0.003,0,0.005c-0.001,0.001-0.003,0.002-0.004,0.004c-0.012,0.032,0.001,0.062,0.002,0.094  s-0.01,0.063,0.002,0.092c0.013,0.03,0.043,0.045,0.067,0.069c0.021,0.021,0.033,0.052,0.062,0.064c0.002,0.001,0.004,0,0.007,0.001  c0.001,0,0.001,0.002,0.002,0.002l0.155,0.06l-0.026,0.437c-0.002,0.029,0.019,0.05,0.027,0.077c0.009,0.032,0.01,0.063,0.031,0.089  c0.02,0.025,0.05,0.034,0.079,0.05c0.024,0.014,0.04,0.039,0.069,0.044l0.902,0.161l0.473,0.483  c0.004,0.004,0.011,0.002,0.015,0.006c0.045,0.041,0.101,0.069,0.164,0.069c0.021,0,0.042-0.002,0.063-0.008l1.413-0.367  c0.004-0.001,0.005-0.006,0.01-0.007c0.009-0.003,0.019-0.002,0.027-0.006l0.905-0.396c0.01-0.004,0.012-0.017,0.021-0.022  c0.012-0.006,0.025-0.004,0.036-0.013l0.853-0.692c0.004-0.003,0.003-0.009,0.007-0.013c0.004-0.004,0.01-0.002,0.014-0.006  c0.021-0.021,0.02-0.051,0.031-0.077c0.014-0.03,0.034-0.054,0.035-0.087s-0.016-0.059-0.027-0.09  c-0.009-0.027-0.005-0.057-0.023-0.08c-0.003-0.004-0.009-0.003-0.013-0.007c-0.003-0.004-0.002-0.01-0.006-0.014l-0.197-0.194  l0.493-0.606l0.864-0.307c0.018-0.006,0.024-0.026,0.04-0.036c0.017-0.01,0.038-0.007,0.052-0.021l0.18-0.178  c0.007-0.007,0.005-0.018,0.011-0.025c0.011-0.014,0.027-0.021,0.036-0.038l0.336-0.653l1.06,0.225  c0.017,0.003,0.034,0.005,0.051,0.005c0,0,0,0,0,0l0,0c0,0,0,0,0,0c0,0,0,0,0.001,0c0.035,0,0.069-0.007,0.103-0.022l1.542-0.705  l1.037,1.147c0.009,0.01,0.024,0.007,0.034,0.015c0.011,0.009,0.012,0.025,0.025,0.033l1.891,1.106l-0.091,0.725  c0,0.001,0.001,0.002,0.001,0.004c-0.004,0.034,0.017,0.063,0.026,0.097c0.01,0.029,0.008,0.062,0.027,0.086  c0,0.001,0,0.003,0.001,0.004c0.008,0.01,0.023,0.007,0.032,0.015c0.037,0.034,0.076,0.067,0.129,0.074  c0.011,0.001,0.021,0.002,0.031,0.002l0,0l0,0h0c0.004,0,0.007-0.004,0.012-0.004c0.051-0.003,0.104-0.018,0.146-0.053l0.005-0.004  c0,0,0.001-0.001,0.001-0.001l0.664-0.549c0.011-0.009,0.009-0.023,0.018-0.033c0.022-0.024,0.032-0.049,0.043-0.081  c0.011-0.031,0.021-0.057,0.019-0.091c-0.001-0.013,0.01-0.023,0.007-0.036l-0.068-0.349l0.622,0.091  c0.012,0.001,0.023,0.002,0.036,0.002l0,0l0,0h0.001c0.074,0,0.135-0.041,0.182-0.095c0.006-0.007,0.018-0.004,0.023-0.012  c0.01-0.015,0.004-0.033,0.01-0.05c0.01-0.02,0.028-0.034,0.031-0.057c0.003-0.015-0.01-0.026-0.01-0.041  c0-0.033-0.01-0.058-0.022-0.089s-0.026-0.054-0.05-0.078c-0.01-0.01-0.01-0.026-0.022-0.035l-2.785-1.93l-0.203-0.515l0.384-0.137  l2.675,1.827l0.625,2.484c0.003,0.009,0.012,0.013,0.014,0.021c0.008,0.022,0.022,0.035,0.036,0.054  c0.022,0.032,0.047,0.058,0.081,0.076c0.011,0.005,0.014,0.018,0.024,0.022l0.989,0.369c0.029,0.011,0.059,0.016,0.088,0.016  c0.028,0,0.057-0.005,0.086-0.015l1.257-0.457c0.007-0.003,0.009-0.012,0.017-0.015c0.011-0.005,0.023-0.003,0.033-0.01  c0.021-0.014,0.024-0.039,0.04-0.057c0.022-0.025,0.042-0.045,0.053-0.076s0.006-0.06,0.004-0.093  c-0.001-0.024,0.012-0.046,0.003-0.069c-0.004-0.01-0.016-0.012-0.02-0.021s0-0.02-0.006-0.029l-0.818-1.269l0.987-0.186  l1.317,2.176c0.008,0.014,0.021,0.02,0.031,0.031c0.011,0.011,0.02,0.02,0.031,0.029c0.044,0.035,0.094,0.06,0.15,0.06v0h0.001l0,0  l0,0c0.005,0,0.009,0,0.013,0l3.389-0.182l-0.439,1.755l-0.513,0.726l-1.716,0.047l-3.766-0.735  c-0.01-0.002-0.018,0.006-0.027,0.005c-0.008,0-0.016-0.011-0.025-0.01l-4.542,0.07l-1.658-2.581  c-0.009-0.014-0.026-0.015-0.038-0.026c-0.021-0.023-0.042-0.035-0.07-0.049c-0.031-0.015-0.057-0.025-0.091-0.027  c-0.014,0-0.024-0.013-0.039-0.011l-4.158,0.459c-0.006,0-0.009,0.007-0.015,0.008c-0.006,0.001-0.011-0.004-0.017-0.003  l-4.424,1.074c-0.02,0.005-0.028,0.024-0.045,0.033c-0.018,0.008-0.038,0.003-0.053,0.016l-1.543,1.257  c-0.02,0.016-0.02,0.042-0.033,0.062c-0.015,0.021-0.04,0.033-0.048,0.059l-0.356,1.159l-2.145,1.784  c-0.014,0.012-0.013,0.031-0.023,0.045c-0.011,0.013-0.03,0.016-0.039,0.032l-1.525,2.917c-0.011,0.021-0.001,0.045-0.006,0.067  c-0.005,0.022-0.023,0.039-0.022,0.063l0.172,2.979l-0.21,1.635c0,0.002,0.002,0.004,0.002,0.006  c-0.003,0.032,0.016,0.059,0.024,0.09c0.009,0.031,0.009,0.065,0.029,0.091c0.001,0.002,0,0.004,0.002,0.006l0.667,0.782  c0.002,0.003,0.007,0.002,0.01,0.005s0.002,0.008,0.005,0.011l1.598,1.568c0.007,0.007,0.017,0.004,0.024,0.01  s0.007,0.017,0.015,0.021l2.582,1.668c0.041,0.027,0.087,0.039,0.133,0.04c0,0,0.001,0,0.002,0h0l0,0l0,0  c0.014,0,0.026-0.001,0.04-0.003l2.855-0.465c0.004-0.001,0.006-0.006,0.011-0.007c0.015-0.003,0.031-0.003,0.045-0.009l1.678-0.7  l1.104,0.182l0.761,1.046c0.005,0.007,0.015,0.004,0.021,0.011c0.046,0.053,0.106,0.092,0.181,0.092h0l0,0l0,0  c0.01,0,0.019,0,0.028-0.001l1.447-0.165l0.465,0.542l-0.667,1.714c-0.004,0.011,0.003,0.021,0,0.033  c-0.008,0.032-0.003,0.06,0.002,0.093c0.005,0.033,0.008,0.061,0.025,0.088c0.006,0.01,0.001,0.023,0.009,0.032l1.705,2.156  l0.719,2.013l0.242,1.375l-0.771,1.301c-0.014,0.023-0.005,0.049-0.01,0.072c-0.006,0.025-0.026,0.044-0.024,0.07l0.128,2.186  c0.001,0.022,0.02,0.036,0.026,0.057c0.006,0.02-0.002,0.039,0.008,0.057l1.382,2.318l0.996,2.487  c0.005,0.012,0.017,0.017,0.023,0.028c0.004,0.008,0,0.017,0.005,0.023l1.257,1.764l0.033,0.746c0,0,0.001,0,0.001,0.001  c0.001,0.021,0.02,0.036,0.025,0.056c0.014,0.043,0.024,0.086,0.056,0.114c0.001,0.001,0,0.003,0.002,0.005l0.631,0.559  c0.001,0.002,0.002,0.001,0.004,0.002c0.044,0.038,0.101,0.062,0.162,0.062l0,0l0,0l0,0c0.014,0,0.027-0.001,0.041-0.003l1.908-0.32  h0.001c0.001,0,0.001,0,0.003,0l1.879-0.338c0.013-0.002,0.018-0.016,0.03-0.02c0.022-0.008,0.047-0.008,0.067-0.021l1.883-1.31  c0.006-0.005,0.006-0.013,0.012-0.018c0.018-0.015,0.039-0.026,0.053-0.047l1.163-1.707c0.016-0.022,0.009-0.05,0.016-0.075  c0.009-0.027,0.028-0.047,0.028-0.076l-0.044-1.071l1.179-0.643c0.018-0.009,0.021-0.03,0.034-0.042  c0.025-0.021,0.043-0.041,0.058-0.071c0.016-0.03,0.021-0.056,0.023-0.089c0.002-0.02,0.016-0.033,0.014-0.053l-0.309-2.189  l2.737-2.081c0.01-0.008,0.009-0.021,0.018-0.03c0.023-0.023,0.033-0.049,0.046-0.079c0.014-0.03,0.024-0.056,0.024-0.089  c0-0.013,0.011-0.021,0.009-0.033l-0.239-1.822c0-0.002-0.003-0.003-0.003-0.005c0-0.001,0.002-0.003,0.002-0.005l-0.576-3.423  l2.43-3.349l0.811-0.598c0.01-0.007,0.009-0.021,0.018-0.028c0.007-0.007,0.019-0.004,0.025-0.012l2.175-2.587  c0.007-0.008,0.003-0.019,0.009-0.027c0.009-0.013,0.023-0.021,0.029-0.036l0.708-1.658c0.005-0.011-0.003-0.022,0.001-0.034  c0.008-0.032,0.004-0.059,0-0.092s-0.006-0.061-0.022-0.089c-0.006-0.01-0.001-0.023-0.009-0.033l-0.476-0.636  c-0.013-0.016-0.033-0.016-0.048-0.028c-0.025-0.021-0.047-0.037-0.078-0.046c-0.033-0.011-0.061-0.012-0.094-0.009  c-0.02,0.001-0.035-0.011-0.055-0.005l-2.451,0.759l-1.076,0.025l-0.258-0.625c0.037,0.022,0.076,0.043,0.122,0.043  c0.015,0,0.03-0.001,0.044-0.004c0.001,0,0.001,0,0.002,0c0,0,0.002,0,0.002,0l1.128-0.221c0.005-0.001,0.007-0.006,0.011-0.007  c0.014-0.003,0.027-0.002,0.04-0.008l3.678-1.581c0.007-0.003,0.009-0.012,0.016-0.016c0.01-0.005,0.021-0.003,0.03-0.01  l3.265-2.326c0,0,0,0,0.001,0c0.042-0.03,0.075-0.074,0.092-0.127l0.541-1.696c0.008-0.026-0.006-0.051-0.006-0.077  c-0.001-0.033,0.004-0.062-0.008-0.092c-0.014-0.03-0.038-0.047-0.062-0.071c-0.019-0.019-0.025-0.046-0.05-0.059l-1.239-0.627  L71.99,37.77c-0.016-0.019-0.041-0.019-0.061-0.033c-0.027-0.019-0.051-0.038-0.084-0.044c-0.031-0.007-0.059,0.001-0.091,0.008  c-0.024,0.004-0.048-0.006-0.071,0.006l-1.508,0.775l-1.968-1.838l-0.08-0.497l0.455-0.188l0.69,0.977  c0.012,0.015,0.032,0.011,0.045,0.023c0.022,0.021,0.033,0.051,0.063,0.063l1.402,0.583c0.031,0.013,0.063,0.019,0.095,0.019h0.001  c0,0,0,0,0.001,0l0,0l0,0c0.013,0,0.025-0.001,0.038-0.003l1.363-0.213l0.384,0.514c0.002,0.002,0.006,0.001,0.008,0.004  c0.041,0.053,0.101,0.09,0.173,0.096l2.633,0.206l2.474,1.306l3.262,2.288l2.703,3.394l0.982,1.358  c0.003,0.004,0.009,0.002,0.012,0.006c0.004,0.004,0.001,0.01,0.005,0.014c0.05,0.055,0.118,0.083,0.187,0.083  c0.051,0,0.102-0.016,0.146-0.047c0.004-0.003,0.004-0.008,0.007-0.011c0.004-0.003,0.009-0.001,0.013-0.005l0.678-0.606  c0.01-0.009,0.008-0.022,0.016-0.032c0.02-0.022,0.043-0.039,0.053-0.068l0.329-0.895c0.009-0.025-0.004-0.049-0.003-0.075  c0.002-0.024,0.017-0.046,0.011-0.071l-0.639-2.616l1.253-2.606l1.115-0.478l1.431,1.676l0.341,1.088  c0.008,0.025,0.029,0.04,0.044,0.06c0.008,0.012,0.005,0.027,0.015,0.038c0.005,0.005,0.014,0.003,0.019,0.008  c0.046,0.041,0.1,0.069,0.162,0.069c0.024,0,0.05-0.003,0.075-0.011c0.019-0.006,0.025-0.026,0.043-0.036  c0.018-0.01,0.039-0.007,0.055-0.022l0.501-0.479l1.031,2.207l0.176,0.623L92,45.749c0,0.035,0.024,0.059,0.037,0.088  c0.012,0.026,0.01,0.056,0.029,0.077l0.264,0.283l0.293,1.463l-0.537-0.651c-0.016-0.019-0.041-0.019-0.061-0.032  c-0.019-0.014-0.027-0.037-0.05-0.045l-0.614-0.216c-0.001,0-0.003,0.001-0.004,0c-0.029-0.009-0.059,0.004-0.09,0.005  c-0.034,0.002-0.069-0.007-0.1,0.008c-0.001,0-0.002,0-0.004,0c-0.029,0.015-0.039,0.046-0.059,0.07  c-0.021,0.024-0.051,0.038-0.062,0.069c0,0.001,0.001,0.002,0,0.004c-0.01,0.031,0.004,0.062,0.006,0.095  c0.002,0.033-0.007,0.066,0.008,0.095c0,0.001,0,0.002,0,0.004l1.346,2.606l1.055,2.876c0.01,0.029,0.033,0.046,0.053,0.068  c0.012,0.014,0.018,0.029,0.031,0.041c0.043,0.033,0.094,0.053,0.147,0.054c0.001,0,0.002,0.001,0.003,0.001l0,0l0,0h0.001  c0.003,0,0.007-0.001,0.011-0.001c-0.006,0.016-0.021,0.024-0.024,0.042c-0.001,0.011,0.009,0.02,0.009,0.03  c-0.001,0.011-0.011,0.02-0.01,0.03l0.043,0.371c0.002,0.011,0.012,0.016,0.014,0.025c0.006,0.027,0.021,0.045,0.036,0.069  c0.019,0.03,0.036,0.057,0.067,0.077c0.008,0.006,0.01,0.019,0.02,0.023l1.234,0.615c0.02,0.01,0.041,0.011,0.062,0.015  c0.006,0.001,0.01,0.009,0.016,0.009l1.596,0.214c-0.072,0.7-0.162,1.397-0.268,2.093l-0.758,2.422l-1.685,1.74  c-0.011,0.011-0.007,0.026-0.015,0.039c-0.009,0.011-0.023,0.013-0.03,0.025l-0.7,1.438c-0.01,0.019,0,0.038-0.004,0.058  c-0.005,0.017-0.021,0.028-0.021,0.046l-0.038,1.752l-0.47,2.842l-0.399,0.767c-0.004,0.007,0.001,0.016-0.002,0.022  c-0.013,0.031-0.009,0.061-0.009,0.094s-0.004,0.062,0.009,0.092c0.003,0.008-0.001,0.017,0.003,0.023  c0.023,0.046,0.061,0.078,0.102,0.102c0.002,0,0.002,0.003,0.004,0.004c0.037,0.02,0.076,0.028,0.115,0.028s0.08-0.009,0.117-0.028  l0.471-0.249c-0.442,0.991-0.91,1.976-1.428,2.942c-3.754,6.996-9.203,12.715-15.812,16.736l-2.71,1.064  c-0.001,0.001-0.002,0.002-0.002,0.002h-0.002l-3.43,1.406l-1.453,0.136c-0.004,0.001-0.006,0.004-0.009,0.005  c-0.003,0-0.006-0.003-0.009-0.002l-4.389,0.715l-4.197-0.262c-0.011,0-0.018,0.01-0.027,0.01c-0.011,0.001-0.019-0.008-0.029-0.006  l-5.056,0.846l-5.38-1.386c-0.009-0.003-0.016,0.005-0.025,0.003c-0.008-0.001-0.013-0.01-0.022-0.01l-5.48-0.336l-5.869-1.004  c-0.002-0.001-0.004,0.002-0.007,0.001c-0.002,0-0.003-0.003-0.005-0.003l-4.524-0.543l-3.002-0.619  c-3.602-2.192-6.89-4.887-9.742-8.007c0.001-0.001,0-0.004,0.002-0.005c0.003-0.006,0.009-0.007,0.013-0.012  c0.016-0.025,0.009-0.054,0.016-0.08c0.008-0.028,0.028-0.051,0.025-0.081c0-0.005-0.006-0.007-0.007-0.013  c-0.006-0.043-0.034-0.076-0.062-0.111c-0.013-0.015-0.017-0.035-0.032-0.047c-0.005-0.004-0.004-0.012-0.01-0.015l-0.643-0.427  c-0.478-0.549-0.945-1.107-1.396-1.681l-0.145-0.228l-0.761-1.496c-0.002-0.004-0.007-0.004-0.009-0.008  c-0.002-0.004,0-0.008-0.002-0.012L15.8,72.214c0.003-0.003,0.008-0.002,0.01-0.005c0.013-0.016,0.008-0.037,0.016-0.055  c0.015-0.029,0.024-0.055,0.026-0.088c0.002-0.033-0.004-0.059-0.015-0.091c-0.006-0.019,0.001-0.038-0.009-0.056l-0.483-0.779  l0.023-0.359c0-0.01-0.008-0.016-0.009-0.025c0-0.01,0.008-0.016,0.007-0.025l-0.089-0.613c-0.003-0.021-0.023-0.032-0.032-0.051  c-0.008-0.022-0.003-0.047-0.018-0.067l-0.491-0.634l0.184-0.105c0.022-0.013,0.027-0.039,0.043-0.057  c0.023-0.023,0.045-0.043,0.057-0.073c0.012-0.031,0.008-0.06,0.007-0.093c0-0.024,0.014-0.047,0.006-0.071l-0.178-0.549  l0.319-1.306c0.002-0.01-0.006-0.02-0.005-0.029c0.001-0.012,0.012-0.019,0.012-0.029l-0.003-1.666c0-0.016-0.015-0.025-0.018-0.041  c-0.002-0.016,0.007-0.031,0.001-0.046l-0.376-1.001l0.576-0.897l0.62-0.037c0.001,0,0.002,0,0.003,0h0l0.004-0.001  c0.03-0.002,0.049-0.025,0.076-0.036c0.033-0.015,0.071-0.02,0.094-0.046c0.02-0.021,0.02-0.055,0.031-0.083  c0.013-0.031,0.036-0.058,0.035-0.094l-0.094-2.388c0-0.015-0.014-0.023-0.017-0.037c-0.002-0.013,0.006-0.024,0.002-0.037  l-0.848-2.381l0.093-0.568l0.222-0.57l0.81-0.316c0.006-0.003,0.008-0.011,0.014-0.014c0.051-0.023,0.096-0.059,0.122-0.114  l0.002-0.005l0,0l0.544-1.171c0.001-0.003-0.001-0.006,0-0.009c0.013-0.031,0.004-0.064,0.004-0.099  c0-0.031,0.009-0.062-0.002-0.091c-0.001-0.002,0.001-0.006,0-0.009l-0.523-1.174c-0.006-0.014-0.022-0.017-0.03-0.028  c-0.018-0.028-0.039-0.045-0.067-0.063s-0.051-0.032-0.083-0.039c-0.014-0.003-0.022-0.017-0.037-0.017l-0.873-0.039l-0.986-1.277  c-0.003-0.005-0.01-0.004-0.013-0.008c-0.021-0.025-0.052-0.032-0.082-0.047c-0.03-0.016-0.054-0.035-0.087-0.037  c-0.005,0-0.008-0.006-0.013-0.006l-0.688-0.008l-0.438-0.438c-0.006-0.006-0.016-0.004-0.022-0.01  c-0.006-0.005-0.006-0.015-0.013-0.02l-1.108-0.76l-0.368-1.277c-0.004-0.015-0.02-0.02-0.026-0.034  c-0.006-0.013,0-0.028-0.009-0.041l-0.343-0.49l-0.208-0.845c-0.005-0.022-0.027-0.033-0.038-0.052  c-0.01-0.02-0.007-0.043-0.022-0.06l-0.398-0.424l-0.204-0.662c-0.004-0.015-0.021-0.02-0.027-0.033  c-0.006-0.013-0.001-0.029-0.01-0.041c-0.012-0.017-0.033-0.017-0.048-0.029c-0.025-0.022-0.047-0.038-0.079-0.049  c-0.032-0.011-0.059-0.011-0.093-0.008c-0.011,0.001-0.021-0.005-0.032-0.003l-0.149-0.73c0-0.003-0.004-0.004-0.004-0.006  c0-0.003,0.001-0.005,0.001-0.008l-0.36-1.342c-0.003-0.011-0.015-0.015-0.019-0.024c-0.012-0.031-0.034-0.05-0.057-0.074  c-0.022-0.022-0.04-0.043-0.07-0.056c-0.01-0.005-0.014-0.018-0.026-0.021l-0.049-0.014C9.957,39.656,11.53,34.502,13.94,29.778z   M95.278,53.53l-0.856-0.427l0.982,0.129l0.311,0.356L95.278,53.53z M92.498,45.643l-0.012-0.634l0.107,0.737L92.498,45.643z   M93.23,48.151l-0.32-1.599l0.199,0.403l0.16,1.259L93.23,48.151z M96.971,49.161c-0.002,0.014-0.014,0.023-0.013,0.038l0.036,0.458  c0.004,1.212-0.053,2.422-0.15,3.628c-0.02-0.004-0.033-0.021-0.053-0.021c-0.002,0-0.004,0-0.006,0  c-0.006,0-0.01,0.006-0.016,0.008c-0.007,0-0.012-0.006-0.018-0.005l-0.575,0.091l-0.456-0.524  c-0.021-0.023-0.051-0.024-0.077-0.038c-0.026-0.016-0.046-0.041-0.079-0.046l-1.396-0.184c0.013-0.017,0.01-0.038,0.018-0.058  c0.009-0.021,0.029-0.036,0.032-0.061l0.18-1.511c0.004-0.026-0.015-0.046-0.02-0.071c-0.004-0.026,0.006-0.053-0.008-0.077  l-0.66-1.226c0.004,0,0.006-0.004,0.01-0.005c0.025-0.006,0.051-0.007,0.074-0.021c0.014-0.009,0.016-0.026,0.027-0.037  c0.024-0.022,0.039-0.045,0.053-0.075c0.015-0.03,0.023-0.056,0.024-0.089c0.001-0.016,0.015-0.027,0.013-0.044l-0.312-2.441  c-0.002-0.015-0.017-0.023-0.021-0.037c-0.005-0.014,0.004-0.028-0.004-0.042l-0.465-0.943l-0.229-1.557c0,0,0,0,0,0l-0.048-0.34  l0.237,0.372l0.32,1.12c0.002,0.005,0.007,0.007,0.009,0.012c0.006,0.018,0.02,0.027,0.029,0.043  c0.023,0.037,0.049,0.067,0.087,0.087c0.008,0.004,0.01,0.015,0.018,0.019c0.032,0.013,0.064,0.02,0.098,0.02  c0.022,0,0.046-0.003,0.068-0.01c0.01-0.003,0.014-0.013,0.021-0.017c0.043-0.017,0.076-0.044,0.104-0.083  c0.01-0.011,0.02-0.018,0.026-0.031c0.003-0.005,0.009-0.007,0.011-0.013l0.549-1.301c0.005-0.011-0.002-0.021,0-0.032  c0.004-0.012,0.016-0.02,0.018-0.032l0.082-0.611c0.003-0.021-0.013-0.037-0.016-0.057c-0.002-0.02,0.011-0.038,0.004-0.058  l-0.678-1.954c-0.004-0.011-0.016-0.015-0.021-0.025s0-0.023-0.007-0.033l-0.572-0.849c0.007,0,0.014,0,0.021-0.001l0.277-0.047  c0.002,0,0.002-0.001,0.003-0.001c0.003,0,0.007,0,0.01-0.001c0.032-0.007,0.048-0.035,0.073-0.052  c0.027-0.018,0.061-0.027,0.078-0.054s0.014-0.06,0.021-0.092c0.006-0.03,0.025-0.056,0.02-0.088c0-0.002-0.003-0.003-0.004-0.006  c0-0.002,0.002-0.004,0.002-0.006l-0.375-1.69l0.598-0.581c0.012-0.012,0.01-0.03,0.019-0.044c0.02-0.027,0.045-0.051,0.052-0.085  l0.338-1.67c0.002-0.011-0.006-0.019-0.006-0.03c0.001-0.011,0.012-0.018,0.011-0.028l-0.042-1.261c0-0.01-0.01-0.016-0.011-0.026  c-0.001-0.008,0.006-0.015,0.004-0.023l-0.023-0.099c0.293,0.797,0.571,1.601,0.819,2.42c1.198,3.973,1.812,8.027,1.875,12.065  c-0.003,0.01-0.014,0.014-0.017,0.024C96.961,49.135,96.971,49.146,96.971,49.161z M92.994,31.479  c0.004,0.009,0.008,0.018,0.013,0.027l-0.037-0.021C92.979,31.484,92.986,31.48,92.994,31.479z M91.483,29.589l-0.044-0.069  c0.035,0.019,0.072,0.036,0.113,0.036c0.027,0,0.055-0.004,0.082-0.014l0,0l0.044,0.076L91.483,29.589z M92.44,31.026l-0.028-0.29  l0.116,0.194l0.162,0.327L92.44,31.026z M62.975,43.334l-1.033-1.691l-0.125-1.598c-0.002-0.024-0.022-0.039-0.03-0.06  c-0.008-0.022-0.001-0.047-0.017-0.067l-1.265-1.746l-0.271-0.71l0.212-0.123l1.042,1.396l1.125,2.393  c0.006,0.011,0.017,0.016,0.023,0.026c0.004,0.006,0.001,0.015,0.006,0.021l1.742,2.227l0.24,1.34  c-0.009-0.02-0.03-0.026-0.043-0.043c-0.012-0.017-0.012-0.039-0.028-0.053L62.975,43.334z M51.014,31.177  c0-0.001-0.001-0.003-0.001-0.004c0,0,0,0,0-0.001L51.014,31.177z M51.023,31.229l0.039,0.195l-0.07,0.058L51.023,31.229z"/><text x="0" y="115" fill="#000000" font-size="5px" font-weight="bold" font-family="'Helvetica Neue', Helvetica, Arial-Unicode, Arial, Sans-serif">Created by Lluisa Iborra</text><text x="0" y="120" fill="#000000" font-size="5px" font-weight="bold" font-family="'Helvetica Neue', Helvetica, Arial-Unicode, Arial, Sans-serif">from the Noun Project</text></svg>