<svg xmlns="http://www.w3.org/2000/svg" xmlns:xlink="http://www.w3.org/1999/xlink" version="1.1" x="0px" y="0px" viewBox="0 0 100 125" enable-background="new 0 0 100 100" xml:space="preserve"><path fill="#000000" d="M42.599,12.205c-0.007,0.001-0.01,0.009-0.017,0.01l-0.711,0.086l-0.727,0.418  c-0.005,0.003-0.01,0.001-0.015,0.004c-0.003,0.001-0.003,0.005-0.006,0.007l-2.268,1.027l-0.152,0.218l0.134-0.01  c0.027-0.002,0.049,0.019,0.076,0.026c0.034,0.009,0.066,0.01,0.093,0.031c0.021,0.017,0.026,0.042,0.042,0.064  c0.019,0.028,0.047,0.048,0.054,0.084l0.04,0.222l0.89-0.056c0.012-0.001,0.018,0.009,0.029,0.01c0.01,0,0.018-0.009,0.028-0.007  l1.342,0.228l2.06-0.06c0.017,0,0.027,0.014,0.043,0.016c0.033,0.005,0.058,0.016,0.087,0.034c0.028,0.017,0.048,0.034,0.068,0.06  c0.01,0.013,0.027,0.016,0.035,0.031l0.376,0.78c0.011,0.024,0,0.048,0.004,0.073c0.001,0.008,0.005,0.016,0.006,0.024l0.238-0.034  l0.084-0.761c0.002-0.019,0.019-0.029,0.025-0.046c0.01-0.03,0.021-0.053,0.042-0.077c0.022-0.028,0.046-0.045,0.078-0.061  c0.015-0.008,0.021-0.025,0.037-0.029l2.245-0.621l0.047-0.146l-0.563-0.171c-0.009-0.003-0.012-0.013-0.02-0.017  c-0.043-0.018-0.078-0.047-0.106-0.087c-0.007-0.01-0.017-0.016-0.022-0.027c-0.002-0.003-0.006-0.005-0.008-0.009  c-0.012-0.028,0-0.056-0.001-0.085c-0.002-0.03-0.018-0.057-0.009-0.087c0.001-0.004,0.005-0.005,0.007-0.008  c0.01-0.028,0.036-0.044,0.055-0.068c0.023-0.027,0.039-0.058,0.07-0.073c0.003-0.001,0.004-0.006,0.007-0.007l0.672-0.294  l0.417-0.945c0.005-0.012,0.02-0.015,0.027-0.026c0.018-0.028,0.039-0.044,0.066-0.063c0.028-0.02,0.05-0.035,0.083-0.042  c0.013-0.003,0.02-0.016,0.033-0.017l2.882-0.228c0.011-0.001,0.02,0.009,0.031,0.01c0.012,0,0.021-0.009,0.034-0.007l1.419,0.261  l-1.17-0.4l-2.022,0.201c-0.008,0-0.016,0.001-0.024,0.001h0c0,0-0.001,0-0.001,0c-0.042,0-0.085-0.011-0.125-0.034  c-0.008-0.004-0.008-0.015-0.015-0.02c-0.03-0.021-0.044-0.05-0.062-0.083c-0.013-0.024-0.03-0.042-0.035-0.07  c-0.001-0.007-0.009-0.011-0.01-0.019c-0.002-0.028,0.017-0.048,0.022-0.074c0.005-0.026-0.003-0.053,0.011-0.077l0.271-0.464  c0.004-0.007,0.014-0.008,0.019-0.014c0.018-0.026,0.044-0.037,0.071-0.055c0.029-0.018,0.052-0.038,0.086-0.043  c0.008-0.001,0.012-0.01,0.02-0.01l1.928-0.15l0.18-0.458l-1.758-0.274L48.052,9.9l-0.697,0.369  c-0.022,0.012-0.046,0.013-0.07,0.018l-0.869,0.547c-0.015,0.009-0.032,0.008-0.048,0.014c-0.009,0.004-0.012,0.014-0.021,0.017  l-1.174,0.311c-0.008,0.002-0.016,0.002-0.024,0.003c-0.001,0-0.002,0.002-0.004,0.003l-0.987,0.14l-0.396,0.295  c-0.007,0.005-0.016,0.003-0.023,0.008c-0.005,0.003-0.006,0.01-0.011,0.013l-1.061,0.551C42.645,12.2,42.622,12.201,42.599,12.205z  "/><path fill="#000000" d="M86.037,25.234c0.004,0.003,0.002,0.009,0.006,0.013c0.023,0.023,0.028,0.056,0.041,0.087  c0.012,0.03,0.029,0.055,0.029,0.086c0,0.005,0.005,0.009,0.004,0.014l-0.025,0.39c0,0.009-0.01,0.015-0.012,0.023  c-0.004,0.029-0.021,0.049-0.035,0.075c-0.018,0.031-0.031,0.058-0.061,0.079c-0.008,0.006-0.008,0.018-0.017,0.022l-0.217,0.125  l1.128,0.085c-0.389-0.544-0.789-1.079-1.201-1.604c-0.01,0.004-0.02,0.005-0.029,0.008c-0.01,0.003-0.013,0.013-0.021,0.015  l-0.029,0.007l0.07,0.234L86.037,25.234z"/><path fill="#000000" d="M43.888,9.528c0.007-0.013,0.009-0.029,0.019-0.04l-0.435,0.146c-0.002,0.001-0.005,0-0.007,0.001  c-0.001,0-0.002,0.001-0.003,0.002l-0.51,0.146l0.029,0.023l1.885,0.157l0.218-0.029l-1.003-0.048c-0.004,0-0.007-0.005-0.011-0.005  c-0.054-0.005-0.102-0.029-0.143-0.067c-0.008-0.008-0.017-0.012-0.024-0.021c-0.005-0.006-0.013-0.009-0.018-0.016  c-0.016-0.024-0.009-0.052-0.016-0.079c-0.007-0.025-0.027-0.045-0.026-0.073c0-0.007,0.007-0.01,0.008-0.017  C43.855,9.577,43.874,9.555,43.888,9.528z"/><path fill="#000000" d="M91.09,41.172c-0.013,0-0.025-0.001-0.039-0.003l-1.507-0.236c-0.008-0.001-0.011-0.009-0.019-0.011  c-0.052-0.013-0.099-0.039-0.135-0.083c-0.003-0.004-0.008-0.005-0.011-0.01c-0.001-0.002-0.004-0.002-0.005-0.004l-1.471-2.199  c-0.003-0.004,0-0.008-0.003-0.012c-0.003-0.006-0.011-0.008-0.013-0.014l-0.938-1.858l-0.603-0.852  c-0.008-0.01-0.002-0.023-0.008-0.034c-0.008-0.015-0.023-0.023-0.027-0.04l-0.427-1.444l-1.073-2.75  c-0.006-0.013,0.003-0.026,0-0.039c-0.003-0.014-0.016-0.023-0.018-0.038l-0.131-2.286c-0.002-0.023,0.017-0.04,0.021-0.061  c0.004-0.022-0.006-0.045,0.005-0.066l0.54-1.063l-0.186-0.944c-0.002-0.011,0.007-0.02,0.006-0.031c0-0.011-0.011-0.019-0.01-0.03  l0.035-0.709c0-0.001,0.001-0.001,0.001-0.002c0-0.001-0.001-0.002-0.001-0.003c0.001-0.013,0.014-0.021,0.017-0.033  c0.013-0.059,0.036-0.11,0.079-0.146l-0.094-0.004c-0.022-0.001-0.036-0.02-0.057-0.026c-0.036-0.011-0.074-0.014-0.104-0.041  l-0.611-0.569l-0.617-0.372c-0.019-0.011-0.021-0.034-0.035-0.048c-0.012-0.01-0.029-0.007-0.039-0.02l-0.354-0.489l-0.221-0.161  c-0.007-0.005-0.006-0.016-0.013-0.021c-0.021-0.019-0.046-0.036-0.06-0.062l-0.414-0.771l-0.834-1.211  c-0.007-0.009-0.002-0.02-0.007-0.029c-0.016-0.029-0.017-0.057-0.019-0.09c-0.004-0.033-0.008-0.061,0.002-0.092  c0.002-0.01-0.004-0.02,0-0.03c0.01-0.022,0.034-0.029,0.049-0.046c0.016-0.019,0.018-0.045,0.039-0.059  c0.009-0.006,0.021-0.001,0.031-0.007c0.027-0.014,0.055-0.015,0.086-0.018c0.033-0.003,0.062-0.008,0.094,0.001  c0.01,0.003,0.021-0.004,0.031,0l0.965,0.424l-0.371-0.511l-0.59-0.602l-0.57-0.356c-0.018-0.011-0.02-0.033-0.033-0.048  c-0.012-0.01-0.029-0.006-0.037-0.019l-0.315-0.442c-0.009-0.012-0.003-0.027-0.009-0.041c-0.016-0.03-0.02-0.057-0.021-0.09  c-0.002-0.033-0.002-0.06,0.01-0.091c0.004-0.014-0.004-0.029,0.004-0.042c0.01-0.019,0.031-0.021,0.045-0.037  c0.013-0.015,0.014-0.036,0.03-0.048c0.013-0.009,0.028-0.003,0.041-0.009c0.03-0.015,0.057-0.019,0.09-0.021  s0.06-0.001,0.091,0.009c0.014,0.005,0.028-0.003,0.042,0.004l0.053,0.028c0.007-0.011,0.021-0.013,0.028-0.022l-0.492-0.171  l-0.407-0.041h-0.001c-0.001,0-0.002,0-0.004,0c-0.033-0.004-0.053-0.03-0.08-0.045c-0.029-0.016-0.064-0.022-0.084-0.048  c-0.021-0.025-0.02-0.061-0.028-0.092c-0.009-0.03-0.03-0.055-0.026-0.088c0-0.001,0.001-0.001,0.001-0.002  c0.001-0.001-0.001-0.001-0.001-0.002l0.028-0.231l-0.458-0.397l-0.002-0.002c-0.006-0.005-0.005-0.013-0.01-0.019  c-0.033-0.034-0.06-0.074-0.069-0.123c-0.034,0.019-0.066,0.044-0.108,0.044c-0.002,0-0.005,0-0.008,0l-0.411-0.013  c-0.003,0-0.004-0.003-0.007-0.003c-0.027-0.001-0.057-0.005-0.084-0.017l-0.359-0.154c-0.018-0.008-0.022-0.028-0.037-0.039  c-0.015-0.01-0.033-0.007-0.047-0.02l-0.259-0.276l-1.264-0.996c-0.021-0.016-0.021-0.043-0.036-0.064  c-0.019-0.027-0.038-0.049-0.045-0.081c-0.008-0.032,0.002-0.06,0.008-0.092c0.004-0.025-0.006-0.05,0.006-0.074  c0.004-0.008,0.014-0.009,0.02-0.016c0.004-0.007,0.001-0.017,0.006-0.024c0.008-0.009,0.02-0.008,0.027-0.015l-0.797-0.732  c-0.013-0.012-0.01-0.031-0.021-0.045c-0.021-0.027-0.031-0.051-0.039-0.084c-0.008-0.032-0.009-0.058-0.004-0.091  c0.003-0.018-0.009-0.034-0.002-0.051s0.024-0.022,0.034-0.037c0.008-0.015,0.005-0.033,0.017-0.046  c0.013-0.013,0.031-0.011,0.046-0.021c0.004-0.003,0.007-0.01,0.012-0.013c-2.715-1.928-5.653-3.558-8.774-4.837  c-0.032,0.022-0.071,0.029-0.11,0.034c-0.008,0.001-0.012,0.008-0.02,0.009l-0.611,0.024l-0.689,0.349l-2.625,1.469  c-0.039,0.021-0.08,0.032-0.122,0.032c-0.038,0-0.075-0.008-0.11-0.026l-2.051-1.016c-0.013-0.006-0.015-0.021-0.025-0.029  c-0.027-0.02-0.044-0.042-0.062-0.071c-0.017-0.027-0.029-0.049-0.035-0.08c-0.003-0.013-0.016-0.021-0.016-0.035L61.184,10.2  l-0.848-0.842l-3.215-0.548c0,0,0,0-0.001,0l-3.989-0.608C53.117,8.2,53.112,8.188,53.1,8.184c-0.041-0.012-0.074-0.032-0.105-0.064  c-0.014-0.015-0.024-0.027-0.035-0.045c-0.007-0.013-0.021-0.02-0.025-0.034C52.926,8.02,52.938,8,52.936,7.978  c-0.002-0.021-0.018-0.038-0.015-0.061c0.002-0.013,0.015-0.019,0.019-0.031c0.009-0.028,0.021-0.047,0.039-0.071  c-0.617-0.026-1.236-0.047-1.86-0.047c-7.039,0-13.691,1.674-19.594,4.63l0.078-0.023c0.006-0.002,0.011,0.003,0.017,0.002  c0.032-0.007,0.061,0.004,0.093,0.01c0.03,0.005,0.061,0,0.086,0.015l0.246-0.088c0.005-0.002,0.01,0.002,0.015,0.001  c0.005-0.002,0.007-0.008,0.013-0.009l1.609-0.372l0.784-0.337c0.011-0.005,0.021,0.002,0.032,0  c0.011-0.003,0.016-0.015,0.028-0.017l2.182-0.34l1.498-0.345l0.949-0.533c0.014-0.008,0.03,0,0.044-0.005  c0.015-0.005,0.023-0.021,0.039-0.024l0.727-0.115l0.611-0.403c0.01-0.007,0.023-0.001,0.034-0.007s0.015-0.019,0.026-0.022  l1.119-0.365l0.623-0.465c0.019-0.014,0.042-0.008,0.062-0.016c0.02-0.009,0.033-0.029,0.056-0.032l2.566-0.328  c0.026-0.003,0.046,0.015,0.07,0.019c0.033,0.006,0.062,0.007,0.09,0.025c0.027,0.017,0.039,0.042,0.058,0.067  c0.011,0.014,0.027,0.022,0.034,0.039l0.294-0.1c0.01-0.003,0.02,0.004,0.03,0.002c0.01-0.002,0.016-0.013,0.026-0.014l2.348-0.236  c0.002,0,0.004,0.002,0.007,0.002c0.002,0,0.004-0.003,0.006-0.003l3.495-0.167c0.01-0.001,0.017,0.009,0.026,0.009  s0.018-0.008,0.027-0.006l2.625,0.451l3.131,0.327c0.011,0.001,0.016,0.011,0.025,0.014c0.031,0.007,0.053,0.025,0.08,0.043  c0.027,0.019,0.053,0.033,0.071,0.061c0.005,0.008,0.017,0.009,0.021,0.018l0.249,0.49l1.946,0.574  c0.013,0.004,0.018,0.017,0.028,0.022c0.03,0.014,0.05,0.034,0.073,0.059c0.021,0.024,0.04,0.043,0.051,0.073  c0.005,0.011,0.018,0.016,0.021,0.029c0.005,0.022-0.01,0.042-0.012,0.063c0,0.022,0.014,0.042,0.008,0.063  c-0.004,0.014-0.018,0.021-0.023,0.033c-0.01,0.021-0.021,0.034-0.036,0.051c-0.026,0.031-0.056,0.052-0.093,0.066  c-0.013,0.005-0.018,0.02-0.031,0.022l-1.98,0.456c-0.019,0.004-0.037,0.006-0.056,0.006c-0.031,0-0.063-0.006-0.093-0.018  l-0.869-0.35l0.535,0.282c0.005,0.002,0.005,0.008,0.009,0.01c0.026,0.015,0.037,0.043,0.056,0.067  c0.021,0.027,0.049,0.048,0.057,0.081c0.002,0.004,0.006,0.005,0.007,0.009c0.007,0.029-0.011,0.054-0.015,0.082  c-0.004,0.03,0.006,0.06-0.008,0.088c-0.003,0.004-0.008,0.006-0.01,0.01c-0.006,0.009-0.014,0.013-0.021,0.022  c-0.032,0.04-0.071,0.066-0.118,0.082c-0.008,0.002-0.012,0.012-0.02,0.014l-2.532,0.551c-0.018,0.004-0.035,0.006-0.053,0.006  c0,0,0,0-0.001,0c-0.012,0-0.023-0.001-0.035-0.002l-1.701-0.25l-0.391,0.024l0.07,0.013c0.008,0.001,0.012,0.01,0.02,0.013  c0.008,0.002,0.015-0.004,0.022-0.001c0.025,0.009,0.034,0.035,0.056,0.051c0.025,0.021,0.052,0.035,0.068,0.063  c0.016,0.029,0.015,0.058,0.019,0.09c0.004,0.026,0.021,0.047,0.017,0.074c-0.002,0.009-0.011,0.013-0.013,0.021  c-0.003,0.007,0.003,0.014,0.001,0.021l-0.146,0.39l0.708,0.166l0.78-0.137l1.676-0.542c0.018-0.006,0.033,0.006,0.051,0.004  c0.033-0.004,0.061-0.002,0.092,0.007c0.033,0.009,0.057,0.022,0.082,0.044c0.014,0.011,0.033,0.009,0.045,0.023l1.133,1.377  l2.592,0.992c0.016,0.006,0.021,0.025,0.035,0.034c0.016,0.009,0.034,0.005,0.047,0.018c0.014,0.012,0.011,0.031,0.021,0.045  c0.02,0.027,0.03,0.051,0.037,0.083c0.008,0.033,0.009,0.06,0.003,0.093c-0.003,0.017,0.008,0.032,0.001,0.049  c-0.008,0.021-0.026,0.032-0.04,0.05c-0.006,0.01-0.004,0.024-0.012,0.033l-0.465,0.487c-0.018,0.019-0.043,0.016-0.064,0.028  c-0.024,0.015-0.04,0.04-0.068,0.045l-1.713,0.332l-1.594,0.41c-0.02,0.005-0.041,0.008-0.062,0.008c-0.003,0-0.007,0-0.011,0  l-1.834-0.083l-1.442,0.085l0.226,0.367c0,0-0.001,0.001,0,0.001c0.018,0.03,0.012,0.067,0.016,0.103  c0.003,0.029,0.02,0.057,0.012,0.085c0,0.001,0.001,0.002,0,0.003l-0.148,0.572l0.601,0.167l0.925-0.312  c0.008-0.002,0.015,0.003,0.022,0.001s0.011-0.01,0.019-0.012c0.027-0.004,0.049,0.014,0.074,0.018  c0.033,0.005,0.064,0.005,0.092,0.023c0.025,0.015,0.037,0.04,0.056,0.063c0.018,0.022,0.045,0.035,0.055,0.063  c0.003,0.008-0.003,0.015-0.001,0.022c0.002,0.007,0.01,0.011,0.012,0.019l0.053,0.333c0.004,0.028-0.014,0.05-0.02,0.077  c-0.005,0.032-0.004,0.062-0.021,0.09s-0.045,0.041-0.072,0.06c-0.021,0.016-0.033,0.042-0.061,0.051l-3.24,1.011  c-0.025,0.008-0.051,0.011-0.074,0.011c-0.004,0-0.008,0-0.012,0c-0.01,0-0.015-0.01-0.023-0.012  c-0.05-0.007-0.093-0.026-0.129-0.06c-0.016-0.015-0.023-0.03-0.035-0.048c-0.013-0.02-0.033-0.033-0.041-0.056  c-0.005-0.015,0.006-0.028,0.004-0.043s-0.016-0.025-0.015-0.042l0.02-0.451l-2.293,0.794l-0.709,0.853  c-0.014,0.016-0.036,0.013-0.053,0.025c-0.021,0.017-0.033,0.043-0.06,0.052l-1.577,0.529l-1.495,1.41l-0.007,0.416  c0,0.01-0.009,0.016-0.011,0.025c-0.004,0.032-0.02,0.055-0.036,0.083c-0.017,0.029-0.028,0.056-0.055,0.077  c-0.007,0.006-0.007,0.018-0.016,0.023l-2.618,1.644l-0.788,0.717l0.438,1.506c0.005,0.016-0.006,0.031-0.005,0.047  c0.002,0.016,0.016,0.027,0.014,0.044l-0.087,1.029c-0.002,0.029-0.024,0.047-0.035,0.072c-0.012,0.026-0.016,0.052-0.036,0.073  c-0.025,0.027-0.058,0.038-0.093,0.052c-0.021,0.008-0.033,0.028-0.057,0.031l-0.578,0.066c-0.009,0.001-0.019,0.001-0.028,0.001h0  c-0.071,0-0.131-0.035-0.177-0.085c-0.005-0.005-0.013-0.003-0.018-0.008l-0.876-1.086c-0.005-0.006-0.002-0.014-0.006-0.021  c-0.018-0.027-0.019-0.057-0.026-0.089c-0.006-0.032-0.017-0.06-0.011-0.092c0.001-0.007-0.004-0.014-0.002-0.021l0.144-0.513  l-0.291-0.195l-0.471,0.266c-0.039,0.022-0.081,0.032-0.123,0.032c-0.051,0-0.099-0.02-0.141-0.05  c-0.005-0.003-0.012-0.002-0.017-0.006l-0.236-0.191l-1.274,0.22l-0.976,0.738c-0.042,0.032-0.091,0.044-0.14,0.047  c-0.004,0-0.007,0.004-0.011,0.004h0c-0.018,0-0.035-0.002-0.053-0.006l-1.412-0.306L34,26.921l-1.042,0.812l0.015,0.711  c0,0.014-0.012,0.023-0.015,0.037c-0.001,0.014,0.008,0.026,0.004,0.04l-0.447,1.508l0.54,1.274l0.563,0.161l1.257-0.241  l0.923-1.417c0-0.001,0.002-0.001,0.003-0.002c0.024-0.036,0.066-0.052,0.105-0.072c0.019-0.009,0.032-0.029,0.052-0.034  c0.001,0,0.002-0.002,0.004-0.002l1.734-0.315c0.026-0.004,0.047,0.013,0.072,0.016c0.026,0.002,0.052-0.009,0.077,0.002  c0.008,0.004,0.009,0.014,0.017,0.019c0.027,0.015,0.04,0.04,0.059,0.063c0.021,0.027,0.044,0.048,0.053,0.081  c0.002,0.008,0.011,0.011,0.013,0.02c0.005,0.027-0.013,0.048-0.016,0.073c-0.002,0.026,0.009,0.051-0.002,0.076l-1.094,2.394  l2.454-0.072c0.02,0.002,0.035,0.017,0.053,0.023c0.025,0.004,0.051-0.005,0.075,0.008c0.014,0.008,0.016,0.025,0.028,0.036  c0.018,0.013,0.024,0.031,0.038,0.047c0.023,0.033,0.043,0.061,0.049,0.101c0.002,0.011,0.013,0.017,0.014,0.028  c0,0.024-0.018,0.041-0.024,0.062c-0.005,0.022,0.004,0.045-0.007,0.066l-0.289,0.521l-0.1,1.35l0.857,0.594l0.614-0.392  c0.019-0.012,0.041-0.004,0.061-0.011c0.019-0.007,0.031-0.025,0.052-0.027l0.771-0.07c0.023-0.001,0.042,0.016,0.065,0.021  c0.028,0.005,0.056-0.004,0.082,0.011l0.577,0.33l0.54-0.444l-0.027-0.442c0-0.013,0.01-0.021,0.011-0.033  c0.002-0.033,0.015-0.057,0.03-0.087c0.015-0.03,0.027-0.055,0.053-0.077c0.009-0.008,0.009-0.021,0.019-0.028l1.647-1.078  c0.027-0.018,0.058-0.011,0.088-0.017c0.027-0.006,0.049-0.025,0.077-0.023l2.137,0.246c0.029,0.003,0.046,0.027,0.07,0.039  c0.025,0.012,0.054,0.01,0.075,0.03l0.393,0.381l1.588,0.15l0.17-0.199c0-0.001,0.002,0,0.002-0.001  c0.021-0.024,0.056-0.029,0.085-0.043c0.029-0.014,0.054-0.039,0.085-0.042c0,0,0.001-0.001,0.002-0.001l1.191-0.07  c0.024-0.002,0.041,0.017,0.063,0.022c0.022,0.004,0.044-0.005,0.065,0.005l2.077,1.069c0.006,0.003,0.006,0.01,0.012,0.014  c0.005,0.003,0.012,0,0.018,0.004l1.196,0.838l1.25-0.282c0.028-0.006,0.052,0.01,0.078,0.013c0.026,0.002,0.052-0.009,0.078,0.002  l1.265,0.558l1.025,0.425c0.025,0.011,0.035,0.038,0.055,0.055c0.02,0.016,0.047,0.02,0.061,0.043l0.492,0.782l0.811,0.455  c0.018,0.01,0.021,0.03,0.034,0.043c0.015,0.012,0.035,0.013,0.047,0.029l0.876,1.215l2.672,0.695  c0.006,0.001,0.008,0.007,0.012,0.009c0.006,0.001,0.01-0.002,0.016,0l1.154,0.442l1.773-0.03c0.045-0.008,0.088,0.007,0.127,0.031  l2.43,1.232l1.303,0.14c0.005,0,0.008,0.006,0.013,0.007c0.032,0.005,0.054,0.028,0.082,0.045c0.028,0.018,0.058,0.027,0.077,0.054  c0.004,0.004,0.01,0.004,0.013,0.009l0.745,1.178c0.009,0.014,0.002,0.031,0.008,0.046c0.013,0.031,0.016,0.057,0.016,0.09  c0,0.034-0.004,0.06-0.018,0.091c-0.006,0.015,0,0.031-0.009,0.044l-0.701,1.061l-0.001,0c0,0.001-0.001,0.001-0.002,0.002  c-0.034,0.05-0.085,0.078-0.14,0.094c-0.007,0.002-0.01,0.01-0.017,0.011l-1.146,0.229l-0.566,0.619c0,0-0.002,0-0.002,0.001  c-0.001,0.001-0.001,0.002-0.002,0.002l-0.585,0.616l0.482,2.416c0.006,0.029-0.012,0.053-0.017,0.081  c-0.004,0.028,0.008,0.057-0.007,0.083l-1.322,2.537c-0.007,0.013-0.021,0.019-0.028,0.03c-0.01,0.013-0.02,0.022-0.031,0.033  c-0.039,0.035-0.085,0.058-0.137,0.063c-0.006,0.001-0.008,0.007-0.014,0.007l-1.769,0.084l-2.184,1.113l0.241,0.968v0.001  c0.005,0.019-0.009,0.038-0.009,0.059c-0.001,0.045,0.003,0.092-0.021,0.13v0.001l-1.068,1.77c-0.01,0.016-0.025,0.023-0.037,0.036  c-0.006,0.006-0.004,0.016-0.011,0.021l-1.642,1.453L59.271,56.6c0,0.002-0.003,0.002-0.004,0.004  c-0.003,0.006-0.009,0.008-0.013,0.013c-0.032,0.045-0.075,0.073-0.124,0.089c-0.008,0.003-0.012,0.012-0.02,0.014l-1.145,0.268  l0.278,0.703c0.006,0.014-0.004,0.028-0.001,0.043c0.008,0.033,0.006,0.061-0.001,0.094c-0.007,0.032-0.015,0.057-0.032,0.085  c-0.009,0.013-0.005,0.03-0.016,0.042l-0.684,0.727c-0.015,0.015-0.036,0.012-0.053,0.021c-0.018,0.013-0.024,0.034-0.045,0.041  l-1.857,0.673L55.7,60.16c0.003,0.015-0.009,0.025-0.009,0.04c0.002,0.014,0.013,0.023,0.012,0.038  c-0.004,0.022-0.021,0.036-0.03,0.057c-0.011,0.027-0.019,0.049-0.037,0.07c-0.024,0.027-0.053,0.042-0.086,0.057  c-0.019,0.009-0.027,0.027-0.048,0.031c-0.016,0.004-0.031,0.005-0.047,0.005l0,0l0,0h-0.001c-0.01,0-0.02-0.001-0.029-0.002  l-1.317-0.158l0.914,3.499c0.008,0.03-0.008,0.057-0.012,0.085c-0.002,0.03,0.009,0.061-0.006,0.089l-0.867,1.752l0.42,1.408  l0.605,0.428l2.076,0.41c0.02,0.004,0.029,0.023,0.047,0.031c0.029,0.014,0.052,0.026,0.074,0.05  c0.024,0.024,0.037,0.05,0.049,0.082c0.008,0.019,0.025,0.028,0.029,0.048c0.002,0.016-0.011,0.026-0.012,0.041  c0,0.015,0.012,0.026,0.009,0.041c-0.005,0.023-0.023,0.037-0.034,0.057c-0.011,0.023-0.019,0.042-0.036,0.061  c-0.027,0.029-0.061,0.045-0.099,0.059c-0.016,0.005-0.024,0.021-0.042,0.023l-3.627,0.5c-0.012,0.001-0.022,0.002-0.034,0.002l0,0  h-0.001c-0.028,0-0.06-0.006-0.087-0.016l-3.145-1.191c-0.005-0.002-0.006-0.009-0.011-0.011c-0.047-0.021-0.091-0.052-0.118-0.101  l-1.516-2.689c-0.008-0.014,0-0.029-0.005-0.043c-0.006-0.017-0.022-0.027-0.025-0.045l-0.938-6.64  c-0.002-0.014,0.009-0.023,0.009-0.036c0-0.014-0.011-0.023-0.009-0.036L48,56.273l-0.385-1.813  c-0.002-0.011,0.007-0.021,0.006-0.031s-0.012-0.019-0.011-0.03l0.104-2.66l-0.647-3.319l-1.529-0.874l-1.667-0.642  c-0.027-0.01-0.037-0.037-0.057-0.055c-0.015-0.012-0.037-0.008-0.049-0.023l-1.221-1.541h0l-2.05-2.435  c-0.017-0.02-0.012-0.046-0.021-0.068c-0.012-0.026-0.035-0.047-0.037-0.078l-0.07-1.143c0-0.003,0.002-0.004,0.002-0.007  c-0.001-0.033,0.02-0.06,0.031-0.091c0.012-0.03,0.014-0.063,0.035-0.086c0.002-0.002,0.001-0.005,0.003-0.007l0.342-0.345  l-0.41-0.411c-0.009-0.009-0.006-0.023-0.014-0.033c-0.02-0.027-0.027-0.053-0.035-0.085c-0.009-0.033-0.016-0.059-0.011-0.092  c0.002-0.013-0.007-0.023-0.004-0.036l0.376-1.318c0.006-0.02,0.026-0.028,0.036-0.046c0.009-0.017,0.005-0.037,0.019-0.052  l1.261-1.406l-0.093-1.436l-0.483-0.596l-0.303,0.041l0.01,0.144c0,0.006-0.005,0.01-0.005,0.016c0,0.032-0.018,0.058-0.03,0.088  c-0.012,0.031-0.017,0.062-0.04,0.085c-0.004,0.004-0.003,0.011-0.007,0.015l-0.298,0.267c-0.003,0.003-0.008,0.001-0.012,0.004  c-0.044,0.036-0.097,0.06-0.155,0.06c-0.025,0-0.05-0.004-0.075-0.012l-0.447-0.141c-0.024-0.008-0.034-0.031-0.053-0.045  c-0.018-0.011-0.041-0.008-0.056-0.024l-0.115-0.125l-0.851-0.039c-0.018-0.001-0.029-0.017-0.045-0.021  c-0.039-0.009-0.079-0.014-0.11-0.042l-0.562-0.503l-0.586-0.065c-0.024-0.002-0.038-0.024-0.06-0.033  c-0.034-0.014-0.066-0.023-0.091-0.051c-0.02-0.021-0.024-0.047-0.036-0.074c-0.011-0.026-0.033-0.045-0.035-0.074l-0.026-0.381  c0-0.007,0.006-0.012,0.007-0.02c0-0.007-0.007-0.012-0.006-0.02l0.006-0.065l-0.724-0.626l-1.875-0.101  c-0.008,0-0.012-0.008-0.019-0.009c-0.036-0.005-0.072-0.01-0.104-0.031l-1.153-0.749l-0.758,0.479  c-0.042,0.026-0.088,0.039-0.134,0.039c-0.02,0-0.04-0.002-0.06-0.007l-3.969-0.981c-0.029-0.007-0.043-0.033-0.066-0.049  c-0.028-0.018-0.058-0.029-0.076-0.056c-0.018-0.026-0.017-0.058-0.024-0.089c-0.006-0.028-0.026-0.051-0.022-0.081l0.108-0.847  l-3-3.405l-0.158,0.143l1.938,2.581c0.016,0.021,0.01,0.046,0.018,0.069c0.012,0.031,0.025,0.057,0.023,0.09  c-0.001,0.033-0.016,0.057-0.029,0.086c-0.01,0.023-0.006,0.05-0.024,0.069L26.997,31.4c-0.004,0.005-0.011,0.003-0.016,0.007  c-0.005,0.005-0.003,0.013-0.009,0.018c-0.047,0.041-0.105,0.06-0.163,0.06c-0.059,0-0.118-0.021-0.166-0.063  c-0.005-0.004-0.004-0.012-0.008-0.017c-0.004-0.004-0.012-0.002-0.016-0.007l-2.382-2.781c-0.006-0.008-0.003-0.018-0.009-0.026  c-0.009-0.013-0.023-0.02-0.029-0.034l-0.42-0.938c-0.012-0.027,0-0.055-0.002-0.083c-0.002-0.029-0.019-0.055-0.011-0.085  l0.019-0.068l-0.716-0.077c-0.01-0.001-0.015-0.011-0.025-0.014c-0.045-0.01-0.083-0.031-0.117-0.064  c-0.013-0.013-0.023-0.023-0.033-0.038c-0.008-0.012-0.021-0.018-0.027-0.031L22,25.208c-0.012-0.027,0-0.055-0.002-0.084  c-0.002-0.028-0.019-0.053-0.011-0.082l0.782-2.961l-0.656-1.311l-0.269-0.503l-1.407,0.035C12.272,28.283,7.19,39.408,7.19,51.701  c0,17.818,10.67,33.183,25.951,40.066l0.06-0.221l-2.056-2.52c-0.005-0.006-0.002-0.016-0.006-0.021  c-0.007-0.011-0.019-0.016-0.025-0.027l-1.839-3.811c-0.005-0.01,0.001-0.021-0.002-0.031c-0.011-0.031-0.007-0.059-0.005-0.092  s0.002-0.061,0.017-0.091c0.005-0.011,0-0.021,0.006-0.03l1.962-3.016c0.016-0.023,0.044-0.027,0.065-0.044  c0.022-0.018,0.033-0.045,0.061-0.055l5.005-1.778l5.501-3.143c0.015-0.009,0.032-0.002,0.048-0.006  c0.016-0.006,0.024-0.022,0.041-0.025l4.246-0.592l1.806-2.014l-1.75-2.641c-0.008-0.014-0.002-0.027-0.008-0.041  c-0.014-0.031-0.017-0.057-0.018-0.09c-0.001-0.034,0-0.061,0.012-0.092c0.005-0.014-0.002-0.028,0.005-0.041  c0.01-0.018,0.032-0.021,0.045-0.035c0.014-0.015,0.016-0.037,0.033-0.049c0.013-0.008,0.028-0.002,0.042-0.008  c0.03-0.014,0.056-0.016,0.089-0.017c0.033-0.001,0.06,0,0.09,0.012c0.014,0.005,0.029-0.002,0.042,0.005l2.26,1.305  c0.011,0.007,0.011,0.02,0.021,0.027s0.023,0.005,0.032,0.014l4.785,4.838l2.891,1.666l6.004,0.836c0.004,0,0.006,0.004,0.01,0.006  c0.004,0,0.008-0.004,0.012-0.002l5.107,1.164c0.02,0.005,0.027,0.023,0.045,0.033c0.018,0.008,0.037,0.002,0.053,0.014l3.027,2.381  h0.001l2.295,1.732c0.019,0.015,0.019,0.038,0.032,0.056c0.021,0.026,0.037,0.048,0.047,0.079c0.009,0.031,0.006,0.059,0.002,0.092  c-0.002,0.021,0.01,0.042,0.002,0.063l-1.186,3.083l1.134,0.516c0.017,0.008,0.021,0.025,0.034,0.036  c0.014,0.01,0.032,0.007,0.045,0.021c0.012,0.013,0.008,0.031,0.018,0.047c0.018,0.028,0.027,0.053,0.032,0.085  c0.005,0.033,0.005,0.06-0.003,0.093c-0.004,0.017,0.006,0.033-0.002,0.05c-0.01,0.021-0.029,0.032-0.043,0.05  c-0.007,0.008-0.005,0.021-0.014,0.029l-0.152,0.144c9.477-5.501,16.723-14.435,20.009-25.095l-0.078-0.127l-0.569-0.181  c-0.027-0.009-0.039-0.035-0.062-0.052c-0.026-0.02-0.054-0.032-0.07-0.061c-0.018-0.027-0.016-0.059-0.021-0.092  c-0.005-0.027-0.022-0.049-0.018-0.076l0.131-0.764c0-0.001,0.002-0.001,0.002-0.002c0-0.002-0.001-0.004-0.001-0.005l0.162-0.802  l0.043-2.159c0-0.003,0.004-0.005,0.004-0.009c0.001-0.004-0.003-0.007-0.003-0.011l0.271-2.769l0.132-2.703  c0-0.006,0.008-0.01,0.009-0.018c0-0.006-0.005-0.012-0.004-0.018l0.43-2.207c0.002-0.01,0.012-0.014,0.015-0.023  s-0.003-0.02,0.001-0.028l0.473-1.088l-0.142-1.423c0,0,0,0,0,0l-0.312-2.142l-0.577-2.567c-0.003-0.012,0.007-0.022,0.006-0.035  c-0.001-0.013-0.013-0.021-0.012-0.034l0.086-1.522l-0.187-0.771l-0.33-0.217c-0.004-0.002-0.003-0.007-0.007-0.01  c-0.048-0.035-0.086-0.084-0.1-0.147v0c0-0.001-0.001-0.002-0.001-0.003l-0.27-1.257l-0.226-0.357l-0.718,0.223  C91.14,41.169,91.114,41.172,91.09,41.172z"/><text x="0" y="115" fill="#000000" font-size="5px" font-weight="bold" font-family="'Helvetica Neue', Helvetica, Arial-Unicode, Arial, Sans-serif">Created by Lluisa Iborra</text><text x="0" y="120" fill="#000000" font-size="5px" font-weight="bold" font-family="'Helvetica Neue', Helvetica, Arial-Unicode, Arial, Sans-serif">from the Noun Project</text></svg>