<?xml version="1.0" encoding="utf-8"?>
<!-- Generator: Adobe Illustrator 21.1.0, SVG Export Plug-In . SVG Version: 6.00 Build 0)  -->
<svg version="1.1" id="Layer_1" xmlns="http://www.w3.org/2000/svg" xmlns:xlink="http://www.w3.org/1999/xlink" x="0px" y="0px"
	 viewBox="0 0 400 200" style="enable-background:new 0 0 400 200;" xml:space="preserve">
<style type="text/css">
	.st0{display:none;fill:#00897B;}
	.st1{fill:none;stroke:#004D40;stroke-miterlimit:10;}
	.st2{fill:#00897B;}
	.st3{fill:none;}
	.st4{fill:#AC061B;}
	.st5{fill:#FFFFFF;}
	.st6{fill:#F7941D;}
	.st7{fill:#80CBC4;}
	.st8{fill:#004D40;}
</style>
<rect class="st0" width="400" height="200"/>
<g id="ticks">
	<line class="st1" x1="170.9" y1="29.8" x2="229.1" y2="170.2"/>
	<line class="st1" x1="129.8" y1="129.1" x2="270.2" y2="70.9"/>
	<line class="st1" x1="129.8" y1="70.9" x2="270.2" y2="129.1"/>
	<line class="st1" x1="170.9" y1="170.2" x2="229.1" y2="29.8"/>
</g>
<circle class="st2" cx="200" cy="100" r="63.6"/>
<g id="dial">
	<circle class="st3" cx="200" cy="100" r="76"/>
	<g>
		<polygon class="st4" points="199.9,24 190.9,39.5 208.8,39.5 		"/>
	</g>
</g>
<g>
	<path class="st5" d="M21.6,15.1c-1.1,0-1.8,0-2.7,0c0,0.6,0.1,1.2,0.1,1.8c0,0.6,0,1-0.1,1.4c0.7,0,1.3,0,2.3,0c0.7,0,1.7,0,2.1,0
		c0,0.3,0,0.5,0,0.7c0,0.2,0,0.5,0,0.7c-0.4,0-1.4,0-2.2,0c-1,0-1.9,0-2.3-0.1c0,0.4,0.1,1,0.1,1.5c0,0.5,0,1.1-0.1,1.5
		c0.5,0,1.6-0.1,2.5-0.1c0.9,0,1.7,0,2.4,0c0,0.3,0,0.5,0,0.7c0,0.3,0,0.5,0,0.8c-0.6,0-2.1,0-3.2,0c-1.1,0-2.3,0-3.2,0
		c0-1.3,0.1-3.1,0.1-5.1c0-2.1,0-4.4-0.1-5.3c0.6,0,1.6,0,2.8,0c1.5,0,3.8,0,3.8,0c0,0.3,0,0.4,0,0.8c0,0.4,0,0.4,0,0.7
		C23.1,15.1,22.5,15.1,21.6,15.1z"/>
	<path class="st5" d="M30.4,24c-0.3,0-0.4,0-0.6,0c-0.1-0.4-0.2-0.7-0.2-1.1h-0.1c-0.3,0.9-0.8,1.3-1.9,1.3c-1.4,0-2.3-0.8-2.3-2.1
		c0-1.7,1.3-2.3,3.8-2.3c0,0,0.3,0,0.4,0v-0.4c0-1.1-0.4-1.4-1.5-1.4c-1,0-1.8,0.3-2.2,0.9c0-0.4-0.1-1.1-0.2-1.3
		c0.5-0.6,1.2-1.1,2.4-1.1c1.6,0,2.9,0.6,2.9,2.8v2.7c0,0.6,0,1.2,0.2,1.9C30.7,24,30.6,24,30.4,24z M29.4,20.8
		c-0.4,0.1-0.8,0-1.4,0.1c-0.8,0.1-1.3,0.4-1.3,1c0,0.6,0.4,1,1.2,1c0.7,0,1.2-0.2,1.5-0.7V20.8z"/>
	<path class="st5" d="M37,18.4c-0.3-0.1-0.5-0.1-0.9-0.1c-0.8,0-1.3,0.3-1.7,1c0.1,0.5,0.1,1.3,0.1,1.9c0,1,0.1,2.2,0.1,2.8
		c-0.3,0-0.5,0-0.8,0s-0.5,0-0.8,0c0-1,0.1-1.8,0.1-3.1c0-2.3,0-2.8-0.1-4.1c0.3,0,0.5,0,0.6,0c0.2,0,0.4,0,0.7,0
		c0.1,0.4,0.1,0.9,0.1,1.3l0,0c0.5-1,1.1-1.4,2-1.4c0.3,0,0.4,0,0.7,0.1C37,17.4,37,17.8,37,18.4z"/>
	<path class="st5" d="M40.4,17L40.4,17c0.4-0.2,1.8,0,2.2-0.1c0,0.3,0,0.6,0,0.8c0,0.2,0,0.4,0,0.7c-0.8-0.1-1.7,0-2.2-0.2l0,0.1
		c0.1,0.6,0.1,2.1,0.1,3c0,1.2,0.2,1.4,1.2,1.4c0.3,0,0.6,0,0.9-0.1c0,0.3,0,0.4,0,0.6c0,0.3,0,0.4,0.1,0.7
		c-0.4,0.1-0.8,0.2-1.3,0.2c-1.6,0-2.2-0.8-2.2-2.3c0-1,0.1-2.3,0.2-3.6l0,0c-0.4,0.2-1.1,0.1-1.6,0.2c0-0.3,0-0.5,0-0.8
		c0-0.2,0-0.5,0-0.7c0.6,0.1,1.2,0,1.6,0.1c0,0,0,0,0,0c-0.1-0.3-0.1-1.1-0.1-1.4c0.7,0,1-0.1,1.4-0.2C40.4,15.9,40.5,16.3,40.4,17z
		"/>
	<path class="st5" d="M45.7,24c-0.2,0-0.5,0-0.7,0c-0.3,0-0.5,0-0.8,0c0-0.9,0.1-2.9,0.1-4.3c0-2.7,0-5.3-0.1-6.1c0.2,0,0.4,0,0.7,0
		c0.4,0,0.6,0,0.8,0c0,0.6-0.1,1.6-0.1,2.1c0,0.7,0,1.6-0.1,2.3c0,0,0,0,0,0c0.5-0.9,1.1-1.3,2-1.3c2.3,0,2.5,1.5,2.5,3.6
		c0,1.1,0,2.6,0,3.8c-0.3,0-0.6,0-0.7,0c-0.2,0-0.5,0-0.8,0c0-1.2,0-2.8,0-3.5c0-1.7,0-2.4-1.4-2.4c-0.8,0-1.2,0.2-1.7,0.8
		c0,0.6,0,1.4,0,2.3C45.7,22.1,45.7,23.3,45.7,24z"/>
	<path class="st5" d="M53.8,16.4c-0.4,0-0.6,0-1,0c-0.3,0-0.6,0-1.1,0c0.7-0.7,1.1-1.3,1.2-1.6c0.1-0.2,0.2-0.8,0.2-1.2
		c0.3,0,0.6,0,0.9,0c0.3,0,0.5,0,0.8,0L53.8,16.4z"/>
	<path class="st5" d="M58.5,24.2c-0.7,0-1.5-0.2-1.9-0.5c0.1-0.4,0.1-0.9,0.1-1.3c0.5,0.3,1.1,0.4,1.7,0.4c1,0,1.4-0.3,1.4-0.9
		c0-0.6-0.3-0.8-1.4-0.9c-1.5-0.2-2.1-0.8-2.1-1.9c0-1.4,1.1-2.4,2.9-2.4c0.8,0,1.4,0.2,1.9,0.6C61,17.7,61,18.1,61,18.5
		c-0.5-0.3-1-0.4-1.7-0.4c-1,0-1.5,0.3-1.5,0.9c0,0.6,0.2,0.7,1.5,0.9c1.4,0.2,2,0.7,2,1.9C61.2,23.2,60.2,24.2,58.5,24.2z"/>
	<path class="st5" d="M69.1,24.2c-2,0-3.5-1.6-3.5-3.9c0-2.2,1.4-3.7,3.5-3.7s3.5,1.5,3.5,3.7C72.6,22.6,71.1,24.2,69.1,24.2z
		 M69.1,18c-1.4,0-2.1,0.9-2.1,2.3c0,1.4,0.7,2.5,2.1,2.5s2.1-1.1,2.1-2.5C71.2,18.9,70.5,18,69.1,18z"/>
	<path class="st5" d="M78.5,18.4c-0.3-0.1-0.5-0.1-0.9-0.1c-0.8,0-1.3,0.3-1.7,1c0.1,0.5,0.1,1.3,0.1,1.9c0,1,0.1,2.2,0.1,2.8
		c-0.3,0-0.5,0-0.8,0s-0.5,0-0.8,0c0-1,0.1-1.8,0.1-3.1c0-2.3,0-2.8-0.1-4.1c0.3,0,0.5,0,0.6,0c0.2,0,0.4,0,0.7,0
		c0.1,0.4,0.1,0.9,0.1,1.3l0,0c0.5-1,1.1-1.4,2-1.4c0.3,0,0.4,0,0.7,0.1C78.5,17.4,78.5,17.8,78.5,18.4z"/>
	<path class="st5" d="M82.9,24.2c-1,0-1.6-0.2-2.3-0.5c-0.2-0.1-0.6-0.3-0.8-0.3c0-1.5,0-2.3,0-3.7c0-1.5,0-4.6-0.1-6.1
		c0.3,0,0.5,0,0.8,0c0.4,0,0.6,0,0.8,0c0,0.6-0.1,1.9-0.1,2.5c0,0.9,0,1.1-0.1,1.5l0,0c0.6-0.8,1.3-1.1,2.3-1.1c1.9,0,3,1.2,3,3.7
		C86.5,22.4,85.1,24.2,82.9,24.2z M83.1,18.1c-0.9,0-1.4,0.3-1.6,0.4c-0.2,0.1-0.3,0.2-0.4,0.2c0,0.6,0,1.1,0,1.7c0,0.7,0,1.5,0,2.1
		c0.1,0,0.3,0.1,0.5,0.1c0.4,0.1,0.7,0.2,1.2,0.2c1.3,0,2.2-1.1,2.2-2.5C85.1,18.8,84.5,18.1,83.1,18.1z"/>
	<path class="st5" d="M90.1,14.4c0,0.3,0,0.4,0,0.8c-0.3,0-0.6,0-0.9,0c-0.3,0-0.6,0-1,0c0-0.4,0-0.4,0-0.7c0-0.4,0-0.5,0-0.8
		c0.4,0,0.5,0,1,0c0.4,0,0.6,0,1,0C90.1,14,90.1,14.1,90.1,14.4z M89.9,20.7c0,1.1,0,3.3,0,3.3c-0.3,0-0.5,0-0.7,0
		c-0.3,0-0.5,0-0.8,0c0,0,0-2.2,0-3.3c0-1.5,0-2.7-0.1-3.9c0.3,0,0.5,0,0.8,0c0.3,0,0.5,0,0.8,0C90,18,89.9,19.2,89.9,20.7z"/>
	<path class="st5" d="M94.3,17L94.3,17c0.4-0.2,1.8,0,2.2-0.1c0,0.3,0,0.6,0,0.8c0,0.2,0,0.4,0,0.7c-0.8-0.1-1.7,0-2.2-0.2l0,0.1
		c0.1,0.6,0.1,2.1,0.1,3c0,1.2,0.2,1.4,1.2,1.4c0.3,0,0.6,0,0.9-0.1c0,0.3,0,0.4,0,0.6c0,0.3,0,0.4,0.1,0.7
		c-0.4,0.1-0.8,0.2-1.3,0.2c-1.6,0-2.2-0.8-2.2-2.3c0-1,0.1-2.3,0.2-3.6l0,0c-0.4,0.2-1.1,0.1-1.6,0.2c0-0.3,0-0.5,0-0.8
		c0-0.2,0-0.5,0-0.7c0.6,0.1,1.2,0,1.6,0.1c0,0,0,0,0,0C93,16.7,93,15.8,93,15.5c0.7,0,1-0.1,1.4-0.2C94.3,15.9,94.4,16.3,94.3,17z"
		/>
	<path class="st5" d="M103,24c-0.3,0-0.4,0-0.6,0c-0.1-0.4-0.2-0.7-0.2-1.1h-0.1c-0.3,0.9-0.8,1.3-1.9,1.3c-1.4,0-2.3-0.8-2.3-2.1
		c0-1.7,1.3-2.3,3.8-2.3c0,0,0.3,0,0.4,0v-0.4c0-1.1-0.4-1.4-1.5-1.4c-1,0-1.8,0.3-2.2,0.9c0-0.4-0.1-1.1-0.2-1.3
		c0.5-0.6,1.2-1.1,2.4-1.1c1.6,0,2.9,0.6,2.9,2.8v2.7c0,0.6,0,1.2,0.2,1.9C103.3,24,103.2,24,103,24z M102,20.8
		c-0.4,0.1-0.8,0-1.4,0.1c-0.8,0.1-1.3,0.4-1.3,1c0,0.6,0.4,1,1.2,1c0.7,0,1.2-0.2,1.5-0.7V20.8z"/>
	<path class="st5" d="M107.1,20.1c0,0.8,0,1.8,0.1,3.9c-0.3,0-0.4,0-0.8,0c-0.3,0-0.6,0-0.8,0c0.1-2.1,0.1-3.1,0.1-3.9
		c0-2.4,0-5.5-0.1-6.5c0.3,0,0.4,0,0.8,0c0.4,0,0.5,0,0.9,0C107.2,14.6,107.1,17.8,107.1,20.1z"/>
	<path class="st5" d="M117.6,18.8c-0.5-0.5-1-0.7-1.9-0.7c-1.4,0-2.2,0.9-2.2,2.3c0,1.4,0.9,2.4,2.2,2.4c0.8,0,1.3-0.2,1.8-0.6
		c0,0.1,0,0.8,0.1,1.3c-0.6,0.5-1.2,0.7-1.9,0.7c-2.2,0-3.6-1.6-3.6-3.8c0-2.2,1.5-3.8,3.6-3.8c0.9,0,1.6,0.2,2,0.8
		C117.7,17.8,117.6,18.5,117.6,18.8z"/>
	<path class="st5" d="M120.7,24c-0.2,0-0.5,0-0.7,0c-0.3,0-0.5,0-0.8,0c0-0.9,0.1-2.9,0.1-4.3c0-2.7,0-5.3-0.1-6.1
		c0.2,0,0.4,0,0.7,0c0.4,0,0.6,0,0.8,0c0,0.6-0.1,1.6-0.1,2.1c0,0.7,0,1.6-0.1,2.3c0,0,0,0,0,0c0.5-0.9,1.1-1.3,2-1.3
		c2.3,0,2.5,1.5,2.5,3.6c0,1.1,0,2.6,0,3.8c-0.3,0-0.6,0-0.7,0c-0.2,0-0.5,0-0.8,0c0-1.2,0-2.8,0-3.5c0-1.7,0-2.4-1.4-2.4
		c-0.8,0-1.2,0.2-1.7,0.8c0,0.6,0,1.4,0,2.3C120.7,22.1,120.7,23.3,120.7,24z"/>
	<path class="st5" d="M132.1,24c-0.3,0-0.4,0-0.6,0c-0.1-0.4-0.2-0.7-0.2-1.1h-0.1c-0.3,0.9-0.8,1.3-1.9,1.3c-1.4,0-2.3-0.8-2.3-2.1
		c0-1.7,1.3-2.3,3.8-2.3c0,0,0.3,0,0.4,0v-0.4c0-1.1-0.4-1.4-1.5-1.4c-1,0-1.8,0.3-2.2,0.9c0-0.4-0.1-1.1-0.2-1.3
		c0.5-0.6,1.2-1.1,2.4-1.1c1.6,0,2.9,0.6,2.9,2.8v2.7c0,0.6,0,1.2,0.2,1.9C132.5,24,132.4,24,132.1,24z M131.2,20.8
		c-0.4,0.1-0.8,0-1.4,0.1c-0.8,0.1-1.3,0.4-1.3,1c0,0.6,0.4,1,1.2,1c0.7,0,1.2-0.2,1.5-0.7V20.8z"/>
	<path class="st5" d="M139.9,24c-0.2,0-0.5,0-0.8,0c0-1.2,0-2.9,0-3.7c0-1.5,0-2.2-1.4-2.2c-0.8,0-1.2,0.2-1.6,0.7
		c0,0.6,0,1.4,0,2.3c0,1,0,2.1,0.1,2.8c-0.2,0-0.5,0-0.8,0c-0.2,0-0.4,0-0.7,0c0-0.9,0-1.7,0-2.9c0-1.8,0-3.1-0.1-4.2
		c0,0,0.4,0,0.6,0s0.6,0,0.6,0c0,0.4,0.1,0.5,0.1,1.1c0,0,0,0,0,0c0.5-1,1.1-1.4,2.1-1.4c2.4,0,2.4,1.8,2.4,3.4c0,1.1,0,2.8,0,3.9
		C140.3,24,140.1,24,139.9,24z"/>
	<path class="st5" d="M148.8,20.1v3.4c0,2.1-1.2,3.4-3.3,3.4c-0.6,0-1.2-0.1-1.7-0.3c0.1-0.5,0.1-0.9,0.1-1.3c0.5,0.2,1,0.2,1.6,0.2
		c1.4,0,2-0.7,2-2v-0.4c0-0.2,0-0.5,0-0.7l0,0c-0.3,0.7-0.9,1.2-1.9,1.2c-1.9,0-3.2-1.5-3.2-3.4c0-2,1.2-3.5,3.2-3.5
		c1,0,1.6,0.3,2.1,1.1l0,0c0.1-0.4,0.1-0.6,0.2-0.9c0.2,0,0.3,0,0.5,0c0.2,0,0.4,0,0.5,0C148.8,17.8,148.8,19.3,148.8,20.1z
		 M145.6,18.1c-1.3,0-1.9,0.8-1.9,2c0,1.3,0.7,2,1.9,2c0.9,0,1.5-0.4,1.7-0.8c0-0.3,0-0.6,0-1.2c0-0.4,0-1.1,0.1-1.6
		C147.1,18.3,146.6,18.1,145.6,18.1z"/>
	<path class="st5" d="M153.4,21c-0.5,0-1.1,0-1.3-0.1c0.1,1.3,1,1.9,2.3,1.9c0.9,0,1.7-0.2,2.2-0.5c0,0.3,0.1,0.8,0.1,1.2
		c-0.4,0.4-1.2,0.7-2.3,0.7c-2.3,0-3.7-1.4-3.7-3.8c0-2.2,1.3-3.8,3.3-3.8c2,0,3.1,1.1,3.1,4V21C155.7,21,153.4,21,153.4,21z
		 M154,18c-1.3,0-1.9,0.7-1.9,1.9c0.7-0.1,1.3-0.1,1.9-0.1c0.6,0,1.2,0,1.8,0.1C155.8,18.6,155.2,18,154,18z"/>
	<path class="st5" d="M160.6,24.2c-0.7,0-1.5-0.2-1.9-0.5c0.1-0.4,0.1-0.9,0.1-1.3c0.5,0.3,1.1,0.4,1.7,0.4c1,0,1.4-0.3,1.4-0.9
		c0-0.6-0.3-0.8-1.4-0.9c-1.5-0.2-2.1-0.8-2.1-1.9c0-1.4,1.1-2.4,2.9-2.4c0.8,0,1.4,0.2,1.9,0.6c-0.1,0.4-0.2,0.8-0.2,1.3
		c-0.5-0.3-1-0.4-1.7-0.4c-1,0-1.5,0.3-1.5,0.9c0,0.6,0.2,0.7,1.5,0.9c1.4,0.2,2,0.7,2,1.9C163.3,23.2,162.4,24.2,160.6,24.2z"/>
</g>
<g>
	<path class="st5" d="M9.2,75.2c-1.1,0-2.1-0.2-2.8-0.8c0.1-0.5,0.1-1,0.2-1.4c0.7,0.5,1.6,0.8,2.6,0.8c1.3,0,2.1-0.5,2.1-1.7
		c0-0.7-0.4-1.2-2.2-1.5C6.7,70.1,6,69.1,6,67.7c0-1.8,1.5-3.2,3.8-3.2c1.2,0,2.2,0.3,2.9,0.9c-0.1,0.4-0.2,0.9-0.2,1.4
		c-0.6-0.5-1.6-0.8-2.7-0.8c-1.6,0-2.3,0.6-2.3,1.6c0,0.8,0.3,1.3,2.3,1.6c2.2,0.4,3,1.2,3,2.7C12.7,74,11.3,75.2,9.2,75.2z"/>
	<path class="st5" d="M17.7,75.2c-2,0-3.5-1.6-3.5-3.9c0-2.2,1.4-3.7,3.5-3.7s3.5,1.5,3.5,3.7C21.2,73.6,19.7,75.2,17.7,75.2z
		 M17.7,69c-1.4,0-2.1,0.9-2.1,2.3c0,1.4,0.7,2.5,2.1,2.5s2.1-1.1,2.1-2.5C19.8,69.9,19.1,69,17.7,69z"/>
	<path class="st5" d="M24.6,71.1c0,0.8,0,1.8,0.1,3.9c-0.3,0-0.4,0-0.8,0c-0.3,0-0.6,0-0.8,0c0.1-2.1,0.1-3.1,0.1-3.9
		c0-2.4,0-5.5-0.1-6.5c0.3,0,0.4,0,0.8,0c0.4,0,0.5,0,0.9,0C24.7,65.6,24.6,68.8,24.6,71.1z"/>
	<path class="st5" d="M31.8,75c-0.3,0-0.4,0-0.6,0c-0.1-0.4-0.2-0.7-0.2-1.1h-0.1c-0.3,0.9-0.8,1.3-1.9,1.3c-1.4,0-2.3-0.8-2.3-2.1
		c0-1.7,1.3-2.3,3.8-2.3c0,0,0.3,0,0.4,0v-0.4c0-1.1-0.4-1.4-1.5-1.4c-1,0-1.8,0.3-2.2,0.9c0-0.4-0.1-1.1-0.2-1.3
		c0.5-0.6,1.2-1.1,2.4-1.1c1.6,0,2.9,0.6,2.9,2.8v2.7c0,0.6,0,1.2,0.2,1.9C32.2,75,32.1,75,31.8,75z M30.8,71.8
		c-0.4,0.1-0.8,0-1.4,0.1c-0.8,0.1-1.3,0.4-1.3,1c0,0.6,0.4,1,1.2,1c0.7,0,1.2-0.2,1.5-0.7V71.8z"/>
	<path class="st5" d="M38.5,69.4c-0.3-0.1-0.5-0.1-0.9-0.1c-0.8,0-1.3,0.3-1.7,1c0.1,0.5,0.1,1.3,0.1,1.9c0,1,0.1,2.2,0.1,2.8
		c-0.3,0-0.5,0-0.8,0s-0.5,0-0.8,0c0-1,0.1-1.8,0.1-3.1c0-2.3,0-2.8-0.1-4.1c0.3,0,0.5,0,0.6,0c0.2,0,0.4,0,0.7,0
		c0.1,0.4,0.1,0.9,0.1,1.3l0,0c0.5-1,1.1-1.4,2-1.4c0.3,0,0.4,0,0.7,0.1C38.5,68.4,38.5,68.8,38.5,69.4z"/>
	<path class="st5" d="M44.6,68L44.6,68c0.4-0.2,1.8,0,2.2-0.1c0,0.3,0,0.6,0,0.8c0,0.2,0,0.4,0,0.7c-0.8-0.1-1.7,0-2.2-0.2l0,0.1
		c0.1,0.6,0.1,2.1,0.1,3c0,1.2,0.2,1.4,1.2,1.4c0.3,0,0.6,0,0.9-0.1c0,0.3,0,0.4,0,0.6c0,0.3,0,0.4,0.1,0.7
		c-0.4,0.1-0.8,0.2-1.3,0.2c-1.6,0-2.2-0.8-2.2-2.3c0-1,0.1-2.3,0.2-3.6l0,0c-0.4,0.2-1.1,0.1-1.6,0.2c0-0.3,0-0.5,0-0.8
		c0-0.2,0-0.5,0-0.7c0.6,0.1,1.2,0,1.6,0.1c0,0,0,0,0,0c-0.1-0.3-0.1-1.1-0.1-1.4c0.7,0,1-0.1,1.4-0.2C44.7,66.9,44.8,67.3,44.6,68z
		"/>
	<path class="st5" d="M50.7,72c-0.5,0-1.1,0-1.3-0.1c0.1,1.3,1,1.9,2.3,1.9c0.9,0,1.7-0.2,2.2-0.5c0,0.3,0.1,0.8,0.1,1.2
		c-0.4,0.4-1.2,0.7-2.3,0.7c-2.3,0-3.7-1.4-3.7-3.8c0-2.2,1.3-3.8,3.3-3.8c2,0,3.1,1.1,3.1,4V72C53.1,72,50.7,72,50.7,72z M51.3,69
		c-1.3,0-1.9,0.7-1.9,1.9c0.7-0.1,1.3-0.1,1.9-0.1c0.6,0,1.2,0,1.8,0.1C53.1,69.6,52.5,69,51.3,69z"/>
	<path class="st5" d="M65.3,75c-0.3,0-0.5,0-0.8,0c0-1.1,0.1-2.7,0.1-3.9c0-1.3-0.1-2-1.3-2c-0.6,0-1.1,0.2-1.5,0.6
		c0,0.7,0,1.5,0,2.3c0,1.1,0,2.1,0.1,2.9c-0.3,0-0.4,0-0.8,0c-0.3,0-0.5,0-0.7,0c0-0.8,0.1-2.7,0.1-3.9c0-1.4,0-2-1.3-2
		c-0.7,0-1.1,0.3-1.4,0.7c0,0.1,0,0.7,0,2.3c0,1.1,0,1.7,0.1,2.9c-0.3,0-0.4,0-0.7,0c-0.2,0-0.5,0-0.8,0c0-1.3,0-2.4,0-3.6
		c0-1.2,0-2.6,0-3.5c0.3,0,0.4,0,0.7,0c0.2,0,0.3,0,0.6,0c0,0.3,0.1,0.8,0.1,1.1l0,0c0.6-1,1-1.3,2-1.3c1,0,1.6,0.4,1.9,1.3
		c0.4-0.9,1.1-1.3,2.1-1.3c2,0,2.3,1.3,2.3,3.2c0,1.2,0,3.2,0.1,4.1C65.8,75,65.6,75,65.3,75z"/>
	<path class="st5" d="M71.5,75.2c-0.8,0-1.3-0.2-1.9-1l-0.1,0c0,0.5,0,1,0,1.9c0,0.7,0,1,0,1.6c-0.2,0-0.5,0-0.7,0s-0.5,0-0.8,0
		c0.1-1.3,0.1-3.4,0.1-5.5c0-1.8,0-3.3-0.1-4.4c0.3,0,0.4,0,0.6,0c0.2,0,0.4,0,0.6,0c0.1,0.3,0.1,0.7,0.1,1.1l0,0
		c0.4-0.8,1.1-1.4,2.2-1.4c2,0,3.1,1.3,3.1,3.6C74.9,73.4,73.5,75.2,71.5,75.2z M71.6,69.1c-0.9,0-1.5,0.3-2.1,0.9
		c0,0.4,0.1,1,0.1,1.6c0,0.6,0,1.2-0.1,1.7c0.1,0,0.2,0.1,0.3,0.1c0.6,0.4,1.1,0.5,1.6,0.5c1.2,0,2.1-1.1,2.1-2.5
		C73.5,69.8,72.8,69.1,71.6,69.1z"/>
	<path class="st5" d="M79,72c-0.5,0-1.1,0-1.3-0.1c0.1,1.3,1,1.9,2.3,1.9c0.9,0,1.7-0.2,2.2-0.5c0,0.3,0.1,0.8,0.1,1.2
		c-0.4,0.4-1.2,0.7-2.3,0.7c-2.3,0-3.7-1.4-3.7-3.8c0-2.2,1.3-3.8,3.3-3.8c2,0,3.1,1.1,3.1,4V72C81.3,72,79,72,79,72z M79.6,69
		c-1.3,0-1.9,0.7-1.9,1.9c0.7-0.1,1.3-0.1,1.9-0.1c0.6,0,1.2,0,1.8,0.1C81.4,69.6,80.8,69,79.6,69z"/>
	<path class="st5" d="M88.7,69.4c-0.3-0.1-0.5-0.1-0.9-0.1c-0.8,0-1.3,0.3-1.7,1c0.1,0.5,0.1,1.3,0.1,1.9c0,1,0.1,2.2,0.1,2.8
		c-0.3,0-0.5,0-0.8,0s-0.5,0-0.8,0c0-1,0.1-1.8,0.1-3.1c0-2.3,0-2.8-0.1-4.1c0.3,0,0.5,0,0.6,0c0.2,0,0.4,0,0.7,0
		c0.1,0.4,0.1,0.9,0.1,1.3l0,0c0.5-1,1.1-1.4,2-1.4c0.3,0,0.4,0,0.7,0.1C88.7,68.4,88.7,68.8,88.7,69.4z"/>
	<path class="st5" d="M94.8,75c-0.3,0-0.4,0-0.6,0c-0.1-0.4-0.2-0.7-0.2-1.1h-0.1c-0.3,0.9-0.8,1.3-1.9,1.3c-1.4,0-2.3-0.8-2.3-2.1
		c0-1.7,1.3-2.3,3.8-2.3c0,0,0.3,0,0.4,0v-0.4c0-1.1-0.4-1.4-1.5-1.4c-1,0-1.8,0.3-2.2,0.9c0-0.4-0.1-1.1-0.2-1.3
		c0.5-0.6,1.2-1.1,2.4-1.1c1.6,0,2.9,0.6,2.9,2.8v2.7c0,0.6,0,1.2,0.2,1.9C95.1,75,95,75,94.8,75z M93.8,71.8
		c-0.4,0.1-0.8,0-1.4,0.1c-0.8,0.1-1.3,0.4-1.3,1c0,0.6,0.4,1,1.2,1c0.7,0,1.2-0.2,1.5-0.7V71.8z"/>
	<path class="st5" d="M99.2,68L99.2,68c0.4-0.2,1.8,0,2.2-0.1c0,0.3,0,0.6,0,0.8c0,0.2,0,0.4,0,0.7c-0.8-0.1-1.7,0-2.2-0.2l0,0.1
		c0.1,0.6,0.1,2.1,0.1,3c0,1.2,0.2,1.4,1.2,1.4c0.3,0,0.6,0,0.9-0.1c0,0.3,0,0.4,0,0.6c0,0.3,0,0.4,0.1,0.7
		c-0.4,0.1-0.8,0.2-1.3,0.2c-1.6,0-2.2-0.8-2.2-2.3c0-1,0.1-2.3,0.2-3.6l0,0c-0.4,0.2-1.1,0.1-1.6,0.2c0-0.3,0-0.5,0-0.8
		c0-0.2,0-0.5,0-0.7c0.6,0.1,1.2,0,1.6,0.1c0,0,0,0,0,0c-0.1-0.3-0.1-1.1-0.1-1.4c0.7,0,1-0.1,1.4-0.2C99.2,66.9,99.3,67.3,99.2,68z
		"/>
	<path class="st5" d="M108.8,71.7c0,1.2,0,2,0.1,3.3c-0.2,0-0.4,0-0.6,0c-0.3,0-0.5,0-0.7,0c0-0.4,0-0.8,0-1.1l0,0
		c-0.4,0.8-1,1.4-1.9,1.4c-1.8,0-2.6-1.1-2.6-3.2c0-1.8,0-3.7-0.1-4.2c0.3,0,0.5,0,0.7,0c0.3,0,0.6,0,0.8,0c-0.1,1.2-0.1,3-0.1,3.9
		c0,1.7,0.5,2,1.4,2c0.8,0,1.2-0.3,1.6-0.8c0-0.6,0-1.4,0-2.4c0-0.7,0-1.8-0.1-2.7c0.3,0,0.6,0,0.8,0c0.2,0,0.5,0,0.7,0
		C108.9,68.9,108.8,70.6,108.8,71.7z"/>
	<path class="st5" d="M115.2,69.4c-0.3-0.1-0.5-0.1-0.9-0.1c-0.8,0-1.3,0.3-1.7,1c0.1,0.5,0.1,1.3,0.1,1.9c0,1,0.1,2.2,0.1,2.8
		c-0.3,0-0.5,0-0.8,0s-0.5,0-0.8,0c0-1,0.1-1.8,0.1-3.1c0-2.3,0-2.8-0.1-4.1c0.3,0,0.5,0,0.6,0c0.2,0,0.4,0,0.7,0
		c0.1,0.4,0.1,0.9,0.1,1.3l0,0c0.5-1,1.1-1.4,2-1.4c0.3,0,0.4,0,0.7,0.1C115.2,68.4,115.2,68.8,115.2,69.4z"/>
	<path class="st5" d="M118.7,72c-0.5,0-1.1,0-1.3-0.1c0.1,1.3,1,1.9,2.3,1.9c0.9,0,1.7-0.2,2.2-0.5c0,0.3,0.1,0.8,0.1,1.2
		c-0.4,0.4-1.2,0.7-2.3,0.7c-2.3,0-3.7-1.4-3.7-3.8c0-2.2,1.3-3.8,3.3-3.8c2,0,3.1,1.1,3.1,4V72C121,72,118.7,72,118.7,72z
		 M119.3,69c-1.3,0-1.9,0.7-1.9,1.9c0.7-0.1,1.3-0.1,1.9-0.1c0.6,0,1.2,0,1.8,0.1C121.1,69.6,120.5,69,119.3,69z"/>
</g>
<g>
	<path class="st5" d="M24.5,128.1c-0.8,2-1.6,4-2,5c-0.2,0-0.3,0-0.5,0c-0.2,0-0.3,0-0.5,0c-0.4-1-1.2-3-2-5
		c-0.9-2.2-1.9-4.5-2.3-5.5c0.3,0,0.6,0,0.9,0c0.3,0,0.8,0,0.9,0c0.3,0.8,0.9,2.2,1.7,4.4c0.6,1.6,1.2,3.4,1.3,3.9H22
		c0.1-0.5,0.7-2.4,1.3-4c0.8-2.2,1.3-3.4,1.7-4.4c0.3,0,0.5,0,0.8,0c0.4,0,0.7,0,0.9,0C26.3,123.8,25.4,126,24.5,128.1z"/>
	<path class="st5" d="M30.3,133.2c-2,0-3.5-1.6-3.5-3.9c0-2.2,1.4-3.7,3.5-3.7s3.5,1.5,3.5,3.7C33.8,131.6,32.3,133.2,30.3,133.2z
		 M30.3,127c-1.4,0-2.1,0.9-2.1,2.3c0,1.4,0.7,2.5,2.1,2.5c1.4,0,2.1-1.1,2.1-2.5C32.4,127.9,31.7,127,30.3,127z"/>
	<path class="st5" d="M37.2,129.1c0,0.8,0,1.8,0.1,3.9c-0.3,0-0.4,0-0.8,0c-0.3,0-0.6,0-0.8,0c0.1-2.1,0.1-3.1,0.1-3.9
		c0-2.4,0-5.5-0.1-6.5c0.3,0,0.4,0,0.8,0c0.4,0,0.5,0,0.9,0C37.3,123.6,37.2,126.8,37.2,129.1z"/>
	<path class="st5" d="M44.7,127.8c-0.5-0.5-1-0.7-1.9-0.7c-1.4,0-2.2,0.9-2.2,2.3c0,1.4,0.9,2.4,2.2,2.4c0.8,0,1.3-0.2,1.8-0.6
		c0,0.1,0,0.8,0.1,1.3c-0.6,0.5-1.2,0.7-1.9,0.7c-2.2,0-3.6-1.6-3.6-3.8c0-2.2,1.5-3.8,3.6-3.8c0.9,0,1.6,0.2,2,0.8
		C44.8,126.8,44.8,127.5,44.7,127.8z"/>
	<path class="st5" d="M51.3,133c-0.3,0-0.4,0-0.6,0c-0.1-0.4-0.2-0.7-0.2-1.1h-0.1c-0.3,0.9-0.8,1.3-1.9,1.3c-1.4,0-2.3-0.8-2.3-2.1
		c0-1.7,1.3-2.3,3.8-2.3c0,0,0.3,0,0.4,0v-0.4c0-1.1-0.4-1.4-1.5-1.4c-1,0-1.8,0.3-2.2,0.9c0-0.4-0.1-1.1-0.2-1.3
		c0.5-0.6,1.2-1.1,2.4-1.1c1.6,0,2.9,0.6,2.9,2.8v2.7c0,0.6,0,1.2,0.2,1.9C51.7,133,51.5,133,51.3,133z M50.3,129.8
		c-0.4,0.1-0.8,0-1.4,0.1c-0.8,0.1-1.3,0.4-1.3,1c0,0.6,0.4,1,1.2,1c0.7,0,1.2-0.2,1.5-0.7V129.8z"/>
	<path class="st5" d="M59.1,133c-0.2,0-0.5,0-0.8,0c0-1.2,0-2.9,0-3.7c0-1.5,0-2.2-1.4-2.2c-0.8,0-1.2,0.2-1.6,0.7
		c0,0.6,0,1.4,0,2.3c0,1,0,2.1,0.1,2.8c-0.2,0-0.5,0-0.8,0c-0.2,0-0.4,0-0.7,0c0-0.9,0-1.7,0-2.9c0-1.8,0-3.1-0.1-4.2
		c0,0,0.4,0,0.6,0c0.3,0,0.6,0,0.6,0c0,0.4,0.1,0.5,0.1,1.1c0,0,0,0,0,0c0.5-1,1.1-1.4,2.1-1.4c2.4,0,2.4,1.8,2.4,3.4
		c0,1.1,0,2.8,0,3.9C59.5,133,59.2,133,59.1,133z"/>
	<path class="st5" d="M63.7,123.4c0,0.3,0,0.4,0,0.8c-0.3,0-0.6,0-0.9,0c-0.3,0-0.6,0-1,0c0-0.3,0-0.4,0-0.7c0-0.3,0-0.5,0-0.8
		c0.4,0,0.5,0,1,0c0.4,0,0.6,0,1,0C63.7,123,63.7,123.1,63.7,123.4z M63.5,129.7c0,1.1,0,3.3,0,3.3c-0.3,0-0.5,0-0.7,0
		c-0.3,0-0.5,0-0.8,0c0,0,0-2.2,0-3.3c0-1.5,0-2.7-0.1-3.9c0.3,0,0.5,0,0.8,0c0.3,0,0.5,0,0.8,0C63.6,127,63.5,128.2,63.5,129.7z"/>
	<path class="st5" d="M71.1,127.8c-0.5-0.5-1-0.7-1.9-0.7c-1.4,0-2.2,0.9-2.2,2.3c0,1.4,0.9,2.4,2.2,2.4c0.8,0,1.3-0.2,1.8-0.6
		c0,0.1,0,0.8,0.1,1.3c-0.6,0.5-1.2,0.7-1.9,0.7c-2.2,0-3.6-1.6-3.6-3.8c0-2.2,1.5-3.8,3.6-3.8c0.9,0,1.6,0.2,2,0.8
		C71.2,126.8,71.1,127.5,71.1,127.8z"/>
	<path class="st5" d="M80.6,133c-0.3,0-0.4,0-0.6,0c-0.1-0.4-0.2-0.7-0.2-1.1h-0.1c-0.3,0.9-0.8,1.3-1.9,1.3c-1.4,0-2.3-0.8-2.3-2.1
		c0-1.7,1.3-2.3,3.8-2.3c0,0,0.3,0,0.4,0v-0.4c0-1.1-0.4-1.4-1.5-1.4c-1,0-1.8,0.3-2.2,0.9c0-0.4-0.1-1.1-0.2-1.3
		c0.5-0.6,1.2-1.1,2.4-1.1c1.6,0,2.9,0.6,2.9,2.8v2.7c0,0.6,0,1.2,0.2,1.9C80.9,133,80.8,133,80.6,133z M79.6,129.8
		c-0.4,0.1-0.8,0-1.4,0.1c-0.8,0.1-1.3,0.4-1.3,1c0,0.6,0.4,1,1.2,1c0.7,0,1.2-0.2,1.5-0.7V129.8z"/>
	<path class="st5" d="M88.2,127.8c-0.5-0.5-1-0.7-1.9-0.7c-1.4,0-2.2,0.9-2.2,2.3c0,1.4,0.9,2.4,2.2,2.4c0.8,0,1.3-0.2,1.8-0.6
		c0,0.1,0,0.8,0.1,1.3c-0.6,0.5-1.2,0.7-1.9,0.7c-2.2,0-3.6-1.6-3.6-3.8c0-2.2,1.5-3.8,3.6-3.8c0.9,0,1.6,0.2,2,0.8
		C88.3,126.8,88.2,127.5,88.2,127.8z"/>
	<path class="st5" d="M91.9,126L91.9,126c0.4-0.2,1.8,0,2.2-0.1c0,0.3,0,0.6,0,0.8c0,0.2,0,0.4,0,0.7c-0.8-0.1-1.7,0-2.2-0.2l0,0.1
		c0.1,0.6,0.1,2.1,0.1,3c0,1.2,0.2,1.4,1.2,1.4c0.3,0,0.6,0,0.9-0.1c0,0.3,0,0.4,0,0.6c0,0.3,0,0.4,0.1,0.7
		c-0.4,0.1-0.8,0.2-1.3,0.2c-1.6,0-2.2-0.8-2.2-2.3c0-1,0.1-2.3,0.2-3.6l0,0c-0.4,0.2-1.1,0.1-1.6,0.2c0-0.3,0-0.5,0-0.8
		c0-0.2,0-0.5,0-0.7c0.6,0.1,1.2,0,1.6,0.1c0,0,0,0,0,0c-0.1-0.3-0.1-1.1-0.1-1.4c0.7,0,1-0.1,1.4-0.2C92,124.9,92.1,125.3,91.9,126
		z"/>
	<path class="st5" d="M97.6,123.4c0,0.3,0,0.4,0,0.8c-0.3,0-0.6,0-0.9,0c-0.3,0-0.6,0-1,0c0-0.3,0-0.4,0-0.7c0-0.3,0-0.5,0-0.8
		c0.4,0,0.5,0,1,0c0.4,0,0.6,0,1,0C97.6,123,97.6,123.1,97.6,123.4z M97.4,129.7c0,1.1,0,3.3,0,3.3c-0.3,0-0.5,0-0.7,0
		c-0.3,0-0.5,0-0.8,0c0,0,0-2.2,0-3.3c0-1.5,0-2.7-0.1-3.9c0.3,0,0.5,0,0.8,0c0.3,0,0.5,0,0.8,0C97.4,127,97.4,128.2,97.4,129.7z"/>
	<path class="st5" d="M104.2,129.4c-0.6,1.4-1.1,2.8-1.5,3.6c-0.2,0-0.3,0-0.5,0c-0.2,0-0.4,0-0.6,0c-0.3-0.9-0.9-2.2-1.5-3.6
		c-0.7-1.6-1.1-2.7-1.5-3.5c0.3,0,0.5,0,0.9,0c0.3,0,0.3,0,0.8,0c0.2,0.8,0.3,1.1,0.8,2.3c0.7,1.8,0.9,2.4,1,3.4h0.1
		c0.1-1,0.3-1.6,1-3.4c0.4-1.2,0.5-1.5,0.8-2.3c0.5,0,0.5,0,0.8,0c0.3,0,0.6,0,0.9,0C105.3,126.9,104.9,127.8,104.2,129.4z"/>
	<path class="st5" d="M108.7,123.4c0,0.3,0,0.4,0,0.8c-0.3,0-0.6,0-0.9,0c-0.3,0-0.6,0-1,0c0-0.3,0-0.4,0-0.7c0-0.3,0-0.5,0-0.8
		c0.4,0,0.5,0,1,0c0.4,0,0.6,0,1,0C108.7,123,108.7,123.1,108.7,123.4z M108.5,129.7c0,1.1,0,3.3,0,3.3c-0.3,0-0.5,0-0.7,0
		c-0.3,0-0.5,0-0.8,0c0,0,0-2.2,0-3.3c0-1.5,0-2.7-0.1-3.9c0.3,0,0.5,0,0.8,0c0.3,0,0.5,0,0.8,0C108.5,127,108.5,128.2,108.5,129.7z
		"/>
	<path class="st5" d="M112.8,126L112.8,126c0.4-0.2,1.8,0,2.2-0.1c0,0.3,0,0.6,0,0.8c0,0.2,0,0.4,0,0.7c-0.8-0.1-1.7,0-2.2-0.2
		l0,0.1c0.1,0.6,0.1,2.1,0.1,3c0,1.2,0.2,1.4,1.2,1.4c0.3,0,0.6,0,0.9-0.1c0,0.3,0,0.4,0,0.6c0,0.3,0,0.4,0.1,0.7
		c-0.4,0.1-0.8,0.2-1.3,0.2c-1.6,0-2.2-0.8-2.2-2.3c0-1,0.1-2.3,0.2-3.6l0,0c-0.4,0.2-1.1,0.1-1.6,0.2c0-0.3,0-0.5,0-0.8
		c0-0.2,0-0.5,0-0.7c0.6,0.1,1.2,0,1.6,0.1c0,0,0,0,0,0c-0.1-0.3-0.1-1.1-0.1-1.4c0.7,0,1-0.1,1.4-0.2
		C112.9,124.9,113,125.3,112.8,126z"/>
	<path class="st5" d="M120.6,131.7c-0.7,1.7-1.2,2.8-1.6,4.1c-0.2,0-0.4,0-0.7,0c-0.3,0-0.5,0-1,0c0.4-0.7,0.5-1,0.8-1.7
		c0.4-0.9,0.5-1,0.8-1.4c-0.4-0.8-1.2-2.5-1.9-3.9c-0.9-1.9-1.2-2.5-1.3-2.9c0.2,0,0.6,0,0.9,0c0.3,0,0.5,0,0.9,0
		c0.2,0.8,0.7,1.9,1.1,3c0.6,1.4,0.7,1.7,0.9,2.7l0,0c0.2-1,0.4-1.6,0.8-2.6c0.6-1.6,0.8-2.3,1-3c0.3,0,0.5,0,0.9,0s0.5,0,0.8,0
		C122.6,127,121.6,129.1,120.6,131.7z"/>
</g>
<g>
	<path class="st5" d="M57.8,184c-0.3,0-0.5,0-0.8,0c0,0-0.3-0.7-0.4-1.1c-0.2-0.5-0.3-0.9-0.4-1.3c-0.9,0-1.1,0.1-2.2,0.1
		c-1.1,0-1.4,0-2.2-0.1c-0.1,0.4-0.2,0.9-0.4,1.3c-0.1,0.4-0.4,1.1-0.4,1.1c-0.4,0-0.5,0-0.8,0c-0.3,0-0.9,0-0.9,0
		c0.6-1.8,0.8-2.2,1.3-3.6c0.9-2.6,1.9-5.4,2.3-6.7c0.4,0.1,0.6,0,1,0c0.4,0,0.6,0,1,0c0.4,1.3,1.4,4.1,2.3,6.7
		c0.5,1.4,0.9,2.5,1.3,3.6C58.3,184,58.1,184,57.8,184z M54.1,175L54.1,175c-0.4,1.2-1.1,3.5-1.8,5.5c0.6-0.1,0.9-0.1,1.8-0.1
		c0.7,0,1.1,0,1.8,0.1C55.1,178.5,54.3,176.1,54.1,175z"/>
	<path class="st5" d="M61.5,180.1c0,0.8,0,1.8,0.1,3.9c-0.3,0-0.4,0-0.8,0c-0.3,0-0.6,0-0.8,0c0.1-2.1,0.1-3.1,0.1-3.9
		c0-2.4,0-5.5-0.1-6.5c0.3,0,0.4,0,0.8,0c0.4,0,0.5,0,0.9,0C61.5,174.6,61.5,177.8,61.5,180.1z"/>
	<path class="st5" d="M65.5,180.1c0,0.8,0,1.8,0.1,3.9c-0.3,0-0.4,0-0.8,0c-0.3,0-0.6,0-0.8,0c0.1-2.1,0.1-3.1,0.1-3.9
		c0-2.4,0-5.5-0.1-6.5c0.3,0,0.4,0,0.8,0c0.4,0,0.5,0,0.9,0C65.5,174.6,65.5,177.8,65.5,180.1z"/>
	<path class="st5" d="M76,184c-0.2,0-0.5,0-0.8,0c0-1.2,0-2.9,0-3.7c0-1.5,0-2.2-1.4-2.2c-0.8,0-1.2,0.2-1.6,0.7c0,0.6,0,1.4,0,2.3
		c0,1,0,2.1,0.1,2.8c-0.2,0-0.5,0-0.8,0c-0.2,0-0.4,0-0.7,0c0-0.9,0-1.7,0-2.9c0-1.8,0-3.1-0.1-4.2c0,0,0.4,0,0.6,0
		c0.3,0,0.6,0,0.6,0c0,0.4,0.1,0.5,0.1,1.1c0,0,0,0,0,0c0.5-1,1.1-1.4,2.1-1.4c2.4,0,2.4,1.8,2.4,3.4c0,1.1,0,2.8,0,3.9
		C76.4,184,76.2,184,76,184z"/>
	<path class="st5" d="M83.7,184c-0.3,0-0.4,0-0.6,0c-0.1-0.4-0.2-0.7-0.2-1.1h-0.1c-0.3,0.9-0.8,1.3-1.9,1.3c-1.4,0-2.3-0.8-2.3-2.1
		c0-1.7,1.3-2.3,3.8-2.3c0,0,0.3,0,0.4,0v-0.4c0-1.1-0.4-1.4-1.5-1.4c-1,0-1.8,0.3-2.2,0.9c0-0.4-0.1-1.1-0.2-1.3
		c0.5-0.6,1.2-1.1,2.4-1.1c1.6,0,2.9,0.6,2.9,2.8v2.7c0,0.6,0,1.2,0.2,1.9C84.1,184,83.9,184,83.7,184z M82.7,180.8
		c-0.4,0.1-0.8,0-1.4,0.1c-0.8,0.1-1.3,0.4-1.3,1c0,0.6,0.4,1,1.2,1c0.7,0,1.2-0.2,1.5-0.7V180.8z"/>
	<path class="st5" d="M88.1,177L88.1,177c0.4-0.2,1.8,0,2.2-0.1c0,0.3,0,0.6,0,0.8c0,0.2,0,0.4,0,0.7c-0.8-0.1-1.7,0-2.2-0.2l0,0.1
		c0.1,0.6,0.1,2.1,0.1,3c0,1.2,0.2,1.4,1.2,1.4c0.3,0,0.6,0,0.9-0.1c0,0.3,0,0.4,0,0.6c0,0.3,0,0.4,0.1,0.7
		c-0.4,0.1-0.8,0.2-1.3,0.2c-1.6,0-2.2-0.8-2.2-2.3c0-1,0.1-2.3,0.2-3.6l0,0c-0.4,0.2-1.1,0.1-1.6,0.2c0-0.3,0-0.5,0-0.8
		c0-0.2,0-0.5,0-0.7c0.6,0.1,1.2,0,1.6,0.1c0,0,0,0,0,0c-0.1-0.3-0.1-1.1-0.1-1.4c0.7,0,1-0.1,1.4-0.2
		C88.2,175.9,88.3,176.3,88.1,177z"/>
	<path class="st5" d="M97.8,180.7c0,1.2,0,2,0.1,3.3c-0.2,0-0.4,0-0.6,0c-0.3,0-0.5,0-0.7,0c0-0.4,0-0.8,0-1.1l0,0
		c-0.4,0.8-1,1.4-1.9,1.4c-1.8,0-2.6-1.1-2.6-3.2c0-1.8,0-3.7-0.1-4.2c0.3,0,0.5,0,0.7,0c0.3,0,0.6,0,0.8,0c-0.1,1.2-0.1,3-0.1,3.9
		c0,1.7,0.5,2,1.4,2c0.8,0,1.2-0.3,1.6-0.8c0-0.6,0-1.4,0-2.4c0-0.7,0-1.8-0.1-2.7c0.3,0,0.6,0,0.8,0c0.2,0,0.5,0,0.7,0
		C97.8,177.9,97.8,179.6,97.8,180.7z"/>
	<path class="st5" d="M104.1,178.4c-0.3-0.1-0.5-0.1-0.9-0.1c-0.8,0-1.3,0.3-1.7,1c0.1,0.5,0.1,1.3,0.1,1.9c0,1,0.1,2.2,0.1,2.8
		c-0.3,0-0.5,0-0.8,0s-0.5,0-0.8,0c0-1,0.1-1.8,0.1-3.1c0-2.3,0-2.8-0.1-4.1c0.3,0,0.5,0,0.6,0c0.2,0,0.4,0,0.7,0
		c0.1,0.4,0.1,0.9,0.1,1.3l0,0c0.5-1,1.1-1.4,2-1.4c0.3,0,0.4,0,0.7,0.1C104.1,177.4,104.1,177.8,104.1,178.4z"/>
	<path class="st5" d="M110.2,184c-0.3,0-0.4,0-0.6,0c-0.1-0.4-0.2-0.7-0.2-1.1h-0.1c-0.3,0.9-0.8,1.3-1.9,1.3
		c-1.4,0-2.3-0.8-2.3-2.1c0-1.7,1.3-2.3,3.8-2.3c0,0,0.3,0,0.4,0v-0.4c0-1.1-0.4-1.4-1.5-1.4c-1,0-1.8,0.3-2.2,0.9
		c0-0.4-0.1-1.1-0.2-1.3c0.5-0.6,1.2-1.1,2.4-1.1c1.6,0,2.9,0.6,2.9,2.8v2.7c0,0.6,0,1.2,0.2,1.9C110.6,184,110.5,184,110.2,184z
		 M109.2,180.8c-0.4,0.1-0.8,0-1.4,0.1c-0.8,0.1-1.3,0.4-1.3,1c0,0.6,0.4,1,1.2,1c0.7,0,1.2-0.2,1.5-0.7V180.8z"/>
	<path class="st5" d="M114.4,180.1c0,0.8,0,1.8,0.1,3.9c-0.3,0-0.4,0-0.8,0c-0.3,0-0.6,0-0.8,0c0.1-2.1,0.1-3.1,0.1-3.9
		c0-2.4,0-5.5-0.1-6.5c0.3,0,0.4,0,0.8,0c0.4,0,0.5,0,0.9,0C114.4,174.6,114.4,177.8,114.4,180.1z"/>
	<path class="st5" d="M124,175.1c-0.3-0.1-0.7-0.1-1.1-0.1c-0.9,0-1.1,0.2-1.1,1c0,0.3,0,0.7,0,1l0,0c0.5-0.1,1.4-0.1,2.1-0.1
		c0,0.2,0,0.4,0,0.7c0,0.2,0,0.5,0,0.8c-0.6-0.1-1.8,0-2.1-0.2l0,0c0.1,0.3,0.1,0.9,0.1,2.8c0,1,0,2.3,0.1,3c-0.2,0-0.4,0-0.7,0
		c-0.4,0-0.6,0-0.8,0c0-0.8,0-2.1,0-3c0-1.3,0-2,0.1-2.7l0,0c-0.5,0.1-1.1,0.1-1.5,0.2c0-0.2,0-0.5,0-0.8c0-0.3,0-0.5,0-0.7
		c0.6,0.1,1.2,0,1.5,0.1l0,0c-0.1-0.6-0.1-0.8-0.1-1.1c0-1.5,0.8-2.3,2.5-2.3c0.4,0,0.9,0.1,1.1,0.2C124,174.1,124,174.6,124,175.1z
		"/>
	<path class="st5" d="M130.1,184c-0.3,0-0.4,0-0.6,0c-0.1-0.4-0.2-0.7-0.2-1.1h-0.1c-0.3,0.9-0.8,1.3-1.9,1.3
		c-1.4,0-2.3-0.8-2.3-2.1c0-1.7,1.3-2.3,3.8-2.3c0,0,0.3,0,0.4,0v-0.4c0-1.1-0.4-1.4-1.5-1.4c-1,0-1.8,0.3-2.2,0.9
		c0-0.4-0.1-1.1-0.2-1.3c0.5-0.6,1.2-1.1,2.4-1.1c1.6,0,2.9,0.6,2.9,2.8v2.7c0,0.6,0,1.2,0.2,1.9C130.4,184,130.3,184,130.1,184z
		 M129.1,180.8c-0.4,0.1-0.8,0-1.4,0.1c-0.8,0.1-1.3,0.4-1.3,1c0,0.6,0.4,1,1.2,1c0.7,0,1.2-0.2,1.5-0.7V180.8z"/>
	<path class="st5" d="M137.7,178.8c-0.5-0.5-1-0.7-1.9-0.7c-1.4,0-2.2,0.9-2.2,2.3c0,1.4,0.9,2.4,2.2,2.4c0.8,0,1.3-0.2,1.8-0.6
		c0,0.1,0,0.8,0.1,1.3c-0.6,0.5-1.2,0.7-1.9,0.7c-2.2,0-3.6-1.6-3.6-3.8c0-2.2,1.5-3.8,3.6-3.8c0.9,0,1.6,0.2,2,0.8
		C137.8,177.8,137.7,178.5,137.7,178.8z"/>
	<path class="st5" d="M141.4,177L141.4,177c0.4-0.2,1.8,0,2.2-0.1c0,0.3,0,0.6,0,0.8c0,0.2,0,0.4,0,0.7c-0.8-0.1-1.7,0-2.2-0.2
		l0,0.1c0.1,0.6,0.1,2.1,0.1,3c0,1.2,0.2,1.4,1.2,1.4c0.3,0,0.6,0,0.9-0.1c0,0.3,0,0.4,0,0.6c0,0.3,0,0.4,0.1,0.7
		c-0.4,0.1-0.8,0.2-1.3,0.2c-1.6,0-2.2-0.8-2.2-2.3c0-1,0.1-2.3,0.2-3.6l0,0c-0.4,0.2-1.1,0.1-1.6,0.2c0-0.3,0-0.5,0-0.8
		c0-0.2,0-0.5,0-0.7c0.6,0.1,1.2,0,1.6,0.1c0,0,0,0,0,0c-0.1-0.3-0.1-1.1-0.1-1.4c0.7,0,1-0.1,1.4-0.2
		C141.5,175.9,141.6,176.3,141.4,177z"/>
	<path class="st5" d="M148.3,184.2c-2,0-3.5-1.6-3.5-3.9c0-2.2,1.4-3.7,3.5-3.7s3.5,1.5,3.5,3.7
		C151.7,182.6,150.3,184.2,148.3,184.2z M148.3,178c-1.4,0-2.1,0.9-2.1,2.3c0,1.4,0.7,2.5,2.1,2.5c1.4,0,2.1-1.1,2.1-2.5
		C150.4,178.9,149.7,178,148.3,178z"/>
	<path class="st5" d="M157.7,178.4c-0.3-0.1-0.5-0.1-0.9-0.1c-0.8,0-1.3,0.3-1.7,1c0.1,0.5,0.1,1.3,0.1,1.9c0,1,0.1,2.2,0.1,2.8
		c-0.3,0-0.5,0-0.8,0s-0.5,0-0.8,0c0-1,0.1-1.8,0.1-3.1c0-2.3,0-2.8-0.1-4.1c0.3,0,0.5,0,0.6,0c0.2,0,0.4,0,0.7,0
		c0.1,0.4,0.1,0.9,0.1,1.3l0,0c0.5-1,1.1-1.4,2-1.4c0.3,0,0.4,0,0.7,0.1C157.7,177.4,157.7,177.8,157.7,178.4z"/>
	<path class="st5" d="M160.6,184.2c-0.7,0-1.5-0.2-1.9-0.5c0.1-0.4,0.1-0.9,0.1-1.3c0.5,0.3,1.1,0.4,1.7,0.4c1,0,1.4-0.3,1.4-0.9
		c0-0.6-0.3-0.8-1.4-0.9c-1.5-0.2-2.1-0.8-2.1-1.9c0-1.4,1.1-2.4,2.9-2.4c0.8,0,1.4,0.2,1.9,0.6c-0.1,0.4-0.2,0.8-0.2,1.3
		c-0.5-0.3-1-0.4-1.7-0.4c-1,0-1.5,0.3-1.5,0.9c0,0.6,0.2,0.7,1.5,0.9c1.4,0.2,2,0.7,2,1.9C163.3,183.2,162.4,184.2,160.6,184.2z"/>
</g>
<g>
	<path class="st5" d="M246.4,18.8c0,3-1.7,5.2-4.6,5.2h-3.3c0-1.5,0-3.2,0-5.2c0-2,0-3.7-0.1-5.1h3.4
		C245,13.6,246.4,15.7,246.4,18.8z M241.7,15.1h-1.8c0.1,0.9,0.1,2.2,0.1,3.6c0,1.5,0,2.8-0.1,3.8h1.8c2.1,0,3.2-1.4,3.2-3.7
		C245,16.4,244,15.1,241.7,15.1z"/>
	<path class="st5" d="M250.4,21c-0.5,0-1.1,0-1.3-0.1c0.1,1.3,1,1.9,2.3,1.9c0.9,0,1.7-0.2,2.2-0.5c0,0.3,0.1,0.8,0.1,1.2
		c-0.4,0.4-1.2,0.7-2.3,0.7c-2.3,0-3.7-1.4-3.7-3.8c0-2.2,1.3-3.8,3.3-3.8c2,0,3.1,1.1,3.1,4V21C252.7,21,250.4,21,250.4,21z
		 M251,18c-1.3,0-1.9,0.7-1.9,1.9c0.7-0.1,1.3-0.1,1.9-0.1c0.6,0,1.2,0,1.8,0.1C252.7,18.6,252.2,18,251,18z"/>
	<path class="st5" d="M260.2,15.1c-0.3-0.1-0.7-0.1-1.1-0.1c-0.9,0-1.1,0.2-1.1,1c0,0.3,0,0.7,0,1l0,0c0.5-0.1,1.4-0.1,2.1-0.1
		c0,0.2,0,0.4,0,0.7c0,0.2,0,0.5,0,0.8c-0.6-0.1-1.8,0-2.1-0.2l0,0c0.1,0.3,0.1,0.9,0.1,2.8c0,1,0,2.3,0.1,3c-0.2,0-0.4,0-0.7,0
		c-0.4,0-0.6,0-0.8,0c0-0.8,0-2.1,0-3c0-1.3,0-2,0.1-2.7l0,0c-0.5,0.1-1.1,0.1-1.5,0.2c0-0.2,0-0.5,0-0.8c0-0.3,0-0.5,0-0.7
		c0.6,0.1,1.2,0,1.5,0.1l0,0c-0.1-0.6-0.1-0.8-0.1-1.1c0-1.5,0.8-2.3,2.5-2.3c0.4,0,0.9,0.1,1.1,0.2
		C260.2,14.1,260.2,14.6,260.2,15.1z"/>
	<path class="st5" d="M264.4,24.2c-2,0-3.5-1.6-3.5-3.9c0-2.2,1.4-3.7,3.5-3.7s3.5,1.5,3.5,3.7C267.9,22.6,266.4,24.2,264.4,24.2z
		 M264.4,18c-1.4,0-2.1,0.9-2.1,2.3c0,1.4,0.7,2.5,2.1,2.5s2.1-1.1,2.1-2.5C266.5,18.9,265.8,18,264.4,18z"/>
	<path class="st5" d="M273.8,18.4c-0.3-0.1-0.5-0.1-0.9-0.1c-0.8,0-1.3,0.3-1.7,1c0.1,0.5,0.1,1.3,0.1,1.9c0,1,0.1,2.2,0.1,2.8
		c-0.3,0-0.5,0-0.8,0s-0.5,0-0.8,0c0-1,0.1-1.8,0.1-3.1c0-2.3,0-2.8-0.1-4.1c0.3,0,0.5,0,0.6,0c0.2,0,0.4,0,0.7,0
		c0.1,0.4,0.1,0.9,0.1,1.3l0,0c0.5-1,1-1.4,2-1.4c0.3,0,0.4,0,0.7,0.1C273.8,17.4,273.8,17.8,273.8,18.4z"/>
	<path class="st5" d="M277.3,21c-0.5,0-1.1,0-1.3-0.1c0.1,1.3,1,1.9,2.3,1.9c0.9,0,1.7-0.2,2.2-0.5c0,0.3,0.1,0.8,0.1,1.2
		c-0.4,0.4-1.2,0.7-2.3,0.7c-2.3,0-3.7-1.4-3.7-3.8c0-2.2,1.3-3.8,3.3-3.8c2,0,3.1,1.1,3.1,4V21C279.6,21,277.3,21,277.3,21z
		 M277.9,18c-1.3,0-1.9,0.7-1.9,1.9c0.7-0.1,1.3-0.1,1.9-0.1c0.6,0,1.2,0,1.8,0.1C279.6,18.6,279.1,18,277.9,18z"/>
	<path class="st5" d="M284.5,24.2c-0.7,0-1.5-0.2-1.9-0.5c0.1-0.4,0.1-0.9,0.1-1.3c0.5,0.3,1.1,0.4,1.7,0.4c1,0,1.4-0.3,1.4-0.9
		c0-0.6-0.3-0.8-1.4-0.9c-1.5-0.2-2.1-0.8-2.1-1.9c0-1.4,1.1-2.4,2.9-2.4c0.8,0,1.4,0.2,1.9,0.6c-0.1,0.4-0.2,0.8-0.2,1.3
		c-0.5-0.3-1-0.4-1.7-0.4c-1,0-1.5,0.3-1.5,0.9c0,0.6,0.2,0.7,1.5,0.9c1.4,0.2,2,0.7,2,1.9C287.2,23.2,286.2,24.2,284.5,24.2z"/>
	<path class="st5" d="M291,17L291,17c0.4-0.2,1.8,0,2.2-0.1c0,0.3,0,0.6,0,0.8c0,0.2,0,0.4,0,0.7c-0.8-0.1-1.7,0-2.2-0.2l0,0.1
		c0.1,0.6,0.1,2.1,0.1,3c0,1.2,0.2,1.4,1.2,1.4c0.3,0,0.6,0,0.9-0.1c0,0.3,0,0.4,0,0.6c0,0.3,0,0.4,0.1,0.7
		c-0.4,0.1-0.8,0.2-1.3,0.2c-1.6,0-2.2-0.8-2.2-2.3c0-1,0.1-2.3,0.2-3.6l0,0c-0.4,0.2-1.1,0.1-1.6,0.2c0-0.3,0-0.5,0-0.8
		c0-0.2,0-0.5,0-0.7c0.6,0.1,1.2,0,1.6,0.1c0,0,0,0,0,0c-0.1-0.3-0.1-1.1-0.1-1.4c0.7,0,1-0.1,1.4-0.2C291.1,15.9,291.2,16.3,291,17
		z"/>
	<path class="st5" d="M299.7,24c-0.3,0-0.4,0-0.6,0c-0.1-0.4-0.2-0.7-0.2-1.1h-0.1c-0.3,0.9-0.8,1.3-1.9,1.3c-1.4,0-2.3-0.8-2.3-2.1
		c0-1.7,1.3-2.3,3.8-2.3c0,0,0.3,0,0.4,0v-0.4c0-1.1-0.4-1.4-1.5-1.4c-1,0-1.8,0.3-2.2,0.9c0-0.4-0.1-1.1-0.2-1.3
		c0.5-0.6,1.2-1.1,2.4-1.1c1.6,0,2.9,0.6,2.9,2.8v2.7c0,0.6,0,1.2,0.2,1.9C300.1,24,300,24,299.7,24z M298.7,20.8
		c-0.4,0.1-0.8,0-1.4,0.1c-0.8,0.1-1.3,0.4-1.3,1c0,0.6,0.4,1,1.2,1c0.7,0,1.2-0.2,1.5-0.7V20.8z"/>
	<path class="st5" d="M304.1,17L304.1,17c0.4-0.2,1.8,0,2.2-0.1c0,0.3,0,0.6,0,0.8c0,0.2,0,0.4,0,0.7c-0.8-0.1-1.7,0-2.2-0.2l0,0.1
		c0.1,0.6,0.1,2.1,0.1,3c0,1.2,0.2,1.4,1.2,1.4c0.3,0,0.6,0,0.9-0.1c0,0.3,0,0.4,0,0.6c0,0.3,0,0.4,0.1,0.7
		c-0.4,0.1-0.8,0.2-1.3,0.2c-1.6,0-2.2-0.8-2.2-2.3c0-1,0.1-2.3,0.2-3.6l0,0c-0.4,0.2-1.1,0.1-1.6,0.2c0-0.3,0-0.5,0-0.8
		c0-0.2,0-0.5,0-0.7c0.6,0.1,1.2,0,1.6,0.1c0,0,0,0,0,0c-0.1-0.3-0.1-1.1-0.1-1.4c0.7,0,1-0.1,1.4-0.2
		C304.2,15.9,304.3,16.3,304.1,17z"/>
	<path class="st5" d="M309.8,14.4c0,0.3,0,0.4,0,0.8c-0.3,0-0.6,0-0.9,0c-0.3,0-0.6,0-1,0c0-0.4,0-0.4,0-0.7c0-0.4,0-0.5,0-0.8
		c0.4,0,0.5,0,1,0c0.4,0,0.6,0,1,0C309.8,14,309.8,14.1,309.8,14.4z M309.6,20.7c0,1.1,0,3.3,0,3.3c-0.3,0-0.5,0-0.7,0
		c-0.3,0-0.5,0-0.8,0c0,0,0-2.2,0-3.3c0-1.5,0-2.7-0.1-3.9c0.3,0,0.5,0,0.8,0c0.3,0,0.5,0,0.8,0C309.6,18,309.6,19.2,309.6,20.7z"/>
	<path class="st5" d="M315.1,24.2c-2,0-3.5-1.6-3.5-3.9c0-2.2,1.4-3.7,3.5-3.7s3.5,1.5,3.5,3.7C318.5,22.6,317.1,24.2,315.1,24.2z
		 M315.1,18c-1.4,0-2.1,0.9-2.1,2.3c0,1.4,0.7,2.5,2.1,2.5s2.1-1.1,2.1-2.5C317.2,18.9,316.4,18,315.1,18z"/>
	<path class="st5" d="M325.6,24c-0.2,0-0.5,0-0.8,0c0-1.2,0-2.9,0-3.7c0-1.5,0-2.2-1.4-2.2c-0.8,0-1.2,0.2-1.6,0.7
		c0,0.6,0,1.4,0,2.3c0,1,0,2.1,0.1,2.8c-0.2,0-0.5,0-0.8,0c-0.2,0-0.4,0-0.7,0c0-0.9,0-1.7,0-2.9c0-1.8,0-3.1-0.1-4.2
		c0,0,0.4,0,0.6,0c0.3,0,0.6,0,0.6,0c0,0.4,0.1,0.5,0.1,1.1c0,0,0,0,0,0c0.5-1,1.1-1.4,2.1-1.4c2.4,0,2.4,1.8,2.4,3.4
		c0,1.1,0,2.8,0,3.9C326,24,325.8,24,325.6,24z"/>
</g>
<g>
	<path class="st5" d="M281.7,75.2c-2.9,0-4.7-2.3-4.7-5.5c0-3.3,1.7-5.3,4.7-5.3c3,0,4.7,2.1,4.7,5.3
		C286.4,73,284.7,75.2,281.7,75.2z M281.7,65.9c-2.1,0-3.2,1.2-3.2,3.8c0,2.4,1,4,3.2,4c2.2,0,3.2-1.6,3.2-4
		C285,67.1,283.9,65.9,281.7,65.9z"/>
	<path class="st5" d="M292.9,69c-0.4,0.6-0.7,1-1.7,2.3c-0.8,1.1-1.3,1.8-1.8,2.3l0,0.1c0.5-0.1,1.1-0.1,1.7-0.1c0.7,0,1.4,0,1.8,0
		c0,0.2,0,0.4,0,0.7s0,0.5,0,0.7c0,0-1.7,0-2.5,0c-0.9,0-2.7,0-2.8,0c0-0.7,0-0.8,0.1-1c0.3-0.5,0.9-1.3,1.6-2.2
		c0.9-1.2,1.7-2.3,2-2.5l0,0c-0.6,0-1.3,0.1-2,0.1c-0.6,0-1.2,0-1.7,0c0-0.2,0-0.4,0-0.7c0-0.3,0-0.4,0-0.8c0,0,1.6,0,3,0
		c1.7,0,2,0,2.5,0C293.1,68.6,293.1,68.8,292.9,69z"/>
	<path class="st5" d="M297.8,75.2c-2,0-3.5-1.6-3.5-3.9c0-2.2,1.4-3.7,3.5-3.7s3.5,1.5,3.5,3.7C301.3,73.6,299.8,75.2,297.8,75.2z
		 M297.8,69c-1.4,0-2.1,0.9-2.1,2.3c0,1.4,0.7,2.5,2.1,2.5s2.1-1.1,2.1-2.5C299.9,69.9,299.2,69,297.8,69z"/>
	<path class="st5" d="M308.3,75c-0.2,0-0.5,0-0.8,0c0-1.2,0-2.9,0-3.7c0-1.5,0-2.2-1.4-2.2c-0.8,0-1.2,0.2-1.6,0.7
		c0,0.6,0,1.4,0,2.3c0,1,0,2.1,0.1,2.8c-0.2,0-0.5,0-0.8,0c-0.2,0-0.4,0-0.7,0c0-0.9,0-1.7,0-2.9c0-1.8,0-3.1-0.1-4.2
		c0,0,0.4,0,0.6,0c0.3,0,0.6,0,0.6,0c0,0.4,0.1,0.5,0.1,1.1c0,0,0,0,0,0c0.5-1,1.1-1.4,2.1-1.4c2.4,0,2.4,1.8,2.4,3.4
		c0,1.1,0,2.8,0,3.9C308.7,75,308.5,75,308.3,75z"/>
	<path class="st5" d="M313.5,72c-0.5,0-1.1,0-1.3-0.1c0.1,1.3,1,1.9,2.3,1.9c0.9,0,1.7-0.2,2.2-0.5c0,0.3,0.1,0.8,0.1,1.2
		c-0.4,0.4-1.2,0.7-2.3,0.7c-2.3,0-3.7-1.4-3.7-3.8c0-2.2,1.3-3.8,3.3-3.8c2,0,3.1,1.1,3.1,4V72C315.8,72,313.5,72,313.5,72z
		 M314.1,69c-1.3,0-1.9,0.7-1.9,1.9c0.7-0.1,1.3-0.1,1.9-0.1c0.6,0,1.2,0,1.8,0.1C315.9,69.6,315.3,69,314.1,69z"/>
	<path class="st5" d="M325.4,75.2c-0.8,0-1.3-0.2-1.9-1l-0.1,0c0,0.5,0,1,0,1.9c0,0.7,0,1,0,1.6c-0.2,0-0.5,0-0.7,0s-0.5,0-0.8,0
		c0.1-1.3,0.1-3.4,0.1-5.5c0-1.8,0-3.3-0.1-4.4c0.3,0,0.4,0,0.6,0c0.2,0,0.4,0,0.6,0c0.1,0.3,0.1,0.7,0.1,1.1l0,0
		c0.4-0.8,1.1-1.4,2.2-1.4c2,0,3.1,1.3,3.1,3.6C328.7,73.4,327.3,75.2,325.4,75.2z M325.4,69.1c-0.9,0-1.5,0.3-2.1,0.9
		c0,0.4,0.1,1,0.1,1.6c0,0.6,0,1.2-0.1,1.7c0.1,0,0.2,0.1,0.3,0.1c0.6,0.4,1.1,0.5,1.6,0.5c1.2,0,2.1-1.1,2.1-2.5
		C327.3,69.8,326.6,69.1,325.4,69.1z"/>
	<path class="st5" d="M333.6,75.2c-2,0-3.5-1.6-3.5-3.9c0-2.2,1.4-3.7,3.5-3.7s3.5,1.5,3.5,3.7C337.1,73.6,335.6,75.2,333.6,75.2z
		 M333.6,69c-1.4,0-2.1,0.9-2.1,2.3c0,1.4,0.7,2.5,2.1,2.5s2.1-1.1,2.1-2.5C335.7,69.9,335,69,333.6,69z"/>
	<path class="st5" d="M340.5,71.1c0,0.8,0,1.8,0.1,3.9c-0.3,0-0.4,0-0.8,0c-0.3,0-0.6,0-0.8,0c0.1-2.1,0.1-3.1,0.1-3.9
		c0-2.4,0-5.5-0.1-6.5c0.3,0,0.4,0,0.8,0c0.4,0,0.5,0,0.9,0C340.6,65.6,340.5,68.8,340.5,71.1z"/>
	<path class="st5" d="M344.5,71.1c0,0.8,0,1.8,0.1,3.9c-0.3,0-0.4,0-0.8,0c-0.3,0-0.6,0-0.8,0c0.1-2.1,0.1-3.1,0.1-3.9
		c0-2.4,0-5.5-0.1-6.5c0.3,0,0.4,0,0.8,0c0.4,0,0.5,0,0.9,0C344.6,65.6,344.5,68.8,344.5,71.1z"/>
	<path class="st5" d="M352.7,71.7c0,1.2,0,2,0.1,3.3c-0.2,0-0.4,0-0.6,0c-0.3,0-0.5,0-0.7,0c0-0.4,0-0.8,0-1.1l0,0
		c-0.4,0.8-1,1.4-1.9,1.4c-1.8,0-2.6-1.1-2.6-3.2c0-1.8,0-3.7-0.1-4.2c0.3,0,0.5,0,0.7,0c0.3,0,0.6,0,0.8,0c-0.1,1.2-0.1,3-0.1,3.9
		c0,1.7,0.5,2,1.4,2c0.8,0,1.2-0.3,1.6-0.8c0-0.6,0-1.4,0-2.4c0-0.7,0-1.8-0.1-2.7c0.3,0,0.6,0,0.8,0c0.2,0,0.5,0,0.7,0
		C352.7,68.9,352.7,70.6,352.7,71.7z"/>
	<path class="st5" d="M356.9,68L356.9,68c0.4-0.2,1.8,0,2.2-0.1c0,0.3,0,0.6,0,0.8c0,0.2,0,0.4,0,0.7c-0.8-0.1-1.7,0-2.2-0.2l0,0.1
		c0.1,0.6,0.1,2.1,0.1,3c0,1.2,0.2,1.4,1.2,1.4c0.3,0,0.6,0,0.9-0.1c0,0.3,0,0.4,0,0.6c0,0.3,0,0.4,0.1,0.7
		c-0.4,0.1-0.8,0.2-1.3,0.2c-1.6,0-2.2-0.8-2.2-2.3c0-1,0.1-2.3,0.2-3.6l0,0c-0.4,0.2-1.1,0.1-1.6,0.2c0-0.3,0-0.5,0-0.8
		c0-0.2,0-0.5,0-0.7c0.6,0.1,1.2,0,1.6,0.1c0,0,0,0,0,0c-0.1-0.3-0.1-1.1-0.1-1.4c0.7,0,1-0.1,1.4-0.2C357,66.9,357.1,67.3,356.9,68
		z"/>
	<path class="st5" d="M362.6,65.4c0,0.3,0,0.4,0,0.8c-0.3,0-0.6,0-0.9,0c-0.3,0-0.6,0-1,0c0-0.4,0-0.4,0-0.7c0-0.4,0-0.5,0-0.8
		c0.4,0,0.5,0,1,0c0.4,0,0.6,0,1,0C362.6,65,362.6,65.1,362.6,65.4z M362.4,71.7c0,1.1,0,3.3,0,3.3c-0.3,0-0.5,0-0.7,0
		c-0.3,0-0.5,0-0.8,0c0,0,0-2.2,0-3.3c0-1.5,0-2.7-0.1-3.9c0.3,0,0.5,0,0.8,0c0.3,0,0.5,0,0.8,0C362.4,69,362.4,70.2,362.4,71.7z"/>
	<path class="st5" d="M367.9,75.2c-2,0-3.5-1.6-3.5-3.9c0-2.2,1.4-3.7,3.5-3.7s3.5,1.5,3.5,3.7C371.3,73.6,369.9,75.2,367.9,75.2z
		 M367.9,69c-1.4,0-2.1,0.9-2.1,2.3c0,1.4,0.7,2.5,2.1,2.5s2.1-1.1,2.1-2.5C370,69.9,369.2,69,367.9,69z"/>
	<path class="st5" d="M378.4,75c-0.2,0-0.5,0-0.8,0c0-1.2,0-2.9,0-3.7c0-1.5,0-2.2-1.4-2.2c-0.8,0-1.2,0.2-1.6,0.7
		c0,0.6,0,1.4,0,2.3c0,1,0,2.1,0.1,2.8c-0.2,0-0.5,0-0.8,0c-0.2,0-0.4,0-0.7,0c0-0.9,0-1.7,0-2.9c0-1.8,0-3.1-0.1-4.2
		c0,0,0.4,0,0.6,0s0.6,0,0.6,0c0,0.4,0.1,0.5,0.1,1.1c0,0,0,0,0,0c0.5-1,1.1-1.4,2.1-1.4c2.4,0,2.4,1.8,2.4,3.4c0,1.1,0,2.8,0,3.9
		C378.8,75,378.6,75,378.4,75z"/>
</g>
<g>
	<path class="st5" d="M285.2,124.9c-0.6-0.6-1.4-1-2.9-1c-2.4,0-3.8,1.5-3.8,3.8c0,2.5,1.5,4,3.7,4c0.5,0,1.1,0,1.5-0.1
		c0-0.5-0.1-1.3-0.1-1.9c0-0.7,0-1.4-0.1-1.8c0.3,0,0.5,0,0.8,0s0.5,0,0.8,0c0,0.9-0.1,1.2-0.1,2.4c0,1.2,0,1.6,0,2.5
		c-0.3,0.1-0.9,0.2-1.2,0.3c-0.4,0.1-1.1,0.2-1.8,0.2c-3.2,0-5.2-2.2-5.2-5.4c0-3.2,2.1-5.4,5.3-5.4c1.8,0,2.7,0.5,3.2,1.1
		C285.3,123.9,285.3,124.4,285.2,124.9z"/>
	<path class="st5" d="M291.6,127.4c-0.3-0.1-0.5-0.1-0.9-0.1c-0.8,0-1.3,0.3-1.7,1c0.1,0.5,0.1,1.3,0.1,1.9c0,1,0.1,2.2,0.1,2.8
		c-0.3,0-0.5,0-0.8,0s-0.5,0-0.8,0c0-1,0.1-1.8,0.1-3.1c0-2.3,0-2.8-0.1-4.1c0.3,0,0.5,0,0.6,0c0.2,0,0.4,0,0.7,0
		c0.1,0.4,0.1,0.9,0.1,1.3l0,0c0.5-1,1.1-1.4,2-1.4c0.3,0,0.4,0,0.7,0.1C291.6,126.4,291.6,126.8,291.6,127.4z"/>
	<path class="st5" d="M295,130c-0.5,0-1.1,0-1.3-0.1c0.1,1.3,1,1.9,2.3,1.9c0.9,0,1.7-0.2,2.2-0.5c0,0.3,0.1,0.8,0.1,1.2
		c-0.4,0.4-1.2,0.7-2.3,0.7c-2.3,0-3.7-1.4-3.7-3.8c0-2.2,1.3-3.8,3.3-3.8c2,0,3.1,1.1,3.1,4v0.4C297.4,130,295,130,295,130z
		 M295.6,127c-1.3,0-1.9,0.7-1.9,1.9c0.7-0.1,1.3-0.1,1.9-0.1c0.6,0,1.2,0,1.8,0.1C297.4,127.6,296.9,127,295.6,127z"/>
	<path class="st5" d="M302.9,130c-0.5,0-1.1,0-1.3-0.1c0.1,1.3,1,1.9,2.3,1.9c0.9,0,1.7-0.2,2.2-0.5c0,0.3,0.1,0.8,0.1,1.2
		c-0.4,0.4-1.2,0.7-2.3,0.7c-2.3,0-3.7-1.4-3.7-3.8c0-2.2,1.3-3.8,3.3-3.8c2,0,3.1,1.1,3.1,4v0.4C305.2,130,302.9,130,302.9,130z
		 M303.5,127c-1.3,0-1.9,0.7-1.9,1.9c0.7-0.1,1.3-0.1,1.9-0.1c0.6,0,1.2,0,1.8,0.1C305.3,127.6,304.7,127,303.5,127z"/>
	<path class="st5" d="M313.7,133c-0.2,0-0.5,0-0.8,0c0-1.2,0-2.9,0-3.7c0-1.5,0-2.2-1.4-2.2c-0.8,0-1.2,0.2-1.6,0.7
		c0,0.6,0,1.4,0,2.3c0,1,0,2.1,0.1,2.8c-0.2,0-0.5,0-0.8,0c-0.2,0-0.4,0-0.7,0c0-0.9,0-1.7,0-2.9c0-1.8,0-3.1-0.1-4.2
		c0,0,0.4,0,0.6,0c0.3,0,0.6,0,0.6,0c0,0.4,0.1,0.5,0.1,1.1c0,0,0,0,0,0c0.5-1,1.1-1.4,2.1-1.4c2.4,0,2.4,1.8,2.4,3.4
		c0,1.1,0,2.8,0,3.9C314.1,133,313.9,133,313.7,133z"/>
	<path class="st5" d="M318,133c-0.2,0-0.5,0-0.7,0c-0.3,0-0.5,0-0.8,0c0-0.9,0.1-2.9,0.1-4.3c0-2.7,0-5.3-0.1-6.1c0.2,0,0.4,0,0.7,0
		c0.3,0,0.6,0,0.8,0c0,0.6-0.1,1.6-0.1,2.1c0,0.7,0,1.6-0.1,2.3c0,0,0,0,0,0c0.5-0.9,1.1-1.3,2-1.3c2.3,0,2.5,1.5,2.5,3.6
		c0,1.1,0,2.6,0,3.8c-0.3,0-0.6,0-0.7,0c-0.2,0-0.5,0-0.8,0c0-1.2,0-2.8,0-3.5c0-1.7,0-2.4-1.4-2.4c-0.8,0-1.2,0.2-1.7,0.8
		c0,0.6,0,1.4,0,2.3C318,131.1,318,132.3,318,133z"/>
	<path class="st5" d="M327.7,133.2c-2,0-3.5-1.6-3.5-3.9c0-2.2,1.4-3.7,3.5-3.7s3.5,1.5,3.5,3.7
		C331.2,131.6,329.7,133.2,327.7,133.2z M327.7,127c-1.4,0-2.1,0.9-2.1,2.3c0,1.4,0.7,2.5,2.1,2.5s2.1-1.1,2.1-2.5
		C329.8,127.9,329.1,127,327.7,127z"/>
	<path class="st5" d="M338.8,129.7c0,1.2,0,2,0.1,3.3c-0.2,0-0.4,0-0.6,0c-0.3,0-0.5,0-0.7,0c0-0.4,0-0.8,0-1.1l0,0
		c-0.4,0.8-1,1.4-1.9,1.4c-1.8,0-2.6-1.1-2.6-3.2c0-1.8,0-3.7-0.1-4.2c0.3,0,0.5,0,0.7,0c0.3,0,0.6,0,0.8,0c-0.1,1.2-0.1,3-0.1,3.9
		c0,1.7,0.5,2,1.4,2c0.8,0,1.2-0.3,1.6-0.8c0-0.6,0-1.4,0-2.4c0-0.7,0-1.8-0.1-2.7c0.3,0,0.6,0,0.8,0c0.2,0,0.5,0,0.7,0
		C338.8,126.9,338.8,128.6,338.8,129.7z"/>
	<path class="st5" d="M342.7,133.2c-0.7,0-1.5-0.2-1.9-0.5c0.1-0.4,0.1-0.9,0.1-1.3c0.5,0.3,1.1,0.4,1.7,0.4c1,0,1.4-0.3,1.4-0.9
		c0-0.6-0.3-0.8-1.4-0.9c-1.5-0.2-2.1-0.8-2.1-1.9c0-1.4,1.1-2.4,2.9-2.4c0.8,0,1.4,0.2,1.9,0.6c-0.1,0.4-0.2,0.8-0.2,1.3
		c-0.5-0.3-1-0.4-1.7-0.4c-1,0-1.5,0.3-1.5,0.9c0,0.6,0.2,0.7,1.5,0.9c1.4,0.2,2,0.7,2,1.9C345.4,132.2,344.5,133.2,342.7,133.2z"/>
	<path class="st5" d="M349.7,130c-0.5,0-1.1,0-1.3-0.1c0.1,1.3,1,1.9,2.3,1.9c0.9,0,1.7-0.2,2.2-0.5c0,0.3,0.1,0.8,0.1,1.2
		c-0.4,0.4-1.2,0.7-2.3,0.7c-2.3,0-3.7-1.4-3.7-3.8c0-2.2,1.3-3.8,3.3-3.8c2,0,3.1,1.1,3.1,4v0.4C352,130,349.7,130,349.7,130z
		 M350.3,127c-1.3,0-1.9,0.7-1.9,1.9c0.7-0.1,1.3-0.1,1.9-0.1c0.6,0,1.2,0,1.8,0.1C352,127.6,351.5,127,350.3,127z"/>
	<path class="st5" d="M364.2,129.1v3.4c0,2.1-1.2,3.4-3.3,3.4c-0.6,0-1.2-0.1-1.7-0.3c0.1-0.5,0.1-0.9,0.1-1.3
		c0.5,0.2,1,0.2,1.6,0.2c1.4,0,2-0.7,2-2v-0.4c0-0.2,0-0.5,0-0.7l0,0c-0.3,0.7-0.9,1.2-1.9,1.2c-1.9,0-3.2-1.5-3.2-3.4
		c0-2,1.2-3.5,3.2-3.5c1,0,1.6,0.3,2.1,1.1l0,0c0.1-0.4,0.1-0.6,0.2-0.9c0.2,0,0.3,0,0.5,0c0.2,0,0.3,0,0.5,0
		C364.2,126.8,364.2,128.3,364.2,129.1z M361,127.1c-1.3,0-1.9,0.8-1.9,2c0,1.3,0.7,2,1.9,2c0.9,0,1.5-0.4,1.7-0.8
		c0-0.3,0-0.6,0-1.2c0-0.4,0-1.1,0.1-1.6C362.4,127.3,362,127.1,361,127.1z"/>
	<path class="st5" d="M371.3,133c-0.3,0-0.4,0-0.6,0c-0.1-0.4-0.2-0.7-0.2-1.1h-0.1c-0.3,0.9-0.8,1.3-1.9,1.3
		c-1.4,0-2.3-0.8-2.3-2.1c0-1.7,1.3-2.3,3.8-2.3c0,0,0.3,0,0.4,0v-0.4c0-1.1-0.4-1.4-1.5-1.4c-1,0-1.8,0.3-2.2,0.9
		c0-0.4-0.1-1.1-0.2-1.3c0.5-0.6,1.2-1.1,2.4-1.1c1.6,0,2.9,0.6,2.9,2.8v2.7c0,0.6,0,1.2,0.2,1.9C371.7,133,371.5,133,371.3,133z
		 M370.3,129.8c-0.3,0.1-0.8,0-1.4,0.1c-0.8,0.1-1.3,0.4-1.3,1c0,0.6,0.4,1,1.2,1c0.7,0,1.2-0.2,1.5-0.7V129.8z"/>
	<path class="st5" d="M375.5,133.2c-0.7,0-1.5-0.2-1.9-0.5c0.1-0.4,0.1-0.9,0.1-1.3c0.5,0.3,1.1,0.4,1.7,0.4c1,0,1.4-0.3,1.4-0.9
		c0-0.6-0.3-0.8-1.4-0.9c-1.5-0.2-2.1-0.8-2.1-1.9c0-1.4,1.1-2.4,2.9-2.4c0.8,0,1.4,0.2,1.9,0.6c-0.1,0.4-0.2,0.8-0.2,1.3
		c-0.5-0.3-1-0.4-1.7-0.4c-1,0-1.5,0.3-1.5,0.9c0,0.6,0.2,0.7,1.5,0.9c1.4,0.2,2,0.7,2,1.9C378.2,132.2,377.3,133.2,375.5,133.2z"/>
	<path class="st5" d="M382.4,130c-0.5,0-1.1,0-1.3-0.1c0.1,1.3,1,1.9,2.3,1.9c0.9,0,1.7-0.2,2.2-0.5c0,0.3,0.1,0.8,0.1,1.2
		c-0.4,0.4-1.2,0.7-2.3,0.7c-2.3,0-3.7-1.4-3.7-3.8c0-2.2,1.3-3.8,3.3-3.8c2,0,3.1,1.1,3.1,4v0.4C384.8,130,382.4,130,382.4,130z
		 M383,127c-1.3,0-1.9,0.7-1.9,1.9c0.7-0.1,1.3-0.1,1.9-0.1c0.6,0,1.2,0,1.8,0.1C384.8,127.6,384.3,127,383,127z"/>
	<path class="st5" d="M389.7,133.2c-0.7,0-1.5-0.2-1.9-0.5c0.1-0.4,0.1-0.9,0.1-1.3c0.5,0.3,1.1,0.4,1.7,0.4c1,0,1.4-0.3,1.4-0.9
		c0-0.6-0.3-0.8-1.4-0.9c-1.5-0.2-2.1-0.8-2.1-1.9c0-1.4,1.1-2.4,2.9-2.4c0.8,0,1.4,0.2,1.9,0.6c-0.1,0.4-0.2,0.8-0.2,1.3
		c-0.5-0.3-1-0.4-1.7-0.4c-1,0-1.5,0.3-1.5,0.9c0,0.6,0.2,0.7,1.5,0.9c1.4,0.2,2,0.7,2,1.9C392.4,132.2,391.4,133.2,389.7,133.2z"/>
</g>
<g>
	<path class="st5" d="M245.8,184c-0.3,0-0.5,0-0.8,0c0,0-0.3-0.7-0.4-1.1c-0.2-0.5-0.3-0.9-0.4-1.3c-0.9,0-1.1,0.1-2.2,0.1
		c-1.1,0-1.4,0-2.2-0.1c-0.1,0.4-0.2,0.9-0.4,1.3c-0.1,0.4-0.4,1.1-0.4,1.1c-0.4,0-0.5,0-0.8,0c-0.3,0-0.9,0-0.9,0
		c0.6-1.8,0.8-2.2,1.3-3.6c0.9-2.6,1.9-5.4,2.3-6.7c0.4,0.1,0.6,0,1,0c0.4,0,0.6,0,1,0c0.4,1.3,1.4,4.1,2.3,6.7
		c0.5,1.4,0.9,2.5,1.3,3.6C246.3,184,246.1,184,245.8,184z M242,175L242,175c-0.4,1.2-1.1,3.5-1.8,5.5c0.6-0.1,0.9-0.1,1.8-0.1
		c0.7,0,1.1,0,1.8,0.1C243,178.5,242.3,176.1,242,175z"/>
	<path class="st5" d="M249.4,180.1c0,0.8,0,1.8,0.1,3.9c-0.3,0-0.4,0-0.8,0c-0.3,0-0.6,0-0.8,0c0.1-2.1,0.1-3.1,0.1-3.9
		c0-2.4,0-5.5-0.1-6.5c0.3,0,0.4,0,0.8,0c0.4,0,0.5,0,0.9,0C249.4,174.6,249.4,177.8,249.4,180.1z"/>
	<path class="st5" d="M253.4,180.1c0,0.8,0,1.8,0.1,3.9c-0.3,0-0.4,0-0.8,0c-0.3,0-0.6,0-0.8,0c0.1-2.1,0.1-3.1,0.1-3.9
		c0-2.4,0-5.5-0.1-6.5c0.3,0,0.4,0,0.8,0c0.4,0,0.5,0,0.9,0C253.4,174.6,253.4,177.8,253.4,180.1z"/>
	<path class="st5" d="M260.2,184c-0.2,0-0.5,0-0.7,0c-0.3,0-0.5,0-0.8,0c0-0.9,0.1-2.9,0.1-4.3c0-2.7,0-5.3-0.1-6.1
		c0.2,0,0.4,0,0.7,0c0.4,0,0.6,0,0.8,0c0,0.6-0.1,1.6-0.1,2.1c0,0.7,0,1.6-0.1,2.3c0,0,0,0,0,0c0.5-0.9,1.1-1.3,2-1.3
		c2.3,0,2.5,1.5,2.5,3.6c0,1.1,0,2.6,0,3.8c-0.3,0-0.6,0-0.7,0c-0.2,0-0.5,0-0.8,0c0-1.2,0-2.8,0-3.5c0-1.7,0-2.4-1.4-2.4
		c-0.8,0-1.2,0.2-1.7,0.8c0,0.6,0,1.4,0,2.3C260.2,182.1,260.2,183.3,260.2,184z"/>
	<path class="st5" d="M272.6,180.7c0,1.2,0,2,0.1,3.3c-0.2,0-0.4,0-0.6,0c-0.3,0-0.5,0-0.7,0c0-0.4,0-0.8,0-1.1l0,0
		c-0.4,0.8-1,1.4-1.9,1.4c-1.8,0-2.6-1.1-2.6-3.2c0-1.8,0-3.7-0.1-4.2c0.3,0,0.5,0,0.7,0c0.3,0,0.6,0,0.8,0c-0.1,1.2-0.1,3-0.1,3.9
		c0,1.7,0.5,2,1.4,2c0.8,0,1.2-0.3,1.6-0.8c0-0.6,0-1.4,0-2.4c0-0.7,0-1.8-0.1-2.7c0.3,0,0.6,0,0.8,0c0.2,0,0.5,0,0.7,0
		C272.6,177.9,272.6,179.6,272.6,180.7z"/>
	<path class="st5" d="M283.9,184c-0.3,0-0.5,0-0.8,0c0-1.1,0.1-2.7,0.1-3.9c0-1.3-0.1-2-1.3-2c-0.6,0-1.1,0.2-1.5,0.6
		c0,0.7,0,1.5,0,2.3c0,1.1,0,2.1,0.1,2.9c-0.3,0-0.4,0-0.8,0c-0.3,0-0.5,0-0.7,0c0-0.8,0.1-2.7,0.1-3.9c0-1.4,0-2-1.3-2
		c-0.7,0-1.1,0.3-1.4,0.7c0,0.1,0,0.7,0,2.3c0,1.1,0,1.7,0.1,2.9c-0.3,0-0.4,0-0.7,0c-0.2,0-0.5,0-0.8,0c0-1.3,0-2.4,0-3.6
		s0-2.6,0-3.5c0.3,0,0.4,0,0.7,0c0.2,0,0.3,0,0.6,0c0,0.3,0.1,0.8,0.1,1.1l0,0c0.6-1,1-1.3,2-1.3c1,0,1.6,0.4,1.9,1.3
		c0.4-0.9,1.1-1.3,2.1-1.3c2,0,2.3,1.3,2.3,3.2c0,1.2,0,3.2,0.1,4.1C284.4,184,284.2,184,283.9,184z"/>
	<path class="st5" d="M291.6,184c-0.3,0-0.4,0-0.6,0c-0.1-0.4-0.2-0.7-0.2-1.1h-0.1c-0.3,0.9-0.8,1.3-1.9,1.3
		c-1.4,0-2.3-0.8-2.3-2.1c0-1.7,1.3-2.3,3.8-2.3c0,0,0.3,0,0.4,0v-0.4c0-1.1-0.4-1.4-1.5-1.4c-1,0-1.8,0.3-2.2,0.9
		c0-0.4-0.1-1.1-0.2-1.3c0.5-0.6,1.2-1.1,2.4-1.1c1.6,0,2.9,0.6,2.9,2.8v2.7c0,0.6,0,1.2,0.2,1.9C291.9,184,291.8,184,291.6,184z
		 M290.6,180.8c-0.4,0.1-0.8,0-1.4,0.1c-0.8,0.1-1.3,0.4-1.3,1c0,0.6,0.4,1,1.2,1c0.7,0,1.2-0.2,1.5-0.7V180.8z"/>
	<path class="st5" d="M299.4,184c-0.2,0-0.5,0-0.8,0c0-1.2,0-2.9,0-3.7c0-1.5,0-2.2-1.4-2.2c-0.8,0-1.2,0.2-1.6,0.7
		c0,0.6,0,1.4,0,2.3c0,1,0,2.1,0.1,2.8c-0.2,0-0.5,0-0.8,0c-0.2,0-0.4,0-0.7,0c0-0.9,0-1.7,0-2.9c0-1.8,0-3.1-0.1-4.2
		c0,0,0.4,0,0.6,0c0.3,0,0.6,0,0.6,0c0,0.4,0.1,0.5,0.1,1.1c0,0,0,0,0,0c0.5-1,1.1-1.4,2.1-1.4c2.4,0,2.4,1.8,2.4,3.4
		c0,1.1,0,2.8,0,3.9C299.7,184,299.5,184,299.4,184z"/>
	<path class="st5" d="M309.4,175.1c-0.3-0.1-0.7-0.1-1.1-0.1c-0.9,0-1.1,0.2-1.1,1c0,0.3,0,0.7,0,1l0,0c0.5-0.1,1.4-0.1,2.1-0.1
		c0,0.2,0,0.4,0,0.7c0,0.2,0,0.5,0,0.8c-0.6-0.1-1.8,0-2.1-0.2l0,0c0.1,0.3,0.1,0.9,0.1,2.8c0,1,0,2.3,0.1,3c-0.2,0-0.4,0-0.7,0
		c-0.4,0-0.6,0-0.8,0c0-0.8,0-2.1,0-3c0-1.3,0-2,0.1-2.7l0,0c-0.5,0.1-1.1,0.1-1.5,0.2c0-0.2,0-0.5,0-0.8c0-0.3,0-0.5,0-0.7
		c0.6,0.1,1.2,0,1.5,0.1l0,0c-0.1-0.6-0.1-0.8-0.1-1.1c0-1.5,0.8-2.3,2.5-2.3c0.4,0,0.9,0.1,1.1,0.2
		C309.4,174.1,309.4,174.6,309.4,175.1z"/>
	<path class="st5" d="M315.5,184c-0.3,0-0.4,0-0.6,0c-0.1-0.4-0.2-0.7-0.2-1.1h-0.1c-0.3,0.9-0.8,1.3-1.9,1.3
		c-1.4,0-2.3-0.8-2.3-2.1c0-1.7,1.3-2.3,3.8-2.3c0,0,0.3,0,0.4,0v-0.4c0-1.1-0.4-1.4-1.5-1.4c-1,0-1.8,0.3-2.2,0.9
		c0-0.4-0.1-1.1-0.2-1.3c0.5-0.6,1.2-1.1,2.4-1.1c1.6,0,2.9,0.6,2.9,2.8v2.7c0,0.6,0,1.2,0.2,1.9C315.8,184,315.7,184,315.5,184z
		 M314.5,180.8c-0.3,0.1-0.8,0-1.4,0.1c-0.8,0.1-1.3,0.4-1.3,1c0,0.6,0.4,1,1.2,1c0.7,0,1.2-0.2,1.5-0.7V180.8z"/>
	<path class="st5" d="M323.1,178.8c-0.5-0.5-1-0.7-1.9-0.7c-1.4,0-2.2,0.9-2.2,2.3c0,1.4,0.9,2.4,2.2,2.4c0.8,0,1.3-0.2,1.8-0.6
		c0,0.1,0,0.8,0.1,1.3c-0.6,0.5-1.2,0.7-1.9,0.7c-2.2,0-3.6-1.6-3.6-3.8c0-2.2,1.5-3.8,3.6-3.8c0.9,0,1.6,0.2,2,0.8
		C323.2,177.8,323.2,178.5,323.1,178.8z"/>
	<path class="st5" d="M326.8,177L326.8,177c0.4-0.2,1.8,0,2.2-0.1c0,0.3,0,0.6,0,0.8c0,0.2,0,0.4,0,0.7c-0.8-0.1-1.7,0-2.2-0.2
		l0,0.1c0.1,0.6,0.1,2.1,0.1,3c0,1.2,0.2,1.4,1.2,1.4c0.3,0,0.6,0,0.9-0.1c0,0.3,0,0.4,0,0.6c0,0.3,0,0.4,0.1,0.7
		c-0.4,0.1-0.8,0.2-1.3,0.2c-1.6,0-2.2-0.8-2.2-2.3c0-1,0.1-2.3,0.2-3.6l0,0c-0.4,0.2-1.1,0.1-1.6,0.2c0-0.3,0-0.5,0-0.8
		c0-0.2,0-0.5,0-0.7c0.6,0.1,1.2,0,1.6,0.1c0,0,0,0,0,0c-0.1-0.3-0.1-1.1-0.1-1.4c0.7,0,1-0.1,1.4-0.2
		C326.9,175.9,327,176.3,326.8,177z"/>
	<path class="st5" d="M333.7,184.2c-2,0-3.5-1.6-3.5-3.9c0-2.2,1.4-3.7,3.5-3.7s3.5,1.5,3.5,3.7
		C337.2,182.6,335.7,184.2,333.7,184.2z M333.7,178c-1.4,0-2.1,0.9-2.1,2.3c0,1.4,0.7,2.5,2.1,2.5s2.1-1.1,2.1-2.5
		C335.8,178.9,335.1,178,333.7,178z"/>
	<path class="st5" d="M343.1,178.4c-0.3-0.1-0.5-0.1-0.9-0.1c-0.8,0-1.3,0.3-1.7,1c0.1,0.5,0.1,1.3,0.1,1.9c0,1,0.1,2.2,0.1,2.8
		c-0.3,0-0.5,0-0.8,0s-0.5,0-0.8,0c0-1,0.1-1.8,0.1-3.1c0-2.3,0-2.8-0.1-4.1c0.3,0,0.5,0,0.6,0c0.2,0,0.4,0,0.7,0
		c0.1,0.4,0.1,0.9,0.1,1.3l0,0c0.5-1,1.1-1.4,2-1.4c0.3,0,0.4,0,0.7,0.1C343.1,177.4,343.1,177.8,343.1,178.4z"/>
	<path class="st5" d="M346,184.2c-0.7,0-1.5-0.2-1.9-0.5c0.1-0.4,0.1-0.9,0.1-1.3c0.5,0.3,1.1,0.4,1.7,0.4c1,0,1.4-0.3,1.4-0.9
		c0-0.6-0.3-0.8-1.4-0.9c-1.5-0.2-2.1-0.8-2.1-1.9c0-1.4,1.1-2.4,2.9-2.4c0.8,0,1.4,0.2,1.9,0.6c-0.1,0.4-0.2,0.8-0.2,1.3
		c-0.5-0.3-1-0.4-1.7-0.4c-1,0-1.5,0.3-1.5,0.9c0,0.6,0.2,0.7,1.5,0.9c1.4,0.2,2,0.7,2,1.9C348.7,183.2,347.8,184.2,346,184.2z"/>
</g>
<g>
	<path class="st6" d="M200,36.8v22.8c22.4,0.1,40.6,18.3,40.6,40.8c0,22.5-18.2,40.7-40.6,40.8V164c35.1,0,63.6-28.5,63.6-63.6
		S235.1,36.8,200,36.8z"/>
</g>
<g>
	<path class="st7" d="M200,36.8v22.8c-22.4,0.1-40.6,18.3-40.6,40.8c0,22.5,18.2,40.7,40.6,40.8V164c-35.1,0-63.6-28.5-63.6-63.6
		S164.9,36.8,200,36.8z"/>
</g>
<g>
	<path class="st3" d="M210.1,60.5c0,0,36.3,1.5,37.8,39c1.6,37.5-34.4,43-34.4,43"/>
	<path class="st8" d="M243.9,74.2c-1,0.9-2.1,1.8-2.9,2.6c-0.2-0.2-0.3-0.3-0.4-0.5c-0.2-0.2-0.3-0.3-0.5-0.5
		c0.6-0.5,0.9-0.8,1.5-1.3c0.4-0.3,0.7-0.6,1.1-0.9c-0.4-0.4-0.9-0.9-1.4-1.5c-0.5-0.6-0.9-1-1.3-1.6c-0.2,0.2-0.7,0.6-1.1,1
		c-0.6,0.5-1,0.8-1.5,1.3c-0.1-0.2-0.2-0.3-0.4-0.5c-0.2-0.2-0.3-0.3-0.5-0.5c0.7-0.5,1.8-1.5,3-2.5c1.2-1,2.5-2.2,3-2.7
		c0.1,0.2,0.2,0.3,0.4,0.5c0.2,0.2,0.3,0.3,0.5,0.5c-0.5,0.4-0.7,0.5-1,0.9c-0.6,0.5-1.5,1.2-1.7,1.4c0.4,0.4,0.7,0.8,1.4,1.5
		c0.6,0.7,0.9,1,1.3,1.6c0.2-0.2,1-0.9,1.6-1.4c0.4-0.3,0.6-0.5,1-0.9c0.2,0.2,0.3,0.3,0.4,0.5c0.2,0.2,0.3,0.3,0.5,0.5
		C246.3,72.2,245.1,73.2,243.9,74.2z"/>
	<path class="st8" d="M246.5,81.5c-0.8,0.5-1.4,0.7-2.2,1.2c-0.1-0.1-0.1-0.3-0.2-0.5c-0.1-0.2-0.2-0.4-0.3-0.5
		c0.3-0.2,0.5-0.3,0.8-0.4l0,0c-0.7,0-1.3-0.2-1.7-0.9c-0.7-1.3-0.3-2.4,1.1-3.2c1.2-0.7,2.5-1.4,2.8-1.6c0.1,0.2,0.2,0.4,0.3,0.6
		c0.1,0.2,0.2,0.4,0.3,0.6c-0.8,0.4-2.1,1.1-2.7,1.4c-1.2,0.6-1.2,1.1-0.8,1.8c0.3,0.6,0.7,0.8,1.2,0.9c0.4-0.2,0.9-0.5,1.6-0.9
		c0.5-0.2,1.2-0.7,1.8-1c0.1,0.2,0.2,0.4,0.3,0.6c0.1,0.2,0.2,0.4,0.3,0.5C248.4,80.5,247.2,81.1,246.5,81.5z"/>
	<path class="st8" d="M247.2,91.5c-0.1-0.3-0.1-0.4-0.2-0.7c0.8-0.2,2-0.5,2.9-0.8c1-0.3,1.5-0.5,1.2-1.5c-0.1-0.5-0.4-0.9-0.8-1.1
		c-0.5,0.2-1.1,0.3-1.7,0.5c-0.8,0.2-1.6,0.5-2.1,0.7c0-0.2-0.1-0.4-0.2-0.6c-0.1-0.2-0.1-0.4-0.2-0.6c0.6-0.1,2-0.5,2.9-0.8
		c1-0.3,1.5-0.4,1.2-1.5c-0.2-0.6-0.5-0.9-0.8-1c0,0-0.5,0.2-1.7,0.5c-0.8,0.2-1.2,0.4-2.1,0.7c-0.1-0.2-0.1-0.4-0.2-0.6
		c0-0.2-0.1-0.4-0.2-0.6c0.9-0.2,1.8-0.5,2.7-0.7c0.9-0.3,1.9-0.5,2.6-0.8c0,0.2,0.1,0.4,0.1,0.5c0.1,0.2,0.1,0.3,0.2,0.5
		c-0.2,0.1-0.5,0.2-0.8,0.3l0,0c0.8,0.3,1.2,0.5,1.5,1.3c0.2,0.8,0.1,1.4-0.5,1.9c0.7,0.2,1.2,0.6,1.5,1.4c0.5,1.6-0.4,2.2-1.8,2.6
		c-0.9,0.2-2.4,0.7-3,0.9C247.3,91.9,247.2,91.8,247.2,91.5z"/>
	<path class="st8" d="M247.9,97.7c0-0.2,0-0.3-0.1-0.5c0.3-0.1,0.5-0.2,0.8-0.2l0,0c-0.7-0.2-1.1-0.6-1.2-1.6
		c-0.1-1.2,0.4-2,1.4-2.1c1.3-0.1,1.9,0.9,2.1,3c0,0,0,0.2,0,0.3l0.3,0c0.8-0.1,1-0.5,0.9-1.4c-0.1-0.9-0.4-1.5-0.9-1.8
		c0.3,0,0.8-0.2,1-0.3c0.5,0.3,0.9,0.9,1,2c0.1,1.3-0.2,2.5-1.9,2.7l-2,0.2c-0.4,0-0.9,0.1-1.4,0.3
		C247.9,98.1,247.9,97.9,247.9,97.7z M250.2,96.6c-0.1-0.3-0.1-0.7-0.2-1.2c-0.1-0.7-0.4-1.1-0.9-1.1c-0.5,0.1-0.7,0.4-0.6,1.1
		c0.1,0.6,0.3,1,0.7,1.3L250.2,96.6z"/>
	<path class="st8" d="M248,104.2c0-0.2,0-0.4,0-0.7c0.9,0,2.2,0.1,2.8,0.1c1.1,0,1.7,0,1.7-1.2c0-0.6-0.2-1-0.6-1.4
		c-0.4,0-1.1,0-1.8,0c-0.8,0-1.6,0-2.2,0c0-0.2,0-0.4,0-0.6c0-0.2,0-0.3,0-0.6c0.7,0,1.3,0,2.2,0.1c1.3,0,2.4,0,3.2,0
		c0,0,0,0.3,0,0.5c0,0.2,0,0.5,0,0.5c-0.3,0-0.4,0.1-0.9,0.1c0,0,0,0,0,0c0.7,0.4,1,1,1,1.8c0,2-1.4,2.1-2.6,2.1c-0.9,0-2.1,0-3,0
		C247.9,104.5,248,104.3,248,104.2z"/>
	<path class="st8" d="M253.5,113.7c0.1-0.2,0.2-0.5,0.2-0.9c0.1-0.7,0-1-0.6-1.1c-0.3,0-0.5-0.1-0.7-0.2l0,0c0,0.5-0.2,1.2-0.3,1.7
		c-0.1,0-0.3-0.1-0.5-0.1c-0.2,0-0.4,0-0.6-0.1c0.1-0.5,0.3-1.5,0.4-1.7l0,0c-0.3,0-0.7,0-2.1-0.3c-0.7-0.1-1.7-0.3-2.3-0.3
		c0-0.2,0.1-0.3,0.1-0.6c0.1-0.3,0.1-0.5,0.1-0.7c0.6,0.1,1.5,0.3,2.3,0.4c1,0.2,1.5,0.3,2,0.5l0,0c0-0.4,0.1-0.9,0.1-1.3
		c0.2,0.1,0.3,0.1,0.6,0.1c0.2,0,0.4,0.1,0.6,0.1c-0.1,0.5-0.2,1-0.3,1.3l0,0c0.4,0,0.6,0,0.8,0c1.1,0.2,1.6,1,1.4,2.4
		c-0.1,0.4-0.2,0.7-0.3,0.9C254.3,113.8,253.9,113.7,253.5,113.7z"/>
	<path class="st8" d="M245.4,117.2c0.1-0.2,0.1-0.3,0.1-0.5c0.3,0,0.5,0,0.9,0.1l0,0c-0.6-0.5-0.7-1-0.5-1.9
		c0.4-1.2,1.2-1.7,2.1-1.4c1.3,0.4,1.3,1.6,0.7,3.6c0,0-0.1,0.2-0.1,0.3l0.3,0.1c0.8,0.2,1.1-0.1,1.4-0.9c0.3-0.8,0.2-1.5-0.1-2
		c0.3,0.1,0.8,0.2,1,0.1c0.4,0.5,0.5,1.2,0.2,2.2c-0.4,1.3-1.2,2.2-2.8,1.7l-2-0.6c-0.4-0.1-0.9-0.2-1.4-0.3
		C245.3,117.5,245.4,117.4,245.4,117.2z M248,117.1c0-0.3,0.2-0.7,0.3-1.2c0.1-0.7,0.1-1.2-0.4-1.3c-0.5-0.1-0.8,0.1-1,0.8
		c-0.2,0.6-0.1,1,0.1,1.4L248,117.1z"/>
	<path class="st8" d="M246.3,124.7c0.5-0.2,0.9-0.5,1.2-1.2c0.5-1.1,0.2-2-0.7-2.5c-1-0.5-1.9-0.1-2.5,0.9c-0.3,0.6-0.4,1-0.3,1.6
		c0,0-0.6-0.3-1-0.3c-0.1-0.6,0-1.1,0.3-1.7c0.8-1.7,2.5-2.2,4-1.5c1.5,0.7,2,2.4,1.2,4.1c-0.3,0.7-0.7,1.1-1.3,1.3
		C246.9,125.1,246.5,124.8,246.3,124.7z"/>
	<path class="st8" d="M245.5,128.4L245.5,128.4c-0.1,0.4-0.9,1.3-1,1.6c-0.2-0.2-0.3-0.3-0.5-0.4c-0.1-0.1-0.3-0.2-0.5-0.3
		c0.5-0.5,0.8-1.2,1.2-1.5l0-0.1c-0.5-0.2-1.4-0.8-1.9-1.2c-0.8-0.5-1-0.5-1.5,0.2c-0.2,0.2-0.3,0.4-0.4,0.6
		c-0.2-0.1-0.2-0.2-0.4-0.3c-0.2-0.1-0.3-0.2-0.5-0.3c0.1-0.3,0.3-0.7,0.5-1c0.8-1.1,1.5-1.2,2.5-0.5c0.6,0.4,1.4,1,2.1,1.7l0,0
		c0.1-0.4,0.5-0.8,0.7-1.2c0.2,0.1,0.3,0.3,0.5,0.4c0.1,0.1,0.3,0.2,0.5,0.3c-0.3,0.4-0.6,0.9-0.8,1.1c0,0,0,0,0,0
		c0.2,0,0.8,0.4,1,0.5c-0.3,0.5-0.4,0.7-0.6,1.1C246.2,128.9,245.9,128.8,245.5,128.4z"/>
	<path class="st8" d="M237.4,129.5c1.2-1.2,2.9-1.3,4.2-0.1c1.2,1.2,1.2,2.9,0,4.1c-1.2,1.3-2.9,1.4-4.1,0.2
		C236.3,132.5,236.2,130.8,237.4,129.5z M240.9,132.8c0.8-0.9,0.8-1.8,0-2.5c-0.8-0.7-1.8-0.9-2.6,0c-0.8,0.9-0.6,1.9,0.1,2.6
		C239.1,133.6,240,133.6,240.9,132.8z"/>
	<path class="st8" d="M234.3,138.1c0.2-0.1,0.4-0.2,0.7-0.4c0.5-0.4,0.7-0.8,0.7-1.5c-0.3-0.3-0.7-0.7-0.9-1.1
		c-0.5-0.6-1.1-1.3-1.4-1.6c0.2-0.1,0.3-0.2,0.5-0.4c0.2-0.2,0.4-0.3,0.5-0.4c0.5,0.6,0.8,1.1,1.4,1.9c1.1,1.4,1.3,1.7,2,2.4
		c-0.2,0.1-0.3,0.2-0.4,0.3c-0.1,0.1-0.2,0.2-0.4,0.4c-0.2-0.2-0.5-0.5-0.7-0.8l0,0c0.1,0.9,0,1.4-0.7,1.9c-0.2,0.2-0.3,0.2-0.5,0.3
		C234.8,138.7,234.6,138.5,234.3,138.1z"/>
	<path class="st8" d="M229.6,135.9c0.5-0.3,1.1-0.5,1.6-0.5c0.1,0.3,0.3,0.6,0.4,0.9c-0.5,0.1-1,0.2-1.4,0.5
		c-0.7,0.4-0.9,0.8-0.6,1.2c0.2,0.4,0.5,0.4,1.4,0c1.2-0.5,1.9-0.4,2.3,0.3c0.6,0.9,0.2,2-1.1,2.8c-0.6,0.3-1.1,0.5-1.6,0.5
		c-0.1-0.3-0.2-0.6-0.4-0.9c0.5,0,0.9-0.2,1.4-0.5c0.7-0.5,1-0.9,0.7-1.3c-0.2-0.4-0.4-0.4-1.4,0c-1.1,0.5-1.7,0.4-2.2-0.4
		C228,137.7,228.4,136.7,229.6,135.9z"/>
</g>
<g>
	<path class="st3" d="M192,144.4c0,0-34.3,1.8-40.1-37.5s27.5-48.4,27.5-48.4"/>
	<path class="st8" d="M160.1,134c0.8-0.9,1.2-1.4,2.1-2.3c0.1,0.1,0.3,0.3,0.4,0.4c0.2,0.2,0.5,0.4,0.5,0.4c0,0.8,0,1.8-0.1,3.8
		c-0.1,2-0.2,2.8-0.4,3.8l0.1,0c0.3-0.4,0.9-1.1,1.5-1.7c1-1.1,1.8-1.9,2.5-2.7c0.2,0.2,0.3,0.3,0.5,0.5c0.2,0.2,0.3,0.2,0.5,0.5
		c-0.4,0.4-1.6,1.6-2.6,2.7c-1,1.1-2.4,2.7-2.5,2.8c-0.2-0.2-0.3-0.4-0.6-0.6c-0.2-0.2-0.3-0.3-0.5-0.4c0-1.2,0.1-2.4,0.3-3.9
		c0.1-1.7,0.2-2.7,0.5-3.7l0,0c-0.6,0.8-1.2,1.4-1.8,2c-0.9,0.9-1.9,2.1-2.2,2.5c-0.2-0.2-0.4-0.4-0.6-0.6c-0.2-0.2-0.4-0.3-0.5-0.4
		C157.5,136.7,159,135.2,160.1,134z"/>
	<path class="st8" d="M158.6,126.5c0.1,0.2,0.2,0.3,0.3,0.5c-0.2,0.2-0.3,0.4-0.6,0.6l0,0c0.7-0.1,1.2,0.1,1.8,0.9
		c0.7,1.1,0.7,2,0,2.6c-1,0.7-2,0-3.3-1.9c0,0-0.1-0.2-0.2-0.3l-0.2,0.2c-0.6,0.4-0.6,0.9,0,1.7c0.5,0.8,1.1,1.2,1.7,1.3
		c-0.2,0.1-0.6,0.5-0.7,0.7c-0.6-0.1-1.3-0.5-1.9-1.4c-0.8-1.2-1.1-2.4,0.2-3.3l1.6-1.1c0.3-0.2,0.7-0.5,1-0.9
		C158.4,126.2,158.5,126.3,158.6,126.5z M157.2,128.6c0.2,0.2,0.4,0.6,0.8,1c0.5,0.6,0.9,0.8,1.3,0.6c0.4-0.3,0.4-0.7-0.1-1.3
		c-0.4-0.6-0.7-0.8-1.2-0.9L157.2,128.6z"/>
	<path class="st8" d="M152.3,125.5L152.3,125.5c-0.3-0.3-0.8-1.5-1-1.7c0.2-0.1,0.4-0.2,0.5-0.2c0.1-0.1,0.3-0.2,0.5-0.3
		c0.3,0.7,0.7,1.4,0.8,1.8l0.1,0c0.4-0.3,1.3-0.8,1.9-1.1c0.8-0.4,0.9-0.6,0.4-1.4c-0.1-0.2-0.2-0.5-0.4-0.7
		c0.2-0.1,0.3-0.1,0.4-0.2c0.2-0.1,0.3-0.2,0.4-0.3c0.2,0.3,0.4,0.6,0.6,1c0.6,1.3,0.4,2-0.6,2.5c-0.6,0.3-1.5,0.7-2.4,1l0,0
		c0.3,0.3,0.5,0.9,0.8,1.3c-0.2,0.1-0.4,0.1-0.5,0.2c-0.1,0.1-0.3,0.2-0.5,0.3c-0.2-0.5-0.5-1-0.6-1.3c0,0,0,0,0,0
		c-0.1,0.2-0.7,0.5-0.9,0.6c-0.3-0.5-0.5-0.8-0.7-1.1C151.6,125.8,151.8,125.6,152.3,125.5z"/>
	<path class="st8" d="M151.4,116.1c0.9-0.3,1.4-0.5,2.3-0.8c0,0.1,0.1,0.3,0.2,0.5c0.1,0.2,0.2,0.4,0.2,0.6
		c-0.3,0.1-0.5,0.2-0.8,0.3l0,0c0.7,0.1,1.2,0.5,1.5,1.3c0.5,1.5,0,2.5-1.4,3c-1.2,0.4-2.5,0.9-2.8,1.1c-0.1-0.2-0.1-0.4-0.2-0.6
		c-0.1-0.3-0.2-0.5-0.3-0.7c0.8-0.2,2.1-0.7,2.7-0.9c1.2-0.4,1.2-0.9,1-1.7c-0.2-0.7-0.6-1-1-1.2c-0.4,0.2-0.9,0.4-1.6,0.6
		c-0.5,0.2-1.2,0.4-1.9,0.7c-0.1-0.3-0.2-0.5-0.2-0.7c-0.1-0.2-0.2-0.4-0.2-0.6C149.5,116.7,150.7,116.3,151.4,116.1z"/>
	<path class="st8" d="M148.5,110.7c0,0.3,0,0.5,0.1,0.8c0.2,0.7,0.5,1.1,1.1,1.4c0.3-0.1,0.9-0.3,1.3-0.4c0.7-0.2,1.6-0.4,2-0.5
		c0,0.2,0.1,0.4,0.1,0.7c0.1,0.3,0.1,0.5,0.2,0.7c-0.7,0.1-1.3,0.3-2.2,0.5c-1.6,0.4-2,0.5-2.9,0.7c0-0.2-0.1-0.4-0.1-0.6
		c0-0.1-0.1-0.3-0.2-0.6c0.3-0.1,0.6-0.2,0.9-0.3l0,0c-0.8-0.3-1.2-0.7-1.4-1.6c-0.1-0.3-0.1-0.4-0.1-0.7
		C147.7,110.9,148,110.8,148.5,110.7z"/>
	<path class="st8" d="M151.6,104.5c0,0.2,0.1,0.4,0.1,0.6c-0.3,0.1-0.5,0.2-0.8,0.3l0,0c0.7,0.2,1,0.6,1.2,1.6
		c0.2,1.3-0.3,2.2-1.2,2.3c-1.2,0.2-1.8-0.9-2.1-3.2c0,0,0-0.2,0-0.4l-0.3,0c-0.8,0.1-0.9,0.5-0.8,1.5c0.1,0.9,0.4,1.6,0.9,1.9
		c-0.3,0-0.8,0.2-0.9,0.3c-0.5-0.4-0.9-1-1.1-2.1c-0.2-1.4,0.1-2.6,1.7-2.8l1.9-0.2c0.4-0.1,0.9-0.2,1.3-0.4
		C151.6,104.2,151.6,104.3,151.6,104.5z M149.4,105.7c0.1,0.3,0.1,0.7,0.2,1.3c0.2,0.7,0.4,1.2,0.9,1.1c0.5-0.1,0.7-0.4,0.6-1.2
		c-0.1-0.7-0.3-1-0.7-1.3L149.4,105.7z"/>
	<path class="st8" d="M148.5,101.1c0.6,0,1.3-0.1,2.8-0.2c0,0.2,0,0.4,0,0.7c0,0.3,0,0.5,0.1,0.7c-1.5,0-2.2,0.1-2.8,0.1
		c-1.7,0.1-4,0.3-4.7,0.4c0-0.2,0-0.4,0-0.7c0-0.4,0-0.5-0.1-0.8C144.5,101.3,146.8,101.2,148.5,101.1z"/>
	<path class="st8" d="M145.1,92c-0.1,0.3-0.1,0.6-0.1,1c-0.1,0.8,0.1,1,0.6,1c0.2,0,0.5,0,0.7,0.1l0,0c0-0.5,0-1.3,0.1-1.9
		c0.1,0,0.3,0.1,0.5,0.1c0.2,0,0.3,0,0.5,0c-0.1,0.6-0.1,1.6-0.2,1.9l0,0c0.2-0.1,0.7-0.1,2,0c0.7,0,1.6,0.1,2.2,0.1
		c0,0.2,0,0.4-0.1,0.6c0,0.3,0,0.5,0,0.7c-0.6-0.1-1.5-0.1-2.2-0.2c-1-0.1-1.5-0.1-2-0.2l0,0c0.1,0.4,0,1,0,1.4
		c-0.1,0-0.3-0.1-0.6-0.1c-0.2,0-0.4,0-0.5,0c0.1-0.5,0.1-1.1,0.2-1.4l0,0c-0.4,0-0.6,0.1-0.8,0.1c-1.1-0.1-1.6-0.8-1.5-2.3
		c0-0.4,0.1-0.8,0.2-1C144.4,91.9,144.8,91.9,145.1,92z"/>
	<path class="st8" d="M152.4,87.2c0,0.2-0.1,0.4-0.1,0.6c-0.3,0-0.5,0-0.8,0l0,0.1c0.6,0.4,0.8,0.9,0.6,1.9c-0.2,1.3-0.9,2-1.9,1.8
		c-1.2-0.2-1.4-1.5-1-3.7c0,0,0-0.2,0.1-0.3l-0.3-0.1c-0.8-0.1-1,0.2-1.2,1.2c-0.2,0.9-0.1,1.6,0.3,2.1c-0.2,0-0.8,0-0.9,0
		c-0.4-0.5-0.6-1.2-0.4-2.3c0.3-1.4,0.9-2.5,2.5-2.2l1.9,0.4c0.4,0.1,0.9,0.1,1.4,0.1C152.5,86.9,152.5,87,152.4,87.2z M150,87.7
		c0,0.3-0.1,0.7-0.2,1.3c-0.1,0.7,0,1.2,0.5,1.3c0.5,0.1,0.8-0.2,0.9-1c0.1-0.7,0-1.1-0.3-1.5L150,87.7z"/>
	<path class="st8" d="M150.9,79.6c-0.5,0.3-0.8,0.7-1,1.4c-0.4,1.2,0,2.1,0.9,2.5c0.9,0.3,1.9-0.2,2.3-1.3c0.2-0.7,0.3-1.1,0.1-1.7
		c0,0,0.6,0.2,1,0.2c0.2,0.6,0.1,1.2-0.1,1.8c-0.7,1.9-2.2,2.7-3.7,2.2c-1.5-0.5-2.1-2.1-1.5-4c0.3-0.8,0.6-1.3,1.2-1.6
		C150.3,79.2,150.7,79.5,150.9,79.6z"/>
	<path class="st8" d="M151.4,75.7L151.4,75.7c0.1-0.4,0.7-1.5,0.8-1.8c0.2,0.1,0.4,0.2,0.5,0.3c0.1,0.1,0.3,0.1,0.5,0.2
		c-0.4,0.6-0.7,1.3-1,1.7l0,0.1c0.5,0.1,1.4,0.6,2,0.9c0.8,0.4,1,0.3,1.4-0.5c0.1-0.2,0.2-0.5,0.3-0.7c0.2,0.1,0.2,0.2,0.4,0.2
		c0.2,0.1,0.3,0.1,0.5,0.2c-0.1,0.3-0.3,0.7-0.4,1.1c-0.7,1.3-1.4,1.5-2.4,1c-0.6-0.3-1.4-0.8-2.2-1.4l0,0c0,0.4-0.4,0.9-0.6,1.4
		c-0.2-0.1-0.3-0.2-0.5-0.3c-0.1-0.1-0.3-0.2-0.5-0.2c0.3-0.5,0.5-1,0.7-1.2c0,0,0,0,0,0c-0.2,0-0.8-0.3-1-0.4
		c0.3-0.6,0.4-0.8,0.5-1.2C150.7,75.3,151,75.3,151.4,75.7z"/>
	<path class="st8" d="M159.2,73.1c-1.1,1.5-2.8,1.8-4.1,0.8c-1.3-1-1.4-2.7-0.3-4.1c1.1-1.5,2.7-1.9,4-0.9
		C160.1,69.9,160.3,71.6,159.2,73.1z M155.6,70.4c-0.7,1-0.6,1.9,0.2,2.5c0.8,0.6,1.8,0.6,2.6-0.5c0.8-1,0.5-2-0.3-2.6
		C157.2,69.3,156.3,69.4,155.6,70.4z"/>
	<path class="st8" d="M161.7,64c-0.2,0.1-0.4,0.3-0.6,0.5c-0.5,0.5-0.7,1-0.6,1.6c0.3,0.2,0.7,0.6,1,0.9c0.5,0.5,1.2,1.1,1.5,1.4
		c-0.2,0.2-0.3,0.3-0.5,0.5c-0.2,0.2-0.3,0.4-0.5,0.5c-0.5-0.6-0.9-1-1.5-1.6c-1.2-1.2-1.4-1.4-2.1-2c0.2-0.2,0.3-0.3,0.4-0.4
		c0.1-0.1,0.2-0.2,0.4-0.4c0.2,0.2,0.5,0.4,0.7,0.6l0,0c-0.2-0.9-0.1-1.4,0.6-2c0.2-0.2,0.3-0.3,0.5-0.4
		C161.2,63.5,161.4,63.7,161.7,64z"/>
	<path class="st8" d="M166.6,65.5c-0.5,0.4-1.1,0.7-1.6,0.7c-0.1-0.3-0.3-0.6-0.5-0.8c0.5-0.1,1-0.4,1.4-0.7
		c0.7-0.5,0.8-0.9,0.6-1.3c-0.3-0.4-0.6-0.3-1.4,0.2c-1.2,0.7-1.9,0.7-2.4,0.1c-0.6-0.8-0.3-1.9,1-2.9c0.6-0.4,1.1-0.7,1.7-0.7
		c0.1,0.3,0.2,0.6,0.4,0.8c-0.5,0.1-0.9,0.3-1.4,0.7c-0.7,0.6-0.9,1-0.7,1.4c0.2,0.3,0.4,0.3,1.5-0.3c1.1-0.6,1.7-0.7,2.3,0
		C168.1,63.4,167.9,64.5,166.6,65.5z"/>
</g>
</svg>
