<svg xmlns="http://www.w3.org/2000/svg" xmlns:xlink="http://www.w3.org/1999/xlink" version="1.1" x="0px" y="0px" viewBox="0 0 100 125" style="enable-background:new 0 0 100 100;" xml:space="preserve"><polygon points="68.9,63.2 60.9,48.2 62.8,48.2 56.2,36.7 55.9,36.2 58,36.2 53.8,29 52.5,26.8 54.3,26.8 52,22.7 49.6,18.7   47.3,22.7 44.9,26.8 46.7,26.8 45.4,29 41.3,36.2 43.3,36.2 43,36.7 36.4,48.2 39.1,48.2 31.1,63.2 46.9,63.2 46.9,74.6 52.2,74.6   52.2,63.2 "/><rect x="16" y="61.8" width="5.3" height="9.9"/><rect x="24.9" y="48.7" width="5.3" height="9.9"/><rect x="74.5" y="64.7" width="5.3" height="9.9"/><rect x="61.4" y="74.6" width="5.3" height="9.9"/><rect x="83.4" y="76.9" width="5.3" height="9.9"/><rect x="84.9" y="51.5" width="5.3" height="9.9"/><rect x="66.7" y="46.5" width="5.3" height="9.9"/><rect x="11.3" y="43.7" width="5.3" height="9.9"/><rect x="30.2" y="73" width="5.3" height="9.9"/><rect x="11.3" y="77.9" width="5.3" height="9.9"/><text x="0" y="115" fill="#000000" font-size="5px" font-weight="bold" font-family="'Helvetica Neue', Helvetica, Arial-Unicode, Arial, Sans-serif">Created by Ron Scott</text><text x="0" y="120" fill="#000000" font-size="5px" font-weight="bold" font-family="'Helvetica Neue', Helvetica, Arial-Unicode, Arial, Sans-serif">from the Noun Project</text></svg>