<svg xmlns="http://www.w3.org/2000/svg" xmlns:xlink="http://www.w3.org/1999/xlink" version="1.1" x="0px" y="0px" viewBox="0 0 64 80" enable-background="new 0 0 64 64" xml:space="preserve"><g><path d="M61.058,14.197c-1.475-2.407-4.558-3.68-8.914-3.68c-2.497,0-5.328,0.42-8.355,1.195c-0.376-0.708-1.111-1.195-1.97-1.195   c-1.235,0-2.237,1.002-2.237,2.237c0,0.074,0.015,0.144,0.022,0.216c-4.79,1.648-9.9,4.075-14.893,7.135   c-7.672,4.7-14.166,10.313-18.286,15.805C2.167,41.586,0.929,46.52,2.941,49.803c1.475,2.408,4.558,3.68,8.915,3.68   c7.378,0,17.633-3.584,27.431-9.586C55.582,33.914,65.145,20.868,61.058,14.197z M38.526,42.654   c-9.58,5.869-19.549,9.371-26.67,9.371c-2.666,0-6.161-0.518-7.673-2.984c-1.654-2.699-0.412-7.166,3.406-12.256   c4.013-5.349,10.363-10.832,17.883-15.438c4.957-3.037,10.017-5.435,14.734-7.047c0.407,0.425,0.978,0.692,1.612,0.692   c1.101,0,2.01-0.795,2.199-1.84c2.951-0.766,5.705-1.179,8.126-1.179c2.666,0,6.161,0.518,7.672,2.984   C63.354,20.733,53.604,33.416,38.526,42.654z"/><path d="M54.042,18.495c-1.146-1.869-3.521-2.857-6.868-2.857c-5.589,0-13.35,2.71-20.759,7.249   c-5.066,3.104-9.454,6.736-12.56,10.375c-0.203-0.061-0.414-0.104-0.636-0.104c-1.235,0-2.237,1.002-2.237,2.238   c0,0.459,0.139,0.885,0.375,1.238c-2.23,3.582-2.738,6.688-1.4,8.871c1.146,1.869,3.521,2.857,6.868,2.857   c5.589,0,13.35-2.711,20.759-7.248c5.737-3.516,10.604-7.709,13.725-11.823c0.069,0.007,0.137,0.021,0.208,0.021   c1.236,0,2.238-1.002,2.238-2.237c0-0.409-0.118-0.788-0.311-1.118C54.977,22.97,55.201,20.386,54.042,18.495z M36.822,39.873   c-7.19,4.404-14.665,7.033-19.998,7.033c-1.962,0-4.531-0.375-5.626-2.162c-1.009-1.646-0.516-4.223,1.329-7.23   c0.219,0.072,0.449,0.121,0.691,0.121c1.236,0,2.238-1.002,2.238-2.238c0-0.479-0.153-0.92-0.409-1.285   c3-3.491,7.231-6.983,12.127-9.983c7.19-4.404,14.667-7.034,19.999-7.034c1.962,0,4.531,0.375,5.626,2.162   c0.837,1.365,0.642,3.37-0.501,5.729c-0.244-0.091-0.506-0.148-0.782-0.148c-1.235,0-2.237,1.002-2.237,2.238   c0,0.621,0.254,1.183,0.663,1.589C46.922,32.556,42.292,36.521,36.822,39.873z"/><path d="M42.367,20.59c-3.86,0-9.207,1.864-14.304,4.986c-3.985,2.441-7.362,5.362-9.509,8.224   c-2.284,3.045-2.928,5.725-1.811,7.547c0.826,1.35,2.517,2.063,4.888,2.063c3.86,0,9.207-1.863,14.304-4.986   c3.985-2.441,7.362-5.363,9.509-8.224c2.284-3.045,2.928-5.725,1.812-7.547C46.429,21.304,44.738,20.59,42.367,20.59z    M44.279,29.326c-2.039,2.718-5.273,5.508-9.105,7.856c-4.877,2.988-9.94,4.771-13.542,4.771c-1.281,0-2.954-0.238-3.646-1.367   c-0.771-1.26-0.14-3.414,1.734-5.912c2.039-2.717,5.272-5.506,9.104-7.855c4.878-2.987,9.941-4.771,13.543-4.771   c1.281,0,2.954,0.237,3.646,1.367C46.785,24.673,46.153,26.828,44.279,29.326z"/><circle cx="32" cy="32" r="4.069"/></g><text x="0" y="79" fill="#000000" font-size="5px" font-weight="bold" font-family="'Helvetica Neue', Helvetica, Arial-Unicode, Arial, Sans-serif">Created by Creative Stall</text><text x="0" y="84" fill="#000000" font-size="5px" font-weight="bold" font-family="'Helvetica Neue', Helvetica, Arial-Unicode, Arial, Sans-serif">from the Noun Project</text></svg>